<svg xmlns="http://www.w3.org/2000/svg" viewBox="0 0 285.71 147.74"><defs><style>.cls-1{fill:#373e38;}</style></defs><title>Element 5</title><g id="Ebene_2" data-name="Ebene 2"><g id="Ebene_1-2" data-name="Ebene 1"><path class="cls-1" d="M235.83,18.51A4.37,4.37,0,0,0,233.38,20a13.83,13.83,0,0,0-2.22,4,46.26,46.26,0,0,0-2,9.6,14.59,14.59,0,0,1-.72,3.85A25.76,25.76,0,0,1,214.89,51a34.78,34.78,0,0,1-4.39,1.34c-.4.11-.84.27-1.17-.27a8.51,8.51,0,0,1,1.6-2.78,25.3,25.3,0,0,0,4-10.3,5.92,5.92,0,0,0,.13-1.62,102.41,102.41,0,0,0-2-13.59,11.31,11.31,0,0,1-.22-4.53c.31-2.05.38-4.13.49-6.21a22.77,22.77,0,0,0-1.15-7.41,5.65,5.65,0,0,0-1.47-2.52c-.86-.85-1.6-.81-3,.1v0a1.53,1.53,0,0,0-.76,1,14,14,0,0,0,.71,9.92c.88,2.11,1.92,4.17,2.95,6.22a22.37,22.37,0,0,1,2.32,8.82c-1.16-.23-1.34-1.24-1.95-1.8a4.42,4.42,0,0,0-2.27-1.23,2,2,0,0,0-2.49,2.25,9.29,9.29,0,0,0,1,3.11,28.87,28.87,0,0,0,4.93,6.92,3,3,0,0,1,.75,3,19.2,19.2,0,0,1-3,6.87c-2.67,3.73-5.39,7.43-8.1,11.12-.1.14-.36.16-.84.35-1.8-3.56-3.86-7-4.59-11.07a14.59,14.59,0,0,1,.73-8.32A21.59,21.59,0,0,0,198,28.44a6,6,0,0,0-.48-1.56,3.08,3.08,0,0,0-2.95-1.73,2.7,2.7,0,0,0-2.51,1.79,9.59,9.59,0,0,0-.89,3.13,21.4,21.4,0,0,0,2.35,12.38,9.15,9.15,0,0,1,1.23,4A22.63,22.63,0,0,0,197.05,55l2.37,5a6.76,6.76,0,0,1,.68,4.14c-.24,1.29-.61,2.56-.75,3.86s-.07,2.81-.1,4.2a1.29,1.29,0,0,1-1.18-.63,64.81,64.81,0,0,1-5.87-8.68c-1.8-3.26-3.37-6.63-5.07-9.93a58.4,58.4,0,0,1-4.59-12.61c-1.44-5.75-1.38-6,1.77-11.05a21,21,0,0,0,3.07-6.85,15.09,15.09,0,0,1,1.44-3.64,30.63,30.63,0,0,0,3.36-11.91,9.22,9.22,0,0,0-.52-4.2A3,3,0,0,0,187,1.45a5.7,5.7,0,0,0-1.61,2,12.5,12.5,0,0,0-1.15,7,43.25,43.25,0,0,0,1.39,9.06,8.34,8.34,0,0,1-.37,5.76c-1,2.44-2.68,4.41-4.07,6.54-.81-.35-.81-.95-.89-1.44a66.52,66.52,0,0,1-1.19-17.92,23.45,23.45,0,0,0-.81-9.09A6.38,6.38,0,0,0,177,.84c-1.24-1.34-2.67-1-3.25.7a5.56,5.56,0,0,0,0,3.56,29.06,29.06,0,0,0,1.66,4.61,22.92,22.92,0,0,1,2.64,10c.1,2.73.42,5.45.62,8.18,0,.19-.15.39-.37.93-1.94-2.06-4.13-3.64-5.87-5.73A7.69,7.69,0,0,1,170.44,19a21.14,21.14,0,0,0-3.27-8.15,7,7,0,0,0-1-1.3c-1-1-1.81-.92-3.13.41a1.47,1.47,0,0,0-.72,1,5.23,5.23,0,0,0,.45,3.82,19.93,19.93,0,0,0,5.44,6.88q3.25,2.76,6.45,5.57a18.14,18.14,0,0,1,5,7.23A29.7,29.7,0,0,1,181,38.84a75.28,75.28,0,0,0,7.71,19.79c1.25,2.3,2.26,4.77,3.71,6.94,3.51,5.26,7,10.58,11.61,15,1.18,1.12,2.26,2.37,3.36,3.59.34.38.82.75.54,1.39a3.55,3.55,0,0,1-2.23-.28,34.25,34.25,0,0,0-7.08-1.32c-4.08-.18-6.68-2.2-8.09-6-2.46-6.69-6.37-12.68-9.34-19.13A17.76,17.76,0,0,0,174,51.38c-1.25-.77-2.29-.38-3.06.87a3.06,3.06,0,0,0-.39,1.88,9.45,9.45,0,0,0,3.44,6.5c2.09,1.92,4.26,3.76,6.43,5.59a11.64,11.64,0,0,0,2.18,1.45,9.14,9.14,0,0,1,4.3,4.76c1.33,3,2.73,6,4.1,8.94.21.47.61.93.07,1.7-3.64-.6-7.44-.91-10.93-2.68a41.4,41.4,0,0,1-14.49-12.55,9.79,9.79,0,0,1-.88-1.74,9.24,9.24,0,0,1-.29-6.72,42.93,42.93,0,0,0,1.68-11.31,10.19,10.19,0,0,0-1.82-6.82,2,2,0,0,0-3.66.47,3.44,3.44,0,0,0-.26,2.55,35.82,35.82,0,0,0,1.23,3.38c.63,1.39,1.42,2.71,2.09,4.09a4.51,4.51,0,0,1,.7,3.14,66.54,66.54,0,0,0-1.35,7.41.7.7,0,0,1-.41.43.66.66,0,0,1-.58-.09,4.7,4.7,0,0,1-.79-1c-1.34-2.38-2.63-4.79-4-7.15a22.43,22.43,0,0,1-2.88-8.31c-.38-2.81-1-5.6-1.6-8.37a8.79,8.79,0,0,0-3.88-5.86,3.15,3.15,0,0,0-5,3.24,16.82,16.82,0,0,0,3.41,8.06c1.87,2.28,3.86,4.47,5.85,6.65a6.56,6.56,0,0,1,1.41,1.77c1.48,3.42,3.59,6.5,5.38,9.75a34,34,0,0,0,2.34,3.94,67.4,67.4,0,0,0,8.84,10.53,1.17,1.17,0,0,1,.27.86c0,.37-.43.44-.75.45a19,19,0,0,1-13.81-5,31.65,31.65,0,0,1-5.64-6.79c-2.1-3.42-5.19-5.88-8.14-8.47a5.1,5.1,0,0,0-2.65-1.22,2.4,2.4,0,0,0-2.72,2.8,9.76,9.76,0,0,0,3.44,5.79,36.69,36.69,0,0,0,9.61,5.57A17.9,17.9,0,0,1,156,73a30,30,0,0,0,2.57,2A14.6,14.6,0,0,0,165.46,78c1.19.17,2.39.3,3.59.4a23.26,23.26,0,0,1,10,2.89,18.8,18.8,0,0,0,5.84,2.09,87.56,87.56,0,0,0,11.06,1.42,52.32,52.32,0,0,1,10.29,1.94,19.76,19.76,0,0,1,8.39,4.92c.95.91,1.8,1.91,2.73,2.83,2.33,2.32,4.54,4.77,7,6.88a223.54,223.54,0,0,0,19.46,14.48c4.44,3,8.72,6.21,13.07,9.33.44.32.9.63.85,1.3a6.7,6.7,0,0,1-2.83.61c-1.19.18-2.41.21-3.57.47a15.75,15.75,0,0,1-8.71-.7,28,28,0,0,1-13.58-10.38,25.87,25.87,0,0,0-6.65-6.71,7.8,7.8,0,0,0-5.92-1.36,2.07,2.07,0,0,0-1.63,3.18,10.15,10.15,0,0,0,4.09,4.56c3.83,2.41,8.08,3.87,12.21,5.58a8.5,8.5,0,0,1,2.8,1.65,23.38,23.38,0,0,0,8.69,5.11c.45.16,1.08.17,1.15.88a2.26,2.26,0,0,1-.56.35,45.27,45.27,0,0,1-24.91-.65,29.73,29.73,0,0,1-5.11-2.23c-2.42-1.34-4.14-3.21-3.72-6.31a7.52,7.52,0,0,0-1.28-5.3,5.65,5.65,0,0,1-1.09-2.71c-.18-3.07-1.84-5.58-3.15-8.2a8.56,8.56,0,0,0-2.26-2.79c-1.31-1.07-2.63-1.28-3.59-.49s-.84,1.94-.59,3a8.49,8.49,0,0,0,1.65,3.18A51.24,51.24,0,0,0,206,114.8a6.81,6.81,0,0,1,2.39,6.15c0,.43,0,.87-.06,1.31a.81.81,0,0,1-1.39.62c-3.17-2.32-6.38-4.6-9.47-7a24.5,24.5,0,0,1-4.5-4.76,10.77,10.77,0,0,1-2.1-4,32.52,32.52,0,0,0-2.54-6.38A13.73,13.73,0,0,0,181.35,94c-1.3-.64-2.77-1.2-4-.09s-.85,2.63-.38,4a12.91,12.91,0,0,0,4.07,5.86,44.11,44.11,0,0,0,8.25,5.9,7.13,7.13,0,0,1,2.48,2.07,37.4,37.4,0,0,0,8.88,8.19c1.55,1,3,2.14,4.52,3.27a44.25,44.25,0,0,0,9.81,5.9,10.67,10.67,0,0,1,1.18.57c.28.17.55.41.41.79a.84.84,0,0,1-.41.44,11,11,0,0,1-1.57.49c-5.11,1.12-10,.2-14.75-1.73a6.44,6.44,0,0,1-3.33-3,11.18,11.18,0,0,0-4.06-4.19,23.91,23.91,0,0,1-2.62-2,12.79,12.79,0,0,0-6.3-2.55,4.72,4.72,0,0,0-3.67,1.07,2.14,2.14,0,0,0-.72,2.63,4.41,4.41,0,0,0,1.36,1.83,16.17,16.17,0,0,0,5.94,3.37c.84.24,1.69.46,2.52.72,4,1.24,7.94,2.33,11.83,3.86a23.4,23.4,0,0,0,15.45.94,19.23,19.23,0,0,1,8.76-.42,28,28,0,0,0,6.19.57,87.22,87.22,0,0,0,14.31-1.71c.41-.09.83-.31,1.2.38-1.42,2.09-2.83,4.28-4.37,6.39a12.12,12.12,0,0,1-5.78,4.15,9.25,9.25,0,0,1-7,.26c-1.31-.54-2.72-.85-4-1.36a27.07,27.07,0,0,0-12.26-1.45,9.45,9.45,0,0,0-3.46,1,3.38,3.38,0,0,0-2.12,3.38,3.23,3.23,0,0,0,2.16,3,13.26,13.26,0,0,0,6.06,1.2,39.14,39.14,0,0,0,3.91-.33c3.23-.58,6.43-1.27,9.63-2a3.37,3.37,0,0,0,1.2-.52,8.08,8.08,0,0,1,3.39-1.11,14.18,14.18,0,0,0,9.55-5.8c1-1.3,1.92-2.66,2.84-4,3-4.43,7.23-6.07,12.48-5.45a15.92,15.92,0,0,1,6.38,2.45c2.62,1.58,5.24,3.18,7.75,4.92a85.4,85.4,0,0,1,11.13,8.64.9.9,0,0,0,1.16.26,1.13,1.13,0,0,0,.4-1.18,4.33,4.33,0,0,0-1.77-2.65,89.05,89.05,0,0,0-9.17-6.91q-4.2-2.85-8.52-5.53c-2.5-1.54-4.79-3.43-7.45-4.74a5.39,5.39,0,0,1-2.25-2.33,18.66,18.66,0,0,1-1.47-2.93c-2-5.9-2.26-11.57,2.33-16.56.3-.32.53-.69.82-1A12.35,12.35,0,0,0,261,94.76c.09-.54.24-1.07.32-1.61a19,19,0,0,1,2.27-6.45A20.88,20.88,0,0,0,266.06,80c.42-2.7.59-5.44.76-8.16a8.71,8.71,0,0,0-1.56-5.59c-1.52-2.22-3.45-2.17-4.93.12a11.78,11.78,0,0,0-.72,1.47,13.59,13.59,0,0,0-1.07,6.74,65.46,65.46,0,0,0,1.59,13,6.25,6.25,0,0,1,.11,3.85,7,7,0,0,0-.26,2c-.24,4.39-2.91,7.3-5.88,10.09-.85-.73-.59-1.55-.6-2.28A51.05,51.05,0,0,0,248.18,79a19.86,19.86,0,0,1-2.06-5.86,44.23,44.23,0,0,0-3-9.68,33.37,33.37,0,0,0-3.33-6,6.23,6.23,0,0,0-3-2.48c-2.37-.89-4.17.19-4.42,2.74a8.63,8.63,0,0,0,1.16,5.36A19.73,19.73,0,0,0,237.35,68c2.13,1.88,4.2,3.82,6.31,5.73a5.93,5.93,0,0,1,1.64,2c.95,2.21,1.95,4.4,2.92,6.6a2.92,2.92,0,0,1,.36,2.14,1.64,1.64,0,0,1-1.29-.78,8.67,8.67,0,0,0-2.47-2.12,2.53,2.53,0,0,0-3,0,2.71,2.71,0,0,0-.75,3,6.85,6.85,0,0,0,2.2,3.2c1.88,1.66,3.58,3.61,5.67,4.93,2.85,1.79,3.33,4.33,3.29,7.26,0,1-.1,2-.08,3,.09,4.36-.21,8.74.77,13,.26,1.17.59,2.32.86,3.49a.68.68,0,0,1-.21.56.81.81,0,0,1-.58.07,1.86,1.86,0,0,1-.58-.29c-3.42-2.15-6.87-4.25-10.25-6.46a67,67,0,0,1-5.58-4c-3-2.42-4.13-5.88-4.63-9.49a30.22,30.22,0,0,0-2-7.56,10.19,10.19,0,0,1-.88-4.12c0-3.59-1.28-6.84-2.81-10a9.08,9.08,0,0,0-3-3.39c-2-1.37-4-.43-4.26,1.93a7.1,7.1,0,0,0,1.19,4.67,48.62,48.62,0,0,0,5.71,7.16,11.78,11.78,0,0,1,2.33,3.12c2,4.11,2.65,8.52,3.16,13a1.33,1.33,0,0,1-.19.57,77.42,77.42,0,0,1-11.59-10q-5.43-5.7-10.87-11.37c-1.43-1.51-2.81-3.06-4.27-4.54A13.13,13.13,0,0,1,201,72.93c-.59-2.37-1.19-4.86-.16-7.09,1.49-3.21,2-7,5.08-9.38a14.3,14.3,0,0,1,3.25-2.17,37,37,0,0,1,4.58-1.77,15.23,15.23,0,0,0,6.14-3,4.64,4.64,0,0,1,3.67-1c2.52.23,5-.42,7.5-.59a3.8,3.8,0,0,0,3-1.78c1.25-1.82.59-3.43-1.61-3.82a7.26,7.26,0,0,0-3.85.51c-.45.17-1,.6-1.49-.17a20,20,0,0,0,1.43-2.48,24.92,24.92,0,0,1,5-7.24A21.9,21.9,0,0,0,238,25a10.82,10.82,0,0,0,.63-4.52A2.17,2.17,0,0,0,235.83,18.51Zm12.8,66c.19,0,.27.08.19.24,0,0-.16,0-.18-.05A.59.59,0,0,1,248.63,84.52ZM231.33,105l-.16.1h0Z"/><path class="cls-1" d="M55.85,14a4.39,4.39,0,0,0-.55,2.84,13.81,13.81,0,0,0,1.41,4.34,46.73,46.73,0,0,0,5.69,8,14.5,14.5,0,0,1,2.33,3.15,25.79,25.79,0,0,1,.68,19.17,37.2,37.2,0,0,1-2,4.12c-.19.37-.38.8-1,.67a8.59,8.59,0,0,1-.95-3.07,25.2,25.2,0,0,0-4.83-9.93A6,6,0,0,0,55.54,42a103.2,103.2,0,0,0-11.33-7.77,11.16,11.16,0,0,1-3.47-2.92c-1.29-1.63-2.77-3.1-4.21-4.59a22.65,22.65,0,0,0-6.22-4.2,5.61,5.61,0,0,0-2.84-.64c-1.21,0-1.69.62-2,2.27l0,0a1.52,1.52,0,0,0,.22,1.24,14,14,0,0,0,7.75,6.23c2.15.8,4.36,1.44,6.56,2.08a22.38,22.38,0,0,1,8,4.31c-1,.69-1.83.14-2.65.2a4.42,4.42,0,0,0-2.44.83,2,2,0,0,0-.05,3.35,9.3,9.3,0,0,0,3,1.39,29.32,29.32,0,0,0,8.43,1.1A3,3,0,0,1,57,46.4a19.18,19.18,0,0,1,3,6.87c.91,4.5,1.77,9,2.63,13.51,0,.17-.14.37-.32.85-3.84-1.1-7.76-1.95-11.24-4.17a14.69,14.69,0,0,1-5.6-6.2,21.61,21.61,0,0,0-8.1-8.84,5.6,5.6,0,0,0-1.46-.7,3.08,3.08,0,0,0-3.28,1,2.72,2.72,0,0,0-.41,3.06,9.72,9.72,0,0,0,1.7,2.79,21.35,21.35,0,0,0,10.66,6.7,9.26,9.26,0,0,1,3.78,1.83,22.34,22.34,0,0,0,7.77,4.1l5.31,1.7a6.71,6.71,0,0,1,3.5,2.33c.78,1,1.46,2.19,2.32,3.17s2,2,3,2.93a1.3,1.3,0,0,1-1.27.43,64.52,64.52,0,0,1-10.36-1.6c-3.61-.91-7.15-2-10.73-3a58.11,58.11,0,0,1-12.35-5.22C30.37,65,30.21,64.77,28.67,59a21.34,21.34,0,0,0-2.92-6.9,15,15,0,0,1-1.7-3.54A30.4,30.4,0,0,0,17.62,38a9.36,9.36,0,0,0-3.43-2.48,3,3,0,0,0-4.06,2.55,5.5,5.5,0,0,0,.4,2.57,12.46,12.46,0,0,0,4.36,5.62,42.89,42.89,0,0,0,7.58,5.15,8.31,8.31,0,0,1,4,4.2c1.11,2.38,1.41,4.95,2,7.42a1.49,1.49,0,0,1-1.66-.32A66.65,66.65,0,0,1,12.86,51.39,23.65,23.65,0,0,0,5.65,45.8a6.44,6.44,0,0,0-2.82-.75C1,45,.24,46.29,1.13,47.91a5.5,5.5,0,0,0,2.58,2.44,30.14,30.14,0,0,0,4.51,1.93,22.79,22.79,0,0,1,9.13,4.88c2.07,1.78,4.28,3.4,6.41,5.11.15.12.19.38.43.91-2.83,0-5.47.54-8.2.4A7.76,7.76,0,0,1,11.7,62.2,21.14,21.14,0,0,0,3.5,59a7.45,7.45,0,0,0-1.63-.16c-1.45,0-1.9.7-1.82,2.57a1.53,1.53,0,0,0,.22,1.21,5.33,5.33,0,0,0,3.11,2.27,19.93,19.93,0,0,0,8.75.69q4.23-.5,8.46-.93A18.26,18.26,0,0,1,29.27,66a30.86,30.86,0,0,1,4.15,2,74.85,74.85,0,0,0,19.75,7.83c2.54.66,5,1.6,7.6,2,6.25,1,12.5,2.1,18.88,1.7,1.63-.1,3.28,0,4.92,0,.51,0,1.1-.09,1.39.56-.34.77-1.1,1-1.73,1.44a33.72,33.72,0,0,0-5.79,4.28c-2.91,2.87-6.15,3.4-9.9,1.83-6.58-2.75-13.63-4-20.38-6.18-3.39-1.11-6.94-.69-10.36.26-1.41.39-1.83,1.42-1.44,2.83a3.14,3.14,0,0,0,1.11,1.57,9.43,9.43,0,0,0,7.1,1.9c2.84-.22,5.66-.56,8.48-.9a11.28,11.28,0,0,0,2.55-.61,9.13,9.13,0,0,1,6.41.09c3.1,1.07,6.23,2.06,9.34,3.09.48.16,1.09.18,1.29,1.1-2.92,2.27-5.73,4.84-9.4,6.18A41.32,41.32,0,0,1,44.18,99a8.87,8.87,0,0,1-1.87-.54,9.27,9.27,0,0,1-5.13-4.36,42.74,42.74,0,0,0-7.13-8.93,10.21,10.21,0,0,0-6.24-3.31,2,2,0,0,0-2.14,3,3.47,3.47,0,0,0,1.68,1.93,33.24,33.24,0,0,0,3.32,1.39c1.45.49,2.95.82,4.42,1.26A4.54,4.54,0,0,1,33.86,91a66.61,66.61,0,0,0,4.51,6,.73.73,0,0,1,0,.6A.7.7,0,0,1,38,98a5.17,5.17,0,0,1-1.3-.13c-2.65-.63-5.3-1.33-8-1.94a22.16,22.16,0,0,1-8-3.55c-2.32-1.63-4.77-3.09-7.23-4.52A8.76,8.76,0,0,0,6.5,86.74a3.15,3.15,0,0,0-1,5.88,16.78,16.78,0,0,0,8.23,3c2.95.19,5.9.22,8.85.25a6.63,6.63,0,0,1,2.26.17c3.51,1.24,7.2,1.8,10.81,2.7a35.19,35.19,0,0,0,4.47,1,68.59,68.59,0,0,0,13.73.7,1.13,1.13,0,0,1,.82.38c.25.28,0,.62-.19.86a19,19,0,0,1-13.08,6.68,31.72,31.72,0,0,1-8.81-.48c-3.94-.8-7.84-.21-11.75.19a5.06,5.06,0,0,0-2.7,1.11,2.41,2.41,0,0,0,.2,3.9,9.81,9.81,0,0,0,6.59,1.42A37.05,37.05,0,0,0,35.5,111.2a18,18,0,0,1,5.94-1.68,32,32,0,0,0,3.24-.49,14.71,14.71,0,0,0,6.82-3c.94-.76,1.84-1.54,2.73-2.35a23.19,23.19,0,0,1,8.93-5.36,18.8,18.8,0,0,0,5.5-2.84,90.07,90.07,0,0,0,8.57-7.14,53,53,0,0,1,8.43-6.22A19.73,19.73,0,0,1,95,79.29c1.31-.08,2.63,0,3.94-.07,3.27-.13,6.57-.08,9.82-.47a219.82,219.82,0,0,0,23.85-4.4c5.22-1.21,10.49-2.15,15.74-3.22a1.47,1.47,0,0,1,1.53.27,6.55,6.55,0,0,1-1.49,2.49c-.67,1-1.48,1.9-2.08,2.93a15.74,15.74,0,0,1-6.44,5.91A28.12,28.12,0,0,1,123,85.61a25.87,25.87,0,0,0-9.45.3,7.75,7.75,0,0,0-5,3.41,2.07,2.07,0,0,0,1.22,3.36,10.17,10.17,0,0,0,6.13.1c4.36-1.17,8.33-3.29,12.4-5.14a8.55,8.55,0,0,1,3.11-.93A23.34,23.34,0,0,0,141,83.83c.42-.22.86-.68,1.42-.25a2.15,2.15,0,0,1-.12.65A45.23,45.23,0,0,1,124.9,102a27.91,27.91,0,0,1-5.11,2.22c-2.63.87-5.16.85-7.16-1.56a7.49,7.49,0,0,0-4.75-2.68A5.45,5.45,0,0,1,105.16,99C102.78,97,99.82,96.52,97,95.69a8.45,8.45,0,0,0-3.58-.24c-1.67.22-2.72,1.06-2.8,2.29s.85,1.94,1.82,2.49a8.4,8.4,0,0,0,3.44,1,50.75,50.75,0,0,0,10.16.21,6.83,6.83,0,0,1,6.13,2.43c.29.33.63.61.91.94a.8.8,0,0,1-.48,1.44c-3.87.74-7.72,1.54-11.61,2.14a24.75,24.75,0,0,1-6.55.06,10.62,10.62,0,0,1-4.39-1.22,33.13,33.13,0,0,0-6.4-2.48,13.74,13.74,0,0,0-9.62.54c-1.35.51-2.76,1.21-2.78,2.86s1.34,2.41,2.67,3a13,13,0,0,0,7.06,1,44.19,44.19,0,0,0,9.94-2,6.93,6.93,0,0,1,3.21-.41,37.55,37.55,0,0,0,12-.94c1.81-.43,3.64-.76,5.48-1.07a44.42,44.42,0,0,0,11-3.17,10,10,0,0,1,1.22-.48c.31-.09.67-.12.85.24a.84.84,0,0,1,0,.6,11.24,11.24,0,0,1-.72,1.48c-2.65,4.5-6.65,7.46-11.3,9.63a6.5,6.5,0,0,1-4.49.37,11.2,11.2,0,0,0-5.83.12,25.14,25.14,0,0,1-3.23.59A12.79,12.79,0,0,0,93,119.93a4.72,4.72,0,0,0-1.71,3.42,2.11,2.11,0,0,0,1.44,2.31,4.36,4.36,0,0,0,2.26.25,16.22,16.22,0,0,0,6.52-2c.74-.46,1.48-.92,2.24-1.36,3.6-2.06,7.12-4.23,10.88-6a23.33,23.33,0,0,0,11.2-10.67,19.2,19.2,0,0,1,5.66-6.7,28.62,28.62,0,0,0,4.64-4.15,88.28,88.28,0,0,0,8.49-11.65c.2-.35.33-.81,1.09-.61.56,2.46,1.21,5,1.71,7.55a12.14,12.14,0,0,1-.9,7.06,9.24,9.24,0,0,1-4.6,5.32c-1.29.59-2.47,1.41-3.74,2a27.24,27.24,0,0,0-9.42,8,9.72,9.72,0,0,0-1.64,3.18,3.38,3.38,0,0,0,1,3.86,3.24,3.24,0,0,0,3.69.48,13.27,13.27,0,0,0,5-3.62c.81-1,1.73-2,2.43-3.09,1.76-2.76,3.44-5.57,5.13-8.38a3.83,3.83,0,0,0,.43-1.23,8.19,8.19,0,0,1,1.49-3.24,14.21,14.21,0,0,0,2.26-10.95c-.28-1.61-.64-3.21-1-4.81-1.18-5.23.48-9.43,4.51-12.85a16.2,16.2,0,0,1,6.13-3c2.95-.84,5.9-1.66,8.89-2.32A86.08,86.08,0,0,1,181,64.39c.47,0,.89-.19,1-.67a1.13,1.13,0,0,0-.59-1.09,4.38,4.38,0,0,0-3.15-.52,91.86,91.86,0,0,0-11.3,2q-4.93,1.16-9.85,2.48c-2.83.78-5.77,1.18-8.54,2.23a5.43,5.43,0,0,1-3.24.07A18.45,18.45,0,0,1,142.2,68c-5.7-2.53-10-6.22-10.54-13,0-.43-.15-.86-.2-1.29a12.38,12.38,0,0,0-2.6-6.28c-.34-.44-.63-.91-1-1.33A19.07,19.07,0,0,1,124.71,40a20.72,20.72,0,0,0-3.28-6.39c-1.69-2.14-3.57-4.13-5.46-6.12a8.76,8.76,0,0,0-5.16-2.66c-2.66-.39-3.93,1.05-3.26,3.7a13,13,0,0,0,.58,1.53,13.61,13.61,0,0,0,4.21,5.37,66.62,66.62,0,0,0,10.6,7.69,6.17,6.17,0,0,1,2.9,2.54,6.88,6.88,0,0,0,1.25,1.51c3.06,3.17,3.37,7.11,3.39,11.18-1.11.13-1.53-.62-2.08-1.11a50.86,50.86,0,0,0-19.82-11.16,19.94,19.94,0,0,1-5.7-2.48,44,44,0,0,0-9.15-4.38,33.14,33.14,0,0,0-6.68-1.66,6.2,6.2,0,0,0-3.84.5c-2.27,1.12-2.71,3.18-1,5.1A8.69,8.69,0,0,0,86.92,46a19.51,19.51,0,0,0,6.19.52c2.82-.28,5.66-.47,8.49-.72a6.13,6.13,0,0,1,2.59.17c2.27.81,4.55,1.56,6.82,2.35a3,3,0,0,1,1.82,1.2,1.62,1.62,0,0,1-1.45.41,8.89,8.89,0,0,0-3.24.36,2.53,2.53,0,0,0-2.07,2.24,2.68,2.68,0,0,0,1.67,2.58,6.76,6.76,0,0,0,3.84.57c2.49-.25,5.08-.16,7.47-.8,3.25-.87,5.44.51,7.56,2.53.71.68,1.37,1.41,2.11,2.07,3.25,2.9,6.25,6.11,10.07,8.32,1,.6,2.1,1.14,3.14,1.74a.69.69,0,0,1,.27.53.8.8,0,0,1-.34.48,1.85,1.85,0,0,1-.62.23c-3.9,1-7.79,2.13-11.7,3.11-2.23.55-4.48,1-6.75,1.34-3.81.54-7.12-1-10.11-3.07a29.48,29.48,0,0,0-6.89-3.68,10.34,10.34,0,0,1-3.61-2.17c-2.62-2.46-5.88-3.72-9.24-4.75a9,9,0,0,0-4.55-.08C86,62,85.32,64.14,86.9,65.91a7.07,7.07,0,0,0,4.23,2.31,48.11,48.11,0,0,0,9.13.69,11.83,11.83,0,0,1,3.87.41c4.35,1.37,8.05,3.87,11.65,6.53.15.11.2.33.29.52A78.05,78.05,0,0,1,100.84,78l-15.73.21c-2.07,0-4.15,0-6.23,0A13.16,13.16,0,0,1,72,76.52c-2.13-1.18-4.37-2.44-5.3-4.71C65.36,68.53,63,65.57,63.29,61.7a14.35,14.35,0,0,1,.62-3.86,38.33,38.33,0,0,1,1.82-4.56,15.18,15.18,0,0,0,2-6.51,4.59,4.59,0,0,1,1.73-3.38c1.89-1.7,3.1-3.94,4.68-5.9a3.77,3.77,0,0,0,.72-3.39c-.48-2.16-2.1-2.77-3.89-1.42a7.2,7.2,0,0,0-2.24,3.16c-.19.45-.22,1.12-1.14,1a23.88,23.88,0,0,0-.84-2.74,24.68,24.68,0,0,1-1.92-8.57,22,22,0,0,0-2.78-8.68,10.81,10.81,0,0,0-2.88-3.54A2.17,2.17,0,0,0,55.85,14Zm57.06,35.57c.14-.14.24-.14.31,0s-.12.11-.16.1A.42.42,0,0,1,112.91,49.53Zm3.25,26.64s0,.18,0,.19h0Z"/></g></g></svg>