<svg xmlns="http://www.w3.org/2000/svg" viewBox="0 0 285.71 147.74"><defs><style>.cls-1{fill:#373e38;}</style></defs><title>Element 1</title><g id="Ebene_2" data-name="Ebene 2"><g id="Ebene_1-2" data-name="Ebene 1"><path class="cls-1" d="M47.1,20.51A11,11,0,0,0,47.74,25,21.88,21.88,0,0,0,52.2,33a25,25,0,0,1,5,7.24,20,20,0,0,0,1.43,2.48c-.53.77-1,.34-1.49.17a7.27,7.27,0,0,0-3.85-.51c-2.2.39-2.86,2-1.61,3.82a3.8,3.8,0,0,0,3,1.78c2.5.17,5,.82,7.5.59a4.6,4.6,0,0,1,3.66,1,15.33,15.33,0,0,0,6.15,3,36.25,36.25,0,0,1,4.57,1.77,14.14,14.14,0,0,1,3.26,2.17c3,2.41,3.59,6.17,5.08,9.38,1,2.23.43,4.72-.16,7.09a13.06,13.06,0,0,1-3.39,6.25c-1.46,1.48-2.83,3-4.26,4.54q-5.43,5.69-10.87,11.37a77.42,77.42,0,0,1-11.59,10,1.33,1.33,0,0,1-.19-.57c.51-4.45,1.2-8.86,3.15-13a12,12,0,0,1,2.34-3.12,48.62,48.62,0,0,0,5.71-7.16,7.1,7.1,0,0,0,1.19-4.67c-.23-2.36-2.28-3.3-4.27-1.93a9.14,9.14,0,0,0-3,3.39c-1.54,3.16-2.83,6.41-2.81,10a10.19,10.19,0,0,1-.88,4.12,29.8,29.8,0,0,0-2,7.56c-.5,3.61-1.64,7.07-4.64,9.49a66.8,66.8,0,0,1-5.57,4c-3.38,2.21-6.83,4.31-10.25,6.46a1.86,1.86,0,0,1-.58.29.8.8,0,0,1-.58-.07.68.68,0,0,1-.21-.56c.26-1.17.6-2.32.86-3.49,1-4.3.68-8.68.76-13,0-1-.06-2-.07-3,0-2.93.43-5.47,3.28-7.26,2.1-1.32,3.8-3.27,5.68-4.93a6.85,6.85,0,0,0,2.2-3.2,2.71,2.71,0,0,0-.75-3,2.55,2.55,0,0,0-3.06,0,8.81,8.81,0,0,0-2.47,2.12,1.61,1.61,0,0,1-1.28.78,2.92,2.92,0,0,1,.36-2.14c1-2.2,2-4.39,2.92-6.6a5.93,5.93,0,0,1,1.64-2c2.11-1.91,4.18-3.85,6.31-5.73a19.73,19.73,0,0,0,3.83-4.89,8.63,8.63,0,0,0,1.16-5.36c-.25-2.55-2.05-3.63-4.42-2.74a6.19,6.19,0,0,0-3,2.48,33.37,33.37,0,0,0-3.33,6,44.23,44.23,0,0,0-3,9.68A19.86,19.86,0,0,1,37.53,79a51.05,51.05,0,0,0-5.32,22.12c0,.73.24,1.55-.6,2.28-3-2.79-5.64-5.7-5.89-10.09a6.61,6.61,0,0,0-.25-2,6.18,6.18,0,0,1,.11-3.85,67,67,0,0,0,1.59-13,13.59,13.59,0,0,0-1.07-6.74,11.78,11.78,0,0,0-.72-1.47C23.89,64,22,64,20.45,66.2a8.78,8.78,0,0,0-1.57,5.59c.17,2.72.35,5.46.77,8.16a20.88,20.88,0,0,0,2.44,6.75,19,19,0,0,1,2.27,6.45c.08.54.23,1.07.32,1.61a12.26,12.26,0,0,0,2.82,6.18c.29.34.52.71.82,1,4.59,5,4.35,10.66,2.33,16.56a19.57,19.57,0,0,1-1.47,2.93,5.39,5.39,0,0,1-2.25,2.33c-2.66,1.31-4.95,3.2-7.45,4.74-2.89,1.79-5.72,3.63-8.53,5.53A88.93,88.93,0,0,0,1.79,141,4.33,4.33,0,0,0,0,143.62a1.13,1.13,0,0,0,.4,1.18.91.91,0,0,0,1.16-.26,85.4,85.4,0,0,1,11.13-8.64c2.51-1.74,5.12-3.34,7.75-4.92a15.88,15.88,0,0,1,6.37-2.45c5.25-.62,9.46,1,12.48,5.45.93,1.35,1.85,2.71,2.85,4a14.18,14.18,0,0,0,9.55,5.8,8.08,8.08,0,0,1,3.39,1.11,3.37,3.37,0,0,0,1.2.52c3.2.68,6.4,1.37,9.62,2,1.29.24,2.62.22,3.92.33a13.26,13.26,0,0,0,6.06-1.2,3.23,3.23,0,0,0,2.16-3,3.38,3.38,0,0,0-2.12-3.38,9.45,9.45,0,0,0-3.46-1,27.1,27.1,0,0,0-12.27,1.45c-1.32.51-2.72.82-4,1.36a9.25,9.25,0,0,1-7-.26,12.19,12.19,0,0,1-5.79-4.15c-1.53-2.11-2.94-4.3-4.36-6.39.37-.69.79-.47,1.19-.38a87.21,87.21,0,0,0,14.32,1.71,28,28,0,0,0,6.19-.57,19.23,19.23,0,0,1,8.76.42,23.4,23.4,0,0,0,15.45-.94c3.88-1.53,7.87-2.62,11.82-3.86.84-.26,1.69-.48,2.53-.72a16.33,16.33,0,0,0,5.94-3.37,4.3,4.3,0,0,0,1.35-1.83,2.12,2.12,0,0,0-.71-2.63,4.72,4.72,0,0,0-3.67-1.07,12.79,12.79,0,0,0-6.3,2.55,24.9,24.9,0,0,1-2.62,2,11.18,11.18,0,0,0-4.06,4.19,6.44,6.44,0,0,1-3.33,3c-4.76,1.93-9.64,2.85-14.75,1.73a11,11,0,0,1-1.57-.49.84.84,0,0,1-.41-.44c-.14-.38.13-.62.41-.79a10.67,10.67,0,0,1,1.18-.57,44.25,44.25,0,0,0,9.81-5.9c1.47-1.13,3-2.24,4.51-3.27a37.45,37.45,0,0,0,8.89-8.19,7.13,7.13,0,0,1,2.48-2.07,44.44,44.44,0,0,0,8.25-5.9,13,13,0,0,0,4.07-5.86c.47-1.37.82-2.91-.38-4s-2.69-.55-4,.09a13.73,13.73,0,0,0-6.94,6.68A32.52,32.52,0,0,0,94.88,107a10.77,10.77,0,0,1-2.1,4,24.8,24.8,0,0,1-4.5,4.76c-3.09,2.44-6.3,4.72-9.48,7a.8.8,0,0,1-1.38-.62c0-.44,0-.88-.06-1.31a6.81,6.81,0,0,1,2.39-6.15,51.24,51.24,0,0,0,6.76-7.58A8.47,8.47,0,0,0,88.15,104c.26-1.08.42-2.2-.58-3s-2.29-.58-3.59.49a8.44,8.44,0,0,0-2.26,2.79c-1.31,2.62-3,5.13-3.16,8.2a5.63,5.63,0,0,1-1.08,2.71,7.52,7.52,0,0,0-1.28,5.3c.41,3.1-1.3,5-3.72,6.31a29.73,29.73,0,0,1-5.11,2.23,45.31,45.31,0,0,1-24.92.65,2.41,2.41,0,0,1-.55-.35c.06-.71.7-.72,1.15-.88a23.46,23.46,0,0,0,8.69-5.11,8.55,8.55,0,0,1,2.79-1.65c4.14-1.71,8.39-3.17,12.22-5.58a10.15,10.15,0,0,0,4.09-4.56,2.07,2.07,0,0,0-1.63-3.18,7.8,7.8,0,0,0-5.92,1.36,25.87,25.87,0,0,0-6.65,6.71,28,28,0,0,1-13.58,10.38,15.75,15.75,0,0,1-8.71.7c-1.16-.26-2.38-.29-3.57-.47a6.7,6.7,0,0,1-2.83-.61c-.05-.67.41-1,.84-1.3,4.36-3.12,8.64-6.34,13.08-9.33a223.54,223.54,0,0,0,19.46-14.48c2.49-2.11,4.7-4.56,7-6.88.93-.92,1.78-1.92,2.73-2.83a19.76,19.76,0,0,1,8.39-4.92,52.32,52.32,0,0,1,10.29-1.94,87.8,87.8,0,0,0,11.06-1.42,18.65,18.65,0,0,0,5.83-2.09,23.34,23.34,0,0,1,10-2.89c1.2-.1,2.39-.23,3.58-.4a14.59,14.59,0,0,0,6.87-2.92,31.62,31.62,0,0,0,2.57-2,17.77,17.77,0,0,1,5.28-3.2,36.85,36.85,0,0,0,9.61-5.57A9.81,9.81,0,0,0,148,58.45a2.4,2.4,0,0,0-2.72-2.8,5.1,5.1,0,0,0-2.65,1.22c-2.95,2.59-6,5.05-8.14,8.47a31.65,31.65,0,0,1-5.64,6.79,19,19,0,0,1-13.81,5c-.32,0-.72-.08-.75-.45a1.17,1.17,0,0,1,.27-.86,68,68,0,0,0,8.84-10.53,34,34,0,0,0,2.34-3.94c1.79-3.25,3.9-6.33,5.38-9.75a6.56,6.56,0,0,1,1.41-1.77c2-2.18,4-4.37,5.84-6.65a16.74,16.74,0,0,0,3.42-8.06,3.15,3.15,0,0,0-5-3.24,8.81,8.81,0,0,0-3.87,5.86c-.62,2.77-1.22,5.56-1.6,8.37a22.43,22.43,0,0,1-2.88,8.31c-1.37,2.36-2.66,4.77-4,7.15a4.7,4.7,0,0,1-.79,1,.63.63,0,0,1-1-.34,66.54,66.54,0,0,0-1.35-7.41,4.51,4.51,0,0,1,.7-3.14c.67-1.38,1.45-2.7,2.09-4.09a35.82,35.82,0,0,0,1.23-3.38,3.49,3.49,0,0,0-.26-2.55,2,2,0,0,0-3.66-.47,10.19,10.19,0,0,0-1.82,6.82,42.52,42.52,0,0,0,1.68,11.31,10.25,10.25,0,0,1-1.18,8.46A41.28,41.28,0,0,1,105.6,80.39c-3.49,1.77-7.29,2.08-10.93,2.68-.54-.77-.14-1.23.07-1.7,1.36-3,2.77-5.94,4.09-8.94a9.2,9.2,0,0,1,4.31-4.76,11.64,11.64,0,0,0,2.18-1.45c2.17-1.83,4.34-3.67,6.43-5.59a9.45,9.45,0,0,0,3.44-6.5,3.07,3.07,0,0,0-.4-1.88c-.76-1.25-1.8-1.64-3.05-.87-3,1.85-5.75,4.17-7.24,7.41-3,6.45-6.88,12.44-9.34,19.13-1.41,3.81-4,5.83-8.09,6A34.25,34.25,0,0,0,80,85.25a3.56,3.56,0,0,1-2.23.28c-.28-.64.2-1,.54-1.39,1.1-1.22,2.17-2.47,3.36-3.59,4.64-4.4,8.1-9.72,11.61-15,1.45-2.17,2.46-4.64,3.71-6.94a75.28,75.28,0,0,0,7.71-19.79,30.89,30.89,0,0,1,1.38-4.38,18.27,18.27,0,0,1,5-7.23q3.19-2.82,6.44-5.57a20,20,0,0,0,5.45-6.88,5.28,5.28,0,0,0,.45-3.82,1.48,1.48,0,0,0-.73-1c-1.31-1.33-2.11-1.45-3.12-.41a7,7,0,0,0-1,1.3A21.14,21.14,0,0,0,115.27,19a7.69,7.69,0,0,1-1.92,4.09c-1.75,2.09-3.93,3.67-5.87,5.73-.22-.54-.38-.74-.37-.93.2-2.73.51-5.45.62-8.18a22.92,22.92,0,0,1,2.64-10A29.06,29.06,0,0,0,112,5.1a5.63,5.63,0,0,0,0-3.56c-.58-1.75-2-2-3.25-.7a6.38,6.38,0,0,0-1.37,2.58,23.45,23.45,0,0,0-.81,9.09,66.93,66.93,0,0,1-1.19,17.92c-.08.49-.08,1.09-.89,1.44-1.39-2.13-3.08-4.1-4.07-6.54a8.29,8.29,0,0,1-.37-5.76,43.25,43.25,0,0,0,1.39-9.06,12.59,12.59,0,0,0-1.15-7,5.7,5.7,0,0,0-1.61-2,3,3,0,0,0-4.63,1.24,9.09,9.09,0,0,0-.52,4.2A30.46,30.46,0,0,0,96.89,18.8a15.09,15.09,0,0,1,1.44,3.64,21,21,0,0,0,3.07,6.85c3.15,5,3.2,5.3,1.77,11.05A58.4,58.4,0,0,1,98.58,53c-1.7,3.3-3.28,6.67-5.07,9.93a65.77,65.77,0,0,1-5.87,8.68,1.29,1.29,0,0,1-1.18.63c0-1.39,0-2.8-.1-4.2s-.51-2.57-.75-3.86A6.76,6.76,0,0,1,86.28,60q1.2-2.52,2.38-5A22.63,22.63,0,0,0,91,46.46a9.15,9.15,0,0,1,1.23-4,21.4,21.4,0,0,0,2.35-12.38,9.84,9.84,0,0,0-.89-3.13,2.72,2.72,0,0,0-2.52-1.79,3.07,3.07,0,0,0-2.94,1.73,5.65,5.65,0,0,0-.48,1.56,21.59,21.59,0,0,0,1,12,14.59,14.59,0,0,1,.73,8.32c-.73,4.06-2.79,7.51-4.59,11.07-.48-.19-.74-.21-.84-.35-2.71-3.69-5.44-7.39-8.1-11.12a19.2,19.2,0,0,1-3-6.87,3,3,0,0,1,.75-3,29.15,29.15,0,0,0,4.93-6.92,9.29,9.29,0,0,0,1-3.11A2,2,0,0,0,77,26.15a4.42,4.42,0,0,0-2.27,1.23c-.61.56-.79,1.57-2,1.8a22.37,22.37,0,0,1,2.32-8.82c1-2.05,2.06-4.11,2.94-6.22a14,14,0,0,0,.72-9.92,1.56,1.56,0,0,0-.76-1v0c-1.41-.91-2.15-1-3-.1a5.65,5.65,0,0,0-1.47,2.52,22.51,22.51,0,0,0-1.15,7.41c.11,2.08.18,4.16.49,6.21a11.31,11.31,0,0,1-.22,4.53,100.79,100.79,0,0,0-2,13.59A5.92,5.92,0,0,0,70.79,39a25.43,25.43,0,0,0,4,10.3,8.33,8.33,0,0,1,1.6,2.78c-.32.54-.77.38-1.16.27A34.78,34.78,0,0,1,70.82,51,25.73,25.73,0,0,1,57.25,37.48a14.59,14.59,0,0,1-.72-3.85,46.26,46.26,0,0,0-2-9.6,13.83,13.83,0,0,0-2.22-4,4.37,4.37,0,0,0-2.45-1.53A2.18,2.18,0,0,0,47.1,20.51Zm-10,64.2s-.18.06-.18.05c-.08-.16,0-.24.19-.24A.59.59,0,0,1,37.07,84.71Zm17.49,20.42h0l-.16-.1Z"/><path class="cls-1" d="M226.5,13.29a10.91,10.91,0,0,0-2.87,3.54,22,22,0,0,0-2.78,8.68,24.68,24.68,0,0,1-1.92,8.57,22,22,0,0,0-.84,2.74c-.92.14-1-.53-1.14-1a7.2,7.2,0,0,0-2.24-3.16c-1.79-1.35-3.41-.74-3.89,1.42a3.77,3.77,0,0,0,.72,3.39c1.57,2,2.79,4.2,4.67,5.9A4.6,4.6,0,0,1,218,46.77a15.18,15.18,0,0,0,2,6.51,38.33,38.33,0,0,1,1.82,4.56,14.35,14.35,0,0,1,.62,3.86c.31,3.87-2.07,6.83-3.41,10.11-.93,2.27-3.17,3.53-5.3,4.71a13.2,13.2,0,0,1-6.89,1.77c-2.07-.06-4.15,0-6.22,0-5.25-.06-10.49-.15-15.73-.21a78,78,0,0,1-15.23-1.67c.09-.19.14-.41.29-.52,3.6-2.66,7.3-5.16,11.65-6.53a11.83,11.83,0,0,1,3.87-.41,48.11,48.11,0,0,0,9.13-.69,7.1,7.1,0,0,0,4.23-2.31c1.57-1.77.87-3.92-1.49-4.43a9,9,0,0,0-4.55.08c-3.36,1-6.62,2.29-9.24,4.75a10.34,10.34,0,0,1-3.61,2.17A29.48,29.48,0,0,0,173,72.16c-3,2.09-6.3,3.61-10.11,3.07-2.27-.33-4.52-.79-6.75-1.34-3.92-1-7.8-2.07-11.71-3.11a1.79,1.79,0,0,1-.61-.23.8.8,0,0,1-.34-.48.69.69,0,0,1,.27-.53c1-.6,2.1-1.14,3.14-1.74,3.82-2.21,6.82-5.42,10.07-8.32.73-.66,1.4-1.39,2.11-2.07,2.11-2,4.31-3.4,7.56-2.53,2.39.64,5,.55,7.47.8a6.76,6.76,0,0,0,3.84-.57,2.7,2.7,0,0,0,1.67-2.58,2.53,2.53,0,0,0-2.08-2.24,8.83,8.83,0,0,0-3.23-.36,1.62,1.62,0,0,1-1.45-.41,3,3,0,0,1,1.81-1.2c2.28-.79,4.56-1.54,6.83-2.35a6.13,6.13,0,0,1,2.59-.17c2.83.25,5.66.44,8.49.72a19.53,19.53,0,0,0,6.19-.52,8.69,8.69,0,0,0,4.72-2.8c1.69-1.92,1.26-4-1-5.1a6.2,6.2,0,0,0-3.84-.5A33.14,33.14,0,0,0,192,39.26a44,44,0,0,0-9.15,4.38,19.94,19.94,0,0,1-5.7,2.48,50.86,50.86,0,0,0-19.82,11.16c-.55.49-1,1.24-2.08,1.11,0-4.07.33-8,3.38-11.18a6.66,6.66,0,0,0,1.26-1.51,6.15,6.15,0,0,1,2.89-2.54,66.25,66.25,0,0,0,10.61-7.69,13.61,13.61,0,0,0,4.21-5.37,13,13,0,0,0,.58-1.53c.67-2.65-.6-4.09-3.27-3.7a8.82,8.82,0,0,0-5.16,2.66c-1.88,2-3.76,4-5.45,6.12A21,21,0,0,0,161,40a18.84,18.84,0,0,1-3.17,6.05c-.35.42-.63.89-1,1.33a12.38,12.38,0,0,0-2.6,6.28c-.05.43-.17.86-.2,1.29-.52,6.76-4.85,10.45-10.54,13a18.72,18.72,0,0,1-3.15.93,5.43,5.43,0,0,1-3.24-.07c-2.77-1-5.71-1.45-8.55-2.23-3.26-.89-6.55-1.71-9.84-2.48a91.86,91.86,0,0,0-11.3-2,4.38,4.38,0,0,0-3.15.52,1.09,1.09,0,0,0-.59,1.09c.09.48.51.64,1,.67a86.08,86.08,0,0,1,13.9,2.27c3,.66,5.94,1.48,8.88,2.32a16.17,16.17,0,0,1,6.14,3c4,3.42,5.69,7.62,4.5,12.85-.36,1.6-.73,3.2-1,4.81a14.17,14.17,0,0,0,2.26,10.95,8.19,8.19,0,0,1,1.49,3.24,3.61,3.61,0,0,0,.43,1.23c1.69,2.81,3.37,5.62,5.13,8.38.7,1.1,1.62,2.06,2.43,3.09a13.27,13.27,0,0,0,5,3.62,3.24,3.24,0,0,0,3.69-.48,3.38,3.38,0,0,0,1-3.86,9.56,9.56,0,0,0-1.65-3.18,27.21,27.21,0,0,0-9.41-8c-1.28-.62-2.45-1.44-3.74-2a9.21,9.21,0,0,1-4.6-5.32,12.06,12.06,0,0,1-.9-7.06c.5-2.56,1.14-5.09,1.71-7.55.76-.2.88.26,1.09.61a88.28,88.28,0,0,0,8.49,11.65,28.62,28.62,0,0,0,4.64,4.15,19.2,19.2,0,0,1,5.66,6.7A23.33,23.33,0,0,0,171,116.46c3.76,1.81,7.28,4,10.88,6,.75.44,1.49.9,2.24,1.36a16.22,16.22,0,0,0,6.52,2,4.36,4.36,0,0,0,2.26-.25,2.12,2.12,0,0,0,1.44-2.31,4.72,4.72,0,0,0-1.71-3.42,12.79,12.79,0,0,0-6.16-2.87,25.14,25.14,0,0,1-3.23-.59,11.2,11.2,0,0,0-5.83-.12A6.5,6.5,0,0,1,173,116c-4.65-2.17-8.65-5.13-11.31-9.63a12.59,12.59,0,0,1-.71-1.48.79.79,0,0,1,.05-.6c.18-.36.54-.33.85-.24a10,10,0,0,1,1.22.48,44.42,44.42,0,0,0,11,3.17c1.84.31,3.67.64,5.47,1.07a37.61,37.61,0,0,0,12.05.94,6.94,6.94,0,0,1,3.21.41,44.19,44.19,0,0,0,9.94,2,13,13,0,0,0,7.06-1c1.33-.59,2.69-1.38,2.67-3s-1.43-2.35-2.79-2.86a13.72,13.72,0,0,0-9.61-.54,33.47,33.47,0,0,0-6.41,2.48,10.53,10.53,0,0,1-4.38,1.22,24.75,24.75,0,0,1-6.55-.06c-3.89-.6-7.75-1.4-11.61-2.14a.81.81,0,0,1-.49-1.44c.29-.33.63-.61.92-.94a6.82,6.82,0,0,1,6.13-2.43,50.65,50.65,0,0,0,10.15-.21,8.4,8.4,0,0,0,3.45-1c1-.55,1.9-1.19,1.82-2.49s-1.13-2.07-2.8-2.29a8.51,8.51,0,0,0-3.59.24c-2.81.83-5.78,1.32-8.15,3.27a5.52,5.52,0,0,1-2.73,1.05,7.54,7.54,0,0,0-4.75,2.68c-2,2.41-4.52,2.43-7.16,1.56a28.12,28.12,0,0,1-5.1-2.22,45.23,45.23,0,0,1-17.44-17.8,2.15,2.15,0,0,1-.12-.65c.56-.43,1,0,1.42.25a23.3,23.3,0,0,0,9.66,2.88,8.6,8.6,0,0,1,3.11.93c4.07,1.85,8,4,12.4,5.14a10.17,10.17,0,0,0,6.13-.1,2.07,2.07,0,0,0,1.22-3.36,7.75,7.75,0,0,0-5-3.41,25.87,25.87,0,0,0-9.45-.3,28.12,28.12,0,0,1-16.85-2.88,15.74,15.74,0,0,1-6.44-5.91c-.6-1-1.41-1.94-2.08-2.93a6.55,6.55,0,0,1-1.49-2.49,1.47,1.47,0,0,1,1.53-.27c5.25,1.07,10.52,2,15.74,3.22A219.37,219.37,0,0,0,177,78.75c3.24.39,6.54.34,9.82.47,1.31,0,2.63,0,3.94.07a19.73,19.73,0,0,1,9.31,2.79,53,53,0,0,1,8.43,6.22,90.07,90.07,0,0,0,8.57,7.14,18.8,18.8,0,0,0,5.5,2.84,23.15,23.15,0,0,1,8.92,5.36c.89.81,1.8,1.59,2.74,2.35a14.67,14.67,0,0,0,6.82,3,32,32,0,0,0,3.24.49,18,18,0,0,1,5.94,1.68,37.05,37.05,0,0,0,10.62,3.25,9.77,9.77,0,0,0,6.58-1.42,2.4,2.4,0,0,0,.2-3.9,5,5,0,0,0-2.69-1.11c-3.91-.4-7.81-1-11.75-.19a31.72,31.72,0,0,1-8.81.48,19,19,0,0,1-13.09-6.68c-.21-.24-.43-.58-.18-.86a1.13,1.13,0,0,1,.82-.38,68.59,68.59,0,0,0,13.73-.7,35.57,35.57,0,0,0,4.47-1c3.6-.9,7.29-1.46,10.81-2.7a6.63,6.63,0,0,1,2.26-.17c2.95,0,5.9-.06,8.85-.25a16.78,16.78,0,0,0,8.23-3,3.15,3.15,0,0,0-1.05-5.88,8.8,8.8,0,0,0-6.93,1.15c-2.45,1.43-4.9,2.89-7.22,4.52A22.16,22.16,0,0,1,257,96c-2.66.61-5.31,1.31-8,1.94a5.17,5.17,0,0,1-1.3.13.65.65,0,0,1-.42-1,66.61,66.61,0,0,0,4.51-6,4.51,4.51,0,0,1,2.77-1.62c1.47-.44,3-.77,4.42-1.26a34.08,34.08,0,0,0,3.31-1.39A3.45,3.45,0,0,0,264,84.83a2,2,0,0,0-2.14-3,10.18,10.18,0,0,0-6.24,3.31,42.74,42.74,0,0,0-7.13,8.93,9.27,9.27,0,0,1-5.13,4.36,8.87,8.87,0,0,1-1.87.54,41.32,41.32,0,0,1-19.06-2.07c-3.67-1.34-6.48-3.91-9.4-6.18.2-.92.8-.94,1.29-1.1,3.11-1,6.24-2,9.34-3.09a9.13,9.13,0,0,1,6.41-.09,11.15,11.15,0,0,0,2.55.61c2.82.34,5.64.68,8.48.9a9.43,9.43,0,0,0,7.1-1.9,3.14,3.14,0,0,0,1.11-1.57c.39-1.41,0-2.44-1.45-2.83-3.41-1-7-1.37-10.35-.26-6.75,2.22-13.8,3.43-20.38,6.18-3.75,1.57-7,1-9.91-1.83a33.26,33.26,0,0,0-5.78-4.28c-.63-.4-1.4-.67-1.73-1.44.28-.65.88-.55,1.39-.56,1.64,0,3.29-.08,4.92,0,6.38.4,12.63-.69,18.88-1.7,2.57-.41,5.06-1.35,7.6-2a74.85,74.85,0,0,0,19.75-7.83,31.33,31.33,0,0,1,4.14-2,18.29,18.29,0,0,1,8.68-1.29q4.25.44,8.47.93a19.93,19.93,0,0,0,8.75-.69,5.27,5.27,0,0,0,3.1-2.27,1.49,1.49,0,0,0,.23-1.21c.08-1.87-.38-2.53-1.82-2.57a7.45,7.45,0,0,0-1.63.16A21.14,21.14,0,0,0,274,62.2a7.77,7.77,0,0,1-4.3,1.38c-2.72.14-5.37-.39-8.19-.4.24-.53.28-.79.43-.91,2.13-1.71,4.34-3.33,6.4-5.11a22.89,22.89,0,0,1,9.14-4.88A30.14,30.14,0,0,0,282,50.35a5.5,5.5,0,0,0,2.58-2.44c.89-1.62.13-2.87-1.7-2.86a6.44,6.44,0,0,0-2.82.75,23.42,23.42,0,0,0-7.21,5.59,66.9,66.9,0,0,1-13.93,11.34,1.49,1.49,0,0,1-1.66.32c.61-2.47.91-5,2-7.42a8.27,8.27,0,0,1,4-4.2,43.26,43.26,0,0,0,7.58-5.15,12.46,12.46,0,0,0,4.36-5.62,5.63,5.63,0,0,0,.4-2.57,3,3,0,0,0-4.06-2.55A9.36,9.36,0,0,0,268.09,38a30.4,30.4,0,0,0-6.43,10.57,15,15,0,0,1-1.7,3.54A20.91,20.91,0,0,0,257,59c-1.54,5.74-1.7,6-6.89,8.83a58.11,58.11,0,0,1-12.35,5.22c-3.58,1-7.13,2.14-10.73,3a64.52,64.52,0,0,1-10.36,1.6,1.3,1.3,0,0,1-1.27-.43c1-1,2.09-1.88,3-2.93s1.54-2.12,2.32-3.17a6.72,6.72,0,0,1,3.49-2.33l5.31-1.7a22.39,22.39,0,0,0,7.78-4.1,9.26,9.26,0,0,1,3.78-1.83,21.35,21.35,0,0,0,10.66-6.7,9.47,9.47,0,0,0,1.69-2.79,2.7,2.7,0,0,0-.4-3.06,3.08,3.08,0,0,0-3.28-1,5.6,5.6,0,0,0-1.46.7,21.64,21.64,0,0,0-8.11,8.84,14.56,14.56,0,0,1-5.6,6.2c-3.47,2.22-7.4,3.07-11.23,4.17-.18-.48-.35-.68-.32-.85.86-4.51,1.72-9,2.63-13.51a19.18,19.18,0,0,1,3-6.87,3,3,0,0,1,2.71-1.5,29.37,29.37,0,0,0,8.43-1.1,9.3,9.3,0,0,0,3-1.39,2,2,0,0,0-.05-3.35,4.42,4.42,0,0,0-2.44-.83c-.83-.06-1.68.49-2.65-.2a22.38,22.38,0,0,1,8.05-4.31c2.2-.64,4.41-1.28,6.56-2.08A14,14,0,0,0,260,25.41a1.56,1.56,0,0,0,.22-1.24l0,0c-.3-1.65-.77-2.22-2-2.27a5.61,5.61,0,0,0-2.84.64,22.5,22.5,0,0,0-6.22,4.2c-1.44,1.49-2.92,3-4.21,4.59a11.16,11.16,0,0,1-3.47,2.92A103.2,103.2,0,0,0,230.17,42a6,6,0,0,0-1.09,1.2,25.2,25.2,0,0,0-4.83,9.93,8.79,8.79,0,0,1-.95,3.07c-.62.13-.81-.3-1-.67a35.5,35.5,0,0,1-2-4.12A25.79,25.79,0,0,1,221,32.28a14.5,14.5,0,0,1,2.33-3.15,46.13,46.13,0,0,0,5.68-8,13.58,13.58,0,0,0,1.42-4.34,4.39,4.39,0,0,0-.55-2.84A2.18,2.18,0,0,0,226.5,13.29ZM172.65,49.65s-.17-.09-.16-.1.17-.16.31,0A.42.42,0,0,1,172.65,49.65Zm-3,26.71h0s0-.19,0-.19Z"/></g></g></svg>