<svg id="Layer_1" data-name="Layer 1" xmlns="http://www.w3.org/2000/svg" viewBox="0 0 189.99 61.42"><defs><style>.cls-1{fill:#1d1d1b;}</style></defs><title>Artboard 1</title><path class="cls-1" d="M21.67,55.64a.94.94,0,0,0-.56-.2l-.1,0h-.1a1.46,1.46,0,0,1-.32.1,1.19,1.19,0,0,1-.33,0,3.11,3.11,0,0,1-1.1-.21,7.44,7.44,0,0,1-1-.44,9.56,9.56,0,0,1-1-.64,14.13,14.13,0,0,0-2.16-1.25,12.49,12.49,0,0,0-2.09-.74A14.86,14.86,0,0,0,10.91,52a14.55,14.55,0,0,0-1.66-.1H8.4c-.25,0-.47,0-.65.06,0-.57,0-1.46,0-2.66s0-2.55.07-4,.07-3.05.1-4.66S8,37.47,8,36.09s.08-2.57.11-3.55,0-1.62.06-1.89a10.13,10.13,0,0,0,1-1.12L10,28.32c.27-.37.49-.7.66-1s.27-.42.29-.44v0c.95-1.88,1.17-3.44.65-4.66a2.87,2.87,0,0,0-.44-.77,3,3,0,0,0-.57-.51,3.68,3.68,0,0,0-.5-.27,1.3,1.3,0,0,1-.29-.12,2.08,2.08,0,0,0-.89-.17,2.42,2.42,0,0,0-1.26.34,4.61,4.61,0,0,0-.91.75,4,4,0,0,0-.58.77,1.92,1.92,0,0,0-.21.39A10,10,0,0,0,5.13,25c-.22.93-.4,1.86-.54,2.77s-.23,1.75-.29,2.5-.1,1.27-.12,1.57a19.23,19.23,0,0,0-1.9,2,10.2,10.2,0,0,0-1,1.46,3.93,3.93,0,0,0-.37.92,2.64,2.64,0,0,0-.07.39v.2L1,37a.62.62,0,0,0,.47.21.79.79,0,0,0,.22,0,1.13,1.13,0,0,0,.44-.25,6.54,6.54,0,0,0,.75-.68A15.22,15.22,0,0,0,4,34.9L4,53.16A8.38,8.38,0,0,0,2.11,54.3,7.82,7.82,0,0,0,1,55.39a3.58,3.58,0,0,0-.57.85,1.59,1.59,0,0,0-.15.46,3.49,3.49,0,0,0-.22.9c0,.3,0,.58,0,.83a5.48,5.48,0,0,0,.07.85,2.48,2.48,0,0,0,.35.95,3,3,0,0,0,.55.6,1.94,1.94,0,0,0,.53.3l.27.09,0,0a7.2,7.2,0,0,0,.83.14l.77,0A4,4,0,0,0,5.46,61a3.63,3.63,0,0,0,1.17-1,3.39,3.39,0,0,0,.54-1.1c.09-.35.15-.58.17-.7a6.77,6.77,0,0,0,.17-.93c0-.35.09-.7.12-1s.07-.66.09-.95,0-.54,0-.75a6.29,6.29,0,0,1,1.4-.13,7,7,0,0,1,1.14.08l.9.15.85.21a12.26,12.26,0,0,1,1.39.71c.5.3,1,.59,1.39.89s.94.66,1.53,1.12a6.23,6.23,0,0,0,.8.54l.79.43.83.42a2.08,2.08,0,0,0,.85.17,1.59,1.59,0,0,0,1.05-.36,3.45,3.45,0,0,0,.75-.78,3.76,3.76,0,0,0,.46-.81l.19-.5,0-.13,0-.14A1.05,1.05,0,0,0,21.67,55.64ZM3.5,58.26a2.81,2.81,0,0,1-.51,1,.75.75,0,0,1-.54.24.43.43,0,0,1-.21,0,2,2,0,0,1-.34-1.6,2.38,2.38,0,0,1,.82-1.18,12.89,12.89,0,0,1,1.12-.8A8.36,8.36,0,0,1,3.5,58.26Zm63.28-18.7a.32.32,0,0,0-.27,0,.91.91,0,0,0-.38.3Q65,42.11,63.85,44.18c-.31.59-.64,1.19-1,1.81s-.68,1.2-1,1.76-.66,1.1-1,1.58-.58.91-.83,1.25l-.65.64v-.64a4.87,4.87,0,0,1-.29-1.33c-.08-.66-.14-1.44-.19-2.35S58.84,45,58.81,44s-.06-2-.07-3,0-1.84,0-2.65V36.5c0-.39-.06-.76-.1-1.12a8.3,8.3,0,0,0-.19-.92,1.62,1.62,0,0,0-.39-.72,5.09,5.09,0,0,0-.68-.56,1.94,1.94,0,0,0-.68-.08h-.61c0-.18,0-.43,0-.73s0-.63-.08-1a6.33,6.33,0,0,0-.21-.95,1.59,1.59,0,0,0-.41-.72q-.51-.46-1.08-.9a2.69,2.69,0,0,0-1.6-.42h-2a2.67,2.67,0,0,1-.82.56,9.53,9.53,0,0,0-1.27.78A8.25,8.25,0,0,0,47.13,31a6.28,6.28,0,0,0-1.19,2.06,16,16,0,0,0-1.09,3.09,10.8,10.8,0,0,0-.26,1.4A9.8,9.8,0,0,0,44.53,39a7.1,7.1,0,0,0,.18,1.45,4.79,4.79,0,0,0,.55,1.32,6.87,6.87,0,0,0,1.49,2l.09.07-.09,0a1.65,1.65,0,0,0-.49.09,1.44,1.44,0,0,0-.63.46,21.46,21.46,0,0,0-1.74,2c-.56.76-1,1.47-1.46,2.13.07-.82.13-1.71.19-2.69s.11-2,.17-2.94.11-1.94.15-2.87.09-1.76.12-2.5.06-1.34.09-1.8,0-.73,0-.8a1.35,1.35,0,0,0-.24-.89,2.19,2.19,0,0,0-.66-.59,3.51,3.51,0,0,0-.85-.34A3.39,3.39,0,0,0,40.6,33h-.21l-.17,0a4.41,4.41,0,0,0-1.32,1.18,23,23,0,0,0-1.45,2c-.49.74-1,1.52-1.43,2.35s-.88,1.59-1.24,2.29c0-.54,0-1.09,0-1.63s0-1,0-1.46,0-.79,0-1.07,0-.44,0-.46v-.14A2.08,2.08,0,0,0,34.1,35a3.69,3.69,0,0,0-1-.61,3.47,3.47,0,0,0-.94-.25l-.46-.06-.61-.1-.1.65c-.06.34-.1.66-.15,1-.07-.14-.14-.29-.21-.41l-.44-.48-.34.58L28.76,37c-.33.49-.71,1-1.16,1.66s-.91,1.26-1.41,1.89c-.9,1.16-1.67,2.07-2.29,2.75a18.55,18.55,0,0,1-1.55,1.55,4.25,4.25,0,0,1-1,.68,1.72,1.72,0,0,1-.49.16l-.07,0-.07,0a3.54,3.54,0,0,1-1.07-1.44,9.15,9.15,0,0,1-.46-2.32A14.81,14.81,0,0,1,19.53,38a12.77,12.77,0,0,1,1.58-.27,3.84,3.84,0,0,1,1.28.07l.37,0,.14-.37s0-.07.06-.21a1.11,1.11,0,0,0,0-.47.44.44,0,0,0,.1-.38,3.75,3.75,0,0,0,0-.58,6,6,0,0,0,0-1,6.26,6.26,0,0,0-.25-1.15,2.76,2.76,0,0,0-.6-1,2.84,2.84,0,0,0-2.82-.75l-.31.07V32a4.06,4.06,0,0,0-1.15.74,2.44,2.44,0,0,0-.41.77c-.18.44-.37,1-.58,1.7s-.39,1.46-.56,2.31A17.19,17.19,0,0,0,16,40.07c-.21,3,.42,5.28,1.87,6.8a2.25,2.25,0,0,0,1.15.63c.46.1.93.2,1.43.29h.14l.51-.09a5,5,0,0,0,1.19-.44,11.68,11.68,0,0,0,1.71-1,14.52,14.52,0,0,0,2.1-1.91,24.4,24.4,0,0,0,2.32-3,30.36,30.36,0,0,0,2.19-3.94c-.13,1.12-.21,2.12-.23,3a22.34,22.34,0,0,0,.14,3.54,4.87,4.87,0,0,0,.54,1.87,2,2,0,0,0,.63.7,2.11,2.11,0,0,0,1.26.88l.17.07a.48.48,0,0,0,.24.07h.24a1.69,1.69,0,0,0,.81-.16c.21-.1.31-.17.31-.22l.24-.13,0-.21a13.82,13.82,0,0,1,.76-2.36,21.75,21.75,0,0,1,1.08-2.16c.38-.68.77-1.31,1.17-1.9s.76-1.13,1.1-1.6c-.13.88-.26,1.84-.37,2.87s-.21,2.06-.29,3.1-.15,2-.22,3-.13,1.84-.17,2.61S38,51.7,38,52.19s0,.77,0,.83v.1a1.7,1.7,0,0,0,.39.91,1.47,1.47,0,0,0,1.18.42l.46,0a2.61,2.61,0,0,0,.42-.1l.1,0a5.88,5.88,0,0,0,.68-.2,1.65,1.65,0,0,0,.31-.14l.17-.07.17-.13c.82-1.29,1.57-2.43,2.26-3.42s1.3-1.81,1.82-2.46,1.14-1.46,1.67-2l.1-.11,0-.13a2,2,0,0,0,0-1.08,7,7,0,0,0,1.57.7,3.26,3.26,0,0,0,2.11-.74,8.34,8.34,0,0,0,1.22-1.23,18.66,18.66,0,0,0,1.43-2c.16,1,.29,2.16.41,3.49s.25,2.61.4,3.87a21.82,21.82,0,0,0,.67,3.37,3.49,3.49,0,0,0,1.17,2c0,.36.14.57.43.63a5.28,5.28,0,0,0,.93.08,1.85,1.85,0,0,0,1-.32,6.1,6.1,0,0,0,.94-.77,9.55,9.55,0,0,0,.8-.9,7.36,7.36,0,0,1,.59-.69c.52-.84,1.07-1.74,1.63-2.71s1.11-1.89,1.62-2.77,1-1.68,1.34-2.4.66-1.24.82-1.58a1.61,1.61,0,0,0,.37-.59,3.14,3.14,0,0,0,.19-.73c0-.25.06-.5.07-.73s0-.44,0-.6a.6.6,0,0,1-.37-.1A1.34,1.34,0,0,0,66.78,39.56ZM20.26,34.88c.08-.26.15-.51.22-.76a1.5,1.5,0,0,1,.22.34A3.93,3.93,0,0,1,21,35.58l-.41,0-.51,0A7.85,7.85,0,0,1,20.26,34.88Zm33.58,2.21c-.49,1.06-.94,2-1.36,2.79a21.48,21.48,0,0,1-1.1,1.91q-.48.69-.75.69A7.51,7.51,0,0,1,49.54,40a14.35,14.35,0,0,1-.32-3.15A15.06,15.06,0,0,1,50,32.38a3.34,3.34,0,0,1,.58-1,3,3,0,0,1,.82-.68,2.42,2.42,0,0,1,1.29-.31h.64a1.14,1.14,0,0,1,.68.34,2.25,2.25,0,0,1,.48.82,4.42,4.42,0,0,1,.2,1.53v.64h.68C54.83,34.92,54.33,36,53.84,37.09ZM90.65,26.54a.8.8,0,0,1,0,.49q-.1.39-.3,1c-.14.39-.3.83-.48,1.3s-.37,1-.58,1.43c-.47,1.14-1,2.42-1.66,3.84a.85.85,0,0,1-.58-.17,3.09,3.09,0,0,1-.65-.52,3.3,3.3,0,0,1-.51-.75,1.68,1.68,0,0,1-.17-.83,2.73,2.73,0,0,1,.41-.85q.38-.62.78-1.23c.27-.41.52-.77.73-1.1s.3-.52.26-.56a1.49,1.49,0,0,0-1.24.27,11,11,0,0,0-1.55,1.09l-.88.78q-.59.51-1.26,1.14c-.46.42-.92.86-1.4,1.32s-.89.92-1.25,1.35a10.23,10.23,0,0,0-.87,1.14c-.22.32-.29.57-.22.73l0,.17,0-.07a.67.67,0,0,0,.29.46,2.16,2.16,0,0,0,.68.3,5.91,5.91,0,0,0,1,.19c.35,0,.71.08,1.07.1a19.85,19.85,0,0,0,2.89,0h.14a2.23,2.23,0,0,0,.54-.1l.37.19.48.25a1.44,1.44,0,0,1,.37.29c.09.1.11.2,0,.29a3.23,3.23,0,0,0-1.62.54,13.85,13.85,0,0,0-1.8,1.33A22.54,22.54,0,0,0,81.87,42c-.54.59-1,1.11-1.39,1.56a4.63,4.63,0,0,0-.61.94c-.14.28-.18.44-.14.49s.11.1.26.1l.49,0c.2,0,.42-.06.65-.11l3.57-.47a1.17,1.17,0,0,0,.27-.2l.47-.58a2.65,2.65,0,0,1,.75-.62,4.83,4.83,0,0,1,.92-.34,3.92,3.92,0,0,1,1.26-.06l.24.2c.11.14.24.28.39.44s.3.36.46.58-.15.27-.51.41a5,5,0,0,0-.6.64c-.26.32-.53.69-.81,1.09s-.54.81-.77,1.21a4.18,4.18,0,0,0-.44,1c0,.12-.06.32-.12.62a4.31,4.31,0,0,0-.09.88c0,.09-.06.18-.2.27a.41.41,0,0,1-.37.07,2.6,2.6,0,0,1-.68-.36,4.31,4.31,0,0,1-.55-.46,3.56,3.56,0,0,1-.47-.57,3,3,0,0,1-.28-2,8.48,8.48,0,0,0,.11-1.16c0-.11-.05-.14-.14-.1a.72.72,0,0,1-.2.05l-.31,0-1,.28-1,.23c-.32.07-.6.13-.85.17a3,3,0,0,1-.51.07.67.67,0,0,1-.68-.54l0-.34a.66.66,0,0,0-.15-.24.74.74,0,0,1-.15-.41,1.67,1.67,0,0,1,.27-.71,10.71,10.71,0,0,1,.68-1c.27-.37.57-.76.9-1.16s.65-.75.95-1.07.57-.57.8-.78.37-.29.44-.27a5.78,5.78,0,0,1-1.46-.6,10.64,10.64,0,0,1-1.63-1.07,8.18,8.18,0,0,1-1.33-1.29,2,2,0,0,1-.54-1.19,2.84,2.84,0,0,1,.25-1.31,4.64,4.64,0,0,1,.84-1.21,1,1,0,0,0,.13-.15,1.56,1.56,0,0,0,.14-.19,8.43,8.43,0,0,0,.75-.74q1.8-1.53,3.57-2.76c.49-.34,1-.68,1.54-1s1.07-.67,1.6-1A14,14,0,0,1,88,26.52a7.36,7.36,0,0,1,1.36-.39l.27,0,.27,0a.94.94,0,0,1,.31.1A1,1,0,0,1,90.65,26.54Zm30.14,23.63a.63.63,0,0,0-.51.24,3.34,3.34,0,0,0-.44.64v.07a3.15,3.15,0,0,1-.4.59,1.9,1.9,0,0,1-.47.41,1.28,1.28,0,0,1-.73.19,2.84,2.84,0,0,1-1-.24,5.58,5.58,0,0,1-1.37-.88,16.13,16.13,0,0,1-1.8-1.81,30.83,30.83,0,0,1-2.28-3c0-.06-.17-.33-.44-.78s-.6-1-1-1.73-.81-1.5-1.27-2.38-.92-1.78-1.35-2.69-.82-1.8-1.17-2.67a16.55,16.55,0,0,1-.77-2.33c.18-.27.51-.8,1-1.58s1-1.68,1.46-2.7q2.45-5,1.4-7.38A3.07,3.07,0,0,0,107,20.42h-.1a2.56,2.56,0,0,0-.51.08,2.76,2.76,0,0,0-.8.39,6.59,6.59,0,0,0-1,.92,9.79,9.79,0,0,0-1.22,1.67,5.8,5.8,0,0,0,0-1.47,2.28,2.28,0,0,1-.16-.34,3.29,3.29,0,0,0-.32-.56,3,3,0,0,0-.49-.52,1.08,1.08,0,0,0-.7-.24,1.21,1.21,0,0,0-.65.2l-.17.1,0,.21s-.07.38-.22,1.09-.32,1.63-.51,2.8-.39,2.52-.58,4.06-.34,3.17-.44,4.87S99,37.11,99,38.86a33.83,33.83,0,0,0,.53,5l0,.17.1.1a2.48,2.48,0,0,0,.28.22,3.22,3.22,0,0,0,.45.31A3.77,3.77,0,0,0,101,45a1.62,1.62,0,0,0,.61.12,1,1,0,0,0,1-.85v-.13s0-.33,0-.92-.08-1.35-.12-2.26-.09-1.95-.12-3.08,0-2.27,0-3.4c.09.07.22.19.41.37q.06.38.3,1.41a25.06,25.06,0,0,0,.78,2.59c.37,1,.85,2.22,1.47,3.59a42,42,0,0,0,2.34,4.41c0,.05.17.27.44.67s.63.88,1.08,1.44,1,1.18,1.56,1.82a16.56,16.56,0,0,0,2,1.79,12.77,12.77,0,0,0,2.21,1.36,5.52,5.52,0,0,0,2.35.54A5,5,0,0,0,121.33,52l.07-.1,0-.13a2.08,2.08,0,0,0-.23-1.43A.54.54,0,0,0,120.79,50.17Zm-18.5-17.38c0-1,.11-1.86.19-2.67a7.19,7.19,0,0,1,.39-1.88,22.34,22.34,0,0,1,2-4.22c.67-1,1.16-1.53,1.48-1.53h0a4.19,4.19,0,0,1,.25.85,4.49,4.49,0,0,1-.14,1.92,14.68,14.68,0,0,1-1.22,3.11A25.18,25.18,0,0,1,102.29,32.79Zm42.89,4a1.31,1.31,0,0,1,.08.91,6.48,6.48,0,0,1-.32,1q-.13.3-.63,1.26c-.33.63-.74,1.4-1.24,2.29s-1.06,1.88-1.67,3-1.23,2.17-1.87,3.28l-1.85,3.28q-.9,1.62-1.65,2.91l-1.26,2.16-.65,1.1v0a2.2,2.2,0,0,1-.91.88,2.15,2.15,0,0,1-.85.21,1.74,1.74,0,0,1-1.21-.43,4.72,4.72,0,0,1-.53-.53l0-.1,0,0q-1.09-2.35-.45-11.56c0-1,.12-1.87.22-2.74s.19-1.69.26-2.47l-1.21,2.35-1.2,2.33c-.39.74-.74,1.39-1,2s-.54,1-.7,1.28a2.34,2.34,0,0,1-1,1.29,2.64,2.64,0,0,1-1.1.31,2.87,2.87,0,0,1-1.07-.21,5.48,5.48,0,0,1-.94-.46c-.27-.17-.5-.33-.68-.47s-.27-.25-.27-.29l-.07,0a3.43,3.43,0,0,1-.61-1.56,17.54,17.54,0,0,1-.24-2.5c0-.94,0-1.94,0-3s.13-2.09.23-3.1.18-1.93.27-2.77.17-1.5.24-2a1.34,1.34,0,0,1,.2-.68,1.23,1.23,0,0,1,.36-.36.92.92,0,0,1,.35-.14h.28a1.66,1.66,0,0,1,.71.18,3.69,3.69,0,0,1,.71.48,7.17,7.17,0,0,1,.63.59l.46.51.17.21-.07.41a15.2,15.2,0,0,0-.3,2.38c-.07,1-.12,2.14-.16,3.29s0,2.3,0,3.42v2.81c.37-.77.77-1.67,1.23-2.71l1.36-3.14,1.32-3.13c.43-1,.81-1.91,1.13-2.69a3.44,3.44,0,0,1,.83-1.34,10.48,10.48,0,0,1,1.1-1l.48-.24a3.8,3.8,0,0,0,.51-.15,1.61,1.61,0,0,1,.48-.08l.27.06a2.79,2.79,0,0,1,.86.5,2.11,2.11,0,0,1,.5.63,1.88,1.88,0,0,1,.2.64,2.52,2.52,0,0,1,0,.55c-.09.68-.17,1.49-.24,2.45s-.13,2-.2,3.07-.14,2.25-.21,3.44-.12,2.35-.18,3.48-.11,2.2-.15,3.2-.1,1.87-.14,2.61c.27-.4.65-1,1.14-1.86l1.65-2.84,1.94-3.35,2-3.44c.65-1.11,1.25-2.14,1.79-3.09s1-1.71,1.33-2.28l.13-.27.27-.1a1.75,1.75,0,0,1,.72,0A.94.94,0,0,1,145.18,36.8ZM157.3,39a6.54,6.54,0,0,0-.72-1.54,4.69,4.69,0,0,0-1.2-1.28c-.21-.07-.42-.14-.65-.24s-.37-.13-.58-.18a1.83,1.83,0,0,0-.51-.09,5.54,5.54,0,0,0-.81.07,1.86,1.86,0,0,0-.86.44,9.86,9.86,0,0,0-1.13,1.74,11.9,11.9,0,0,0-1.14,3.4V29.43a6.21,6.21,0,0,0,1.1-.73,7.53,7.53,0,0,0,1.29-1.38,8.58,8.58,0,0,0,1.09-2,7.26,7.26,0,0,0,.46-2.67v-.58a2,2,0,0,0-.12-.58,2.37,2.37,0,0,0-.42-.75,2.6,2.6,0,0,0-.85-.64,3.17,3.17,0,0,0-1.4-.28c-.13.12-.26.22-.37.31a3.2,3.2,0,0,1-.37.19,1.24,1.24,0,0,1-.41.08,4.48,4.48,0,0,0-1.19,1.5,13.06,13.06,0,0,0-1,2.57,23.3,23.3,0,0,0-.67,4.43,3.24,3.24,0,0,0-.62.09l-.93.18c-.35.07-.74.14-1.16.19a8.93,8.93,0,0,1-1.27.09h-1.12l-.52-.55v.55a1.29,1.29,0,0,0-.23.37.62.62,0,0,0,0,.36.86.86,0,0,0,.27.39.4.4,0,0,0,.18.36,1.15,1.15,0,0,0,.42.17,4.46,4.46,0,0,0,.54.06,4.71,4.71,0,0,0,.5,0c.59,0,1.16,0,1.71-.07a4,4,0,0,0,1.69-.54v17a3.82,3.82,0,0,0,.64.58c.18.13.37.26.56.37a1.09,1.09,0,0,0,.5.17l-.55.58a3.61,3.61,0,0,1-.24.87,6.81,6.81,0,0,0-.33,1.46,4.2,4.2,0,0,0,.08,1.58,1.74,1.74,0,0,0,1,1.19h1.7a11.4,11.4,0,0,0,2-.2,5.18,5.18,0,0,0,2.16-1,7.51,7.51,0,0,0,1.94-2.38,13.45,13.45,0,0,0,1.33-4.33,19.41,19.41,0,0,0,.61-4,13.7,13.7,0,0,0-.05-1.68A8.73,8.73,0,0,0,157.3,39Zm-6.67-14.73.77-1.65a2.67,2.67,0,0,1-.11.78,3.27,3.27,0,0,1-.25.64,7.27,7.27,0,0,1-.36.65c-.13.23-.27.49-.4.78A3,3,0,0,1,150.63,24.28Zm3,15.81q0,1-.06,2.31c0,.85-.1,1.74-.19,2.68s-.22,1.86-.39,2.74a17.43,17.43,0,0,1-.65,2.45,6.72,6.72,0,0,1-.93,1.84,1.56,1.56,0,0,1-.84.51,6.11,6.11,0,0,1-.86.06h-.55a1.35,1.35,0,0,1-.51-.57,2.81,2.81,0,0,1-.23-.89,3.78,3.78,0,0,1,.17-1.43v-.54l.57-.58v-.58c.09-.27.24-.67.44-1.2s.45-1.13.72-1.77.57-1.32.88-2,.63-1.36.92-2,.58-1.17.85-1.64a6.62,6.62,0,0,1,.68-1C153.64,38.86,153.63,39.39,153.62,40.09Zm36.16,4.16a1,1,0,0,0-.82-.41,1.71,1.71,0,0,0-.49.09,1.56,1.56,0,0,0-.63.46,20.05,20.05,0,0,0-1.73,2c-.57.76-1.06,1.47-1.46,2.13.06-.82.13-1.71.18-2.69s.12-2,.17-2.94.11-1.94.16-2.87.08-1.76.11-2.5.07-1.34.09-1.8,0-.73,0-.8a1.29,1.29,0,0,0-.23-.89,2.36,2.36,0,0,0-.67-.59,3.36,3.36,0,0,0-.85-.34,3.26,3.26,0,0,0-.83-.12h-.2l-.17,0a4.43,4.43,0,0,0-1.33,1.18,23,23,0,0,0-1.45,2c-.48.74-1,1.52-1.42,2.35s-.88,1.59-1.24,2.29c0-.54,0-1.09,0-1.63s0-1,0-1.46,0-.79,0-1.07,0-.44,0-.46v-.14a2.07,2.07,0,0,0-.64-1.09,3.74,3.74,0,0,0-1-.61,3.38,3.38,0,0,0-.94-.25l-.45-.06-.62-.1-.1.65c-.05.34-.1.66-.14,1-.08-.14-.15-.29-.22-.41l-.44-.48-.34.58L171,37c-.32.49-.71,1-1.15,1.66s-.91,1.26-1.41,1.89c-.91,1.16-1.67,2.07-2.3,2.75a18.71,18.71,0,0,1-1.54,1.55,4.48,4.48,0,0,1-1,.68,1.75,1.75,0,0,1-.5.16l-.06,0-.07,0a3.45,3.45,0,0,1-1.07-1.44,8.73,8.73,0,0,1-.46-2.32,15.17,15.17,0,0,1,.3-3.89,12.77,12.77,0,0,1,1.58-.27,3.82,3.82,0,0,1,1.28.07l.37,0,.14-.37s0-.07.07-.21a1.14,1.14,0,0,0,0-.47.44.44,0,0,0,.11-.38,5.81,5.81,0,0,0,.05-.58,6.33,6.33,0,0,0-.31-2.15,2.61,2.61,0,0,0-.59-1,2.85,2.85,0,0,0-2.83-.75l-.3.07V32a4,4,0,0,0-1.16.74,2.44,2.44,0,0,0-.41.77c-.18.44-.37,1-.58,1.7s-.39,1.46-.56,2.31a18.6,18.6,0,0,0-.32,2.57q-.3,4.51,1.87,6.8a2.28,2.28,0,0,0,1.16.63c.45.1.93.2,1.43.29h.13l.51-.09a4.84,4.84,0,0,0,1.19-.44,12.27,12.27,0,0,0,1.72-1,15,15,0,0,0,2.09-1.91,24.39,24.39,0,0,0,2.33-3,30.4,30.4,0,0,0,2.18-3.94c-.12,1.12-.2,2.12-.22,3a22.55,22.55,0,0,0,.13,3.54,5,5,0,0,0,.55,1.87,1.84,1.84,0,0,0,.63.7,2.07,2.07,0,0,0,1.25.88l.17.07a.48.48,0,0,0,.24.07h.24a1.76,1.76,0,0,0,.82-.16c.2-.1.3-.17.3-.22l.24-.13,0-.21a13,13,0,0,1,.77-2.36,21.71,21.71,0,0,1,1.07-2.16c.38-.68.78-1.31,1.17-1.9s.77-1.13,1.11-1.6c-.14.88-.26,1.84-.38,2.87s-.21,2.06-.29,3.1-.15,2-.22,3-.12,1.84-.17,2.61-.08,1.4-.1,1.89,0,.77,0,.83v.1a1.56,1.56,0,0,0,.39.91,1.46,1.46,0,0,0,1.17.42l.46,0a3.07,3.07,0,0,0,.43-.1l.1,0a6.54,6.54,0,0,0,.68-.2,1.41,1.41,0,0,0,.3-.14l.17-.07.17-.13c.82-1.29,1.57-2.43,2.26-3.42s1.3-1.81,1.82-2.46,1.15-1.46,1.67-2l.1-.11,0-.13A1.58,1.58,0,0,0,189.78,44.25Zm-27.31-9.37c.08-.26.16-.51.23-.76a2.9,2.9,0,0,1,.22.34,4.31,4.31,0,0,1,.29,1.12l-.41,0-.51,0A5.69,5.69,0,0,1,162.47,34.88ZM58.06,5.45a.48.48,0,0,1,.14.15.36.36,0,0,1,.06.2.34.34,0,0,1,0,.1.36.36,0,0,1,0,.11.29.29,0,0,1-.15.14.37.37,0,0,1-.21.06h-.1l-.11,0A.29.29,0,0,1,57.5,6a.36.36,0,0,1,0-.11.34.34,0,0,1,0-.1.41.41,0,0,1,0-.21.5.5,0,0,1,.36-.2l.11,0Zm19.7,3.93a.41.41,0,0,0,.11-.07l.1-.06.1-.07L78.25,9h0s0,0,0,.05l0,.11a.29.29,0,0,0,.16.15l.1,0a.25.25,0,0,0,.15,0,.34.34,0,0,0,.12-.12l.1-.15A.73.73,0,0,1,79,8.9l.06-.08.08-.09.08-.07a.6.6,0,0,0,.08-.08l.07-.08.08-.08.16-.16.07-.08.08-.08A.6.6,0,0,0,79.85,8L79.93,8,80,7.87l.08-.07.09-.09.08-.06.09-.07.08-.07.09-.07.09-.07.2-.1L81,7.21h.21v.06a.43.43,0,0,1,0,.15s0,.07,0,.1a.74.74,0,0,1,0,.12s0,.07,0,.11l0,.11,0,.08L81,8l-.19.45-.11.2-.07.21-.09.2-.08.19,0,.21,0,.22,0,.21.09.19.14.16.16.1.19,0,.2,0,.27-.11.26-.13.2-.13.21-.14.2-.14.19-.15.19-.16.19-.15L83,9.11,83.21,9l.18-.15.11-.11a.5.5,0,0,0,0,.12v.12a.38.38,0,0,0,0,.15l0,.13a.67.67,0,0,0,.12.24.35.35,0,0,0,.12.1l.11,0,.08,0H84l.12,0,.14,0,.11,0,.13-.07.1-.07.11-.08.1-.07.11-.08L85,9.08l.1-.09.22-.25a2.91,2.91,0,0,1,.25-.25c.07-.06.12-.07.15-.05s0,.16-.07.38L85.58,9l-.09.21c0,.12-.1.22-.14.3a.86.86,0,0,1-.14.18.55.55,0,0,1-.2.11l-.33.06h-.47L84,10l-.12,0-.12,0-.12,0-.12,0-.12,0-.11,0-.12,0-.11,0-.12.05-.11.05-.21.12-.11.06-.1.07-.1.07-.1.06-.1.07-.1.07-.1.08-.09.08-.09.09-.08.09-.08.09a.36.36,0,0,1-.07.1l-.09.09-.06.1-.08.1a.61.61,0,0,0-.07.1l-.07.11,0,.1-.11.22,0,.12,0,.12,0,.12s0,.08,0,.11a.78.78,0,0,0,0,.14s0,.08,0,.13V13c0,.05,0,.09,0,.14s0,.09,0,.13l0,.12a.5.5,0,0,0,0,.13.24.24,0,0,0,.07.12.81.81,0,0,0,.18.2l.11.08.12.08.12.06.14,0,.13,0,.14,0,.13,0h.41a.53.53,0,0,1,.12,0l.13,0,.12,0,.12,0,.11-.06.11-.08.09-.07.1-.07.09-.07.08-.08.12-.13a.3.3,0,0,0,.1-.09l0-.05a.15.15,0,0,0,0-.06l.06-.09,0-.1A1,1,0,0,0,84,13l0-.1.06-.11.08-.1a.44.44,0,0,0,.06-.1,2,2,0,0,0,.12-.21l.06-.11.06-.1.06-.1a.61.61,0,0,0,.07-.1l.12-.21.06-.11a.61.61,0,0,0,.07-.1.37.37,0,0,0,0-.11l.06-.1a4.48,4.48,0,0,0,.22-.44,1.28,1.28,0,0,1,.2-.31.55.55,0,0,1,.29-.16,1.41,1.41,0,0,1,.5,0h.49l.24,0h.24l.12,0,.12,0h.12l.11,0h.23l.12,0,.11,0,.23.06.09,0h.08l.06,0a.23.23,0,0,0,.21,0,.24.24,0,0,0,.12-.18.26.26,0,0,0,0-.2.3.3,0,0,0-.17-.13l-.24-.05-.11,0-.13,0a1.29,1.29,0,0,0-.24,0l-.12,0-.12,0-.12,0h-.13l-.12,0-.12,0-.24,0H86.1q-.16,0-.21-.06a.13.13,0,0,1,0-.14,1.89,1.89,0,0,1,.1-.21,1,1,0,0,0,.13-.23s0-.07,0-.11l0-.11s0-.08,0-.12l0-.12a.53.53,0,0,0,0-.12s0-.08,0-.12l0-.12a.56.56,0,0,0,0-.12l0-.13s0-.08,0-.12a.62.62,0,0,0,0-.13.24.24,0,0,0,0-.12l0-.13s0-.08,0-.11a.5.5,0,0,0-.09-.13l-.15-.18c0-.07-.11-.13-.15-.18a1.29,1.29,0,0,0-.12-.12.65.65,0,0,0-.18-.15,1,1,0,0,0-.22-.09l-.11,0h-.25L85,6.7l-.23.07a.82.82,0,0,0-.2.12L84.5,7,84.41,7l-.08.08a.6.6,0,0,1-.08.08l-.09.09a.67.67,0,0,0-.15.18h0l-.15.17-.17.16L83.49,8l-.17.15-.17.15L83,8.43l-.17.15-1.18.94a.62.62,0,0,1-.32.16.16.16,0,0,1-.15-.09.64.64,0,0,1,0-.25A3,3,0,0,1,81.21,9c0-.12.07-.22.1-.31s.06-.16.08-.21a.37.37,0,0,1,0-.11l0-.12c0-.08.06-.15.08-.22s0-.08,0-.11,0-.08,0-.11a1.12,1.12,0,0,0,.06-.23l0-.13a.37.37,0,0,1,0-.11.53.53,0,0,0,0-.13.37.37,0,0,0,0-.11.53.53,0,0,1,0-.12.53.53,0,0,0-.06-.1.44.44,0,0,0-.17-.16.67.67,0,0,0-.21-.09.17.17,0,0,0-.1,0h-.24l-.13,0-.11,0-.12.07-.11,0-.11.06-.1.07-.1.08c-.08.07-.17.14-.26.23a1.52,1.52,0,0,1-.22.19c-.06,0-.1,0-.11,0a.86.86,0,0,1,.12-.34s0-.08,0-.07,0,0,0-.07a.28.28,0,0,0,0-.22.26.26,0,0,0-.15-.14.35.35,0,0,0-.22,0,.28.28,0,0,0-.09.07l0,.1a.91.91,0,0,1-.06.11s0,0,0,.1l0,.12a.36.36,0,0,1,0,.11.8.8,0,0,0-.05.11l0,.11a.8.8,0,0,0,0,.11.24.24,0,0,1,0,.11l0,.11,0,.11h0l0,0L78.61,8l-.09.08-.09.08-.09.07-.09.09-.09.08-.09.07-.1.08-.1.08-.1.08-.1.08-.11.08-.1.06L77.34,9,77.23,9a1,1,0,0,1-.27.1.42.42,0,0,1-.22,0,.34.34,0,0,1-.17-.08.28.28,0,0,1-.09-.17.55.55,0,0,1,0-.22l0-.11a.5.5,0,0,1,0-.13l.05-.11a.75.75,0,0,0,.07-.12l.06-.1A.75.75,0,0,1,76.82,8l.08-.1L77,7.79l.09-.11.08-.1.07-.08.05-.06,0-.05h0a.27.27,0,0,0,.07-.2A.26.26,0,0,0,77.28,7a.28.28,0,0,0-.2-.08.38.38,0,0,0-.1,0,.18.18,0,0,0-.1.06l0,0-.09.12-.07.08-.07.08-.06.09-.07.09-.12.18a.61.61,0,0,1-.07.1l-.06.11a.22.22,0,0,1,0,.08.35.35,0,0,0-.05.08l-.08.09L76,8.23l-.09.1a.61.61,0,0,1-.07.1l-.09.09-.08.09-.09.09-.08.09a3.93,3.93,0,0,1-.8.63,1.15,1.15,0,0,1-.62.22c-.15,0-.23-.12-.23-.31a2.15,2.15,0,0,1,.37-.92l.06-.11.08-.1.06-.12.06-.1a.61.61,0,0,0,.07-.1.41.41,0,0,1,.07-.11.61.61,0,0,0,.07-.1.41.41,0,0,1,.07-.11.61.61,0,0,0,.07-.1l.07-.1,0-.09,0-.06.05,0a.24.24,0,0,0,0-.21A.27.27,0,0,0,75,6.77a.26.26,0,0,0-.2,0,.23.23,0,0,0-.19.1L74.45,7a.41.41,0,0,1,0,.09.61.61,0,0,1-.07.1.37.37,0,0,1-.06.1l-.06.09-.07.08-.07.09h0l0,.06-.07.07-.18.15-.07.09L73.6,8l-.08.09-.09.07-.09.08-.09.08-.1.09-.1.07a1.19,1.19,0,0,1-.29.18.69.69,0,0,1-.32.07.26.26,0,0,1-.22-.14.56.56,0,0,1,0-.42s0-.07,0-.11,0-.08,0-.13l.09-.24,0-.1.06-.12,0-.1a.61.61,0,0,0,.05-.12l.06-.11s0-.08,0-.11l.06-.12,0-.1.06-.11a.37.37,0,0,1,0-.11L73,6.5l.06-.12a.37.37,0,0,0,0-.11l.06-.11.06-.1A.41.41,0,0,0,73.3,6l.06-.1.06-.1.06-.1a.47.47,0,0,1,0-.1l.06-.1,0-.1a.27.27,0,0,0,.06-.1.61.61,0,0,1,.07-.1l.06-.1.06-.1a.27.27,0,0,0,.06-.1l.06-.1.08-.1.06-.09.06-.1.06-.1.07-.09.06-.1.08-.11L74.54,4l0-.08,0-.06,0-.06a.22.22,0,0,0,0-.21.29.29,0,0,0-.11-.19.25.25,0,0,0-.21,0,.21.21,0,0,0-.18.11l0,0a.15.15,0,0,0,0,.06.41.41,0,0,1-.05.09L74,3.75l-.08.1a.47.47,0,0,0-.05.1l-.07.11-.06.09-.07.11-.06.09a.36.36,0,0,1-.07.1.61.61,0,0,1-.07.1l-.06.1-.12.21-.06.1-.06.1a.61.61,0,0,1-.07.1l-.06.1a.24.24,0,0,0-.06.11.47.47,0,0,1,0,.1l-.06.1a.61.61,0,0,0-.07.1,2.74,2.74,0,0,0-.15.35,3.55,3.55,0,0,1-.21.44,1,1,0,0,1-.26.33.25.25,0,0,1-.31,0,1,1,0,0,0-.22-.09l-.11,0h-.24l-.12,0-.1,0-.11,0-.1,0-.11,0-.1.06-.1.07-.09.08-.08.08-.08.09-.08.09a.61.61,0,0,0-.07.1.61.61,0,0,1-.07.1.61.61,0,0,0-.07.1L70,7.76l-.06.11L69.85,8V8l0,.05-.06.09-.07.08-.07.09-.06.08-.07.09-.07.09-.08.1-.17.17-.1.09L69,9a1.19,1.19,0,0,1-.18.15l-.11.09-.1.05-.12,0-.11,0h0a.16.16,0,0,1,0-.06,1,1,0,0,1,0-.2V9c0-.05,0-.1,0-.15a.5.5,0,0,0,0-.12l0-.15s0-.08,0-.12,0-.09,0-.14l0-.13s0-.08,0-.12,0-.09,0-.13,0-.08,0-.12,0-.09,0-.13,0-.08,0-.11a.42.42,0,0,1,0-.1.19.19,0,0,1,0-.08.15.15,0,0,1,0-.06h0a.28.28,0,0,0,0-.22A.32.32,0,0,0,68.6,7a.26.26,0,0,0-.21,0,.17.17,0,0,1-.17,0,.47.47,0,0,0-.15-.13,1,1,0,0,0-.22-.09.85.85,0,0,0-.23,0l-.23,0-.12,0-.1,0-.11,0-.1,0-.1.06L66.77,7a.6.6,0,0,0-.08.08l-.09.08-.08.09-.07.08-.09.1,0,0s0,0,0,0l0,0-.12.12L66,7.75l-.09.09-.09.08a.6.6,0,0,0-.08.08,1.73,1.73,0,0,1-.57.52.67.67,0,0,1-.51.13c-.14,0-.22-.13-.25-.32a1.76,1.76,0,0,1,.25-.86l0-.1a.24.24,0,0,0,.06-.11.37.37,0,0,0,0-.11l0-.12L65,6.92a.61.61,0,0,0,.07-.1l.11-.22a.37.37,0,0,0,.05-.11.37.37,0,0,1,0-.11l.07-.11.06-.1L65.48,6a.37.37,0,0,0,0-.11l.06-.1.06-.1a.61.61,0,0,0,.07-.1l.06-.1.06-.1.06-.1.06-.1.06-.1.06-.1.06-.1.06-.09a1.67,1.67,0,0,0,.13-.2.61.61,0,0,0,.07-.1.47.47,0,0,1,0-.1l.07-.09.07-.1a.27.27,0,0,0,.06-.1l.06-.1.05-.08a.15.15,0,0,1,0-.06l0-.05a.32.32,0,0,0,0-.21.25.25,0,0,0-.12-.17.26.26,0,0,0-.21,0,.27.27,0,0,0-.17.11s0,.07-.14.2a.24.24,0,0,1-.06.09l-.08.1a.47.47,0,0,0,0,.1L66,4.06l-.06.09-.07.1-.12.21-.07.1a.31.31,0,0,0-.07.09.61.61,0,0,1-.07.1l-.06.1L65.41,5a.47.47,0,0,1,0,.1l-.06.1a.61.61,0,0,0-.07.1l-.12.21a.37.37,0,0,0,0,.11l-.06.1-.06.1a.61.61,0,0,0-.07.1l-.12.21-.06.12a.47.47,0,0,1,0,.1.37.37,0,0,0,0,.11l-.06.11-.06.11,0,.1-.06.11s0,.08,0,.11a.61.61,0,0,0,0,.12l0,.1a.24.24,0,0,1-.06.11l0,.11v0h0l-.07,0-.15.17-.17.16L63.53,8l-.17.15-.17.15L63,8.43l-.17.15-1.18.94a.62.62,0,0,1-.32.16.13.13,0,0,1-.14-.09.48.48,0,0,1,0-.25A1.65,1.65,0,0,1,61.26,9c0-.12.06-.22.09-.31s.06-.16.08-.21a.37.37,0,0,1,0-.11l0-.12c0-.08.06-.15.08-.22s0-.08,0-.11,0-.08,0-.11a1.12,1.12,0,0,0,.06-.23l0-.13a.37.37,0,0,1,0-.11V7.23s0-.08,0-.11l0-.12a.27.27,0,0,0-.06-.1.44.44,0,0,0-.17-.16.67.67,0,0,0-.21-.09.17.17,0,0,0-.1,0H61l-.14,0-.1,0-.13.07-.1,0a.34.34,0,0,0-.12.06L60.28,7,60.17,7l-.25.23a1.5,1.5,0,0,1-.23.19c-.06,0-.09,0-.1,0a.77.77,0,0,1,.11-.34s0-.08,0-.07,0,0,0-.07a.28.28,0,0,0,0-.22.26.26,0,0,0-.15-.14.35.35,0,0,0-.22,0,.18.18,0,0,0-.08.07.27.27,0,0,0-.06.1.8.8,0,0,0,0,.11l-.06.1a.35.35,0,0,0,0,.12l0,.11a.8.8,0,0,0,0,.11l0,.11a.24.24,0,0,0,0,.11.33.33,0,0,0,0,.06l0,.06-.08.07-.09.1-.08.07L58.5,8l-.09.07-.09.09-.08.08-.09.08a2.19,2.19,0,0,1-.33.23l-.36.24a1,1,0,0,1-.23.12A1,1,0,0,1,57,9a.44.44,0,0,1-.34,0,.23.23,0,0,1-.12-.19.8.8,0,0,1,0-.33,2.75,2.75,0,0,1,.15-.36,1.51,1.51,0,0,1,.15-.28l0,0,0,0,0,0s0,0,0-.07L57,7.58l.17-.2h0a.26.26,0,0,0,.09-.19.29.29,0,0,0-.3-.26.26.26,0,0,0-.19.08l0,0-.1.12a.31.31,0,0,0-.07.09l-.07.09-.06.08-.07.09-.08.12-.06.06,0,0,0,0a.17.17,0,0,1-.06.06l0,0L56,7.9,55.91,8l-.07.08-.07.06-.11.09,0,0,0,0-.05,0,0,0-.09.09,0,0,0,0,0,0,0,0-.1.09,0,0,0,0L55,8.87l-.08.06L54.79,9a.12.12,0,0,0,0,.05l-.05,0-.07.07a.21.21,0,0,0-.08.06l-.11.08,0,0,0,0,0,0,0,0-.1.09-.08.07,0,0-.05,0,0,0,0,0,0,0,0,0-.05,0-.06,0-.07.05-.06,0-.07,0-.08.06-.05,0,0,0,0,0-.06,0-.09.06L53,10.4l0,0,0,0-.1.06,0,0-.06,0-.09.06-.1.07,0,0-.06,0-.05,0a.09.09,0,0,0,0,0l-.05,0-.15.09-.1.06-.1.06-.05,0a.09.09,0,0,0,0,0l-.1.06,0,0-.05,0-.12.06,0,0-.05,0,0,0,0,0-.05,0-.06,0-.1,0,0,0-.05,0-.06,0-.06,0-.12.07-.08,0-.08,0-.06,0-.08,0-.1.06-.11,0-.12.06-.09,0-.08,0-.07,0-.06,0-.09,0-.06,0-.08,0,0,0h-.05l-.11,0-.08,0-.09,0h0l-.07,0-.06,0-.09,0-.13,0-.09,0h-.09l-.14,0h-.22l-.08,0h-.15l-.1,0-.12,0-.06,0h-.06l-.11,0H47.3l-.12,0-.12,0H45.79l-.21,0H45.5l-.15,0-.11,0h-.05l-.06,0h-.07l-.15,0-.06,0-.07,0h0l-.05,0-.11,0h0l-.06,0-.1,0-.11,0-.12,0-.08,0-.1,0-.06,0,0,0a.18.18,0,0,1-.07,0l-.09,0,0,0,0,0,0,0-.07,0-.06,0L43.38,12l-.09-.08,0,0-.08-.05-.07-.06L43,11.69,43,11.62l0,0-.07-.07-.07-.07,0-.05-.1-.11-.12-.18a.43.43,0,0,1,0-.07.41.41,0,0,1,0-.09v0a1.32,1.32,0,0,1-.09-.19.24.24,0,0,1,0-.08l0-.07v0a0,0,0,0,1,0,0v0s0-.11,0-.18a.76.76,0,0,1,0-.21,0,0,0,0,1,0-.05V9.92s0,0,0-.06V9.71l0-.1s0-.07,0-.1a.53.53,0,0,1,0-.11l0-.1,0-.07s0-.05,0-.08a0,0,0,0,0,0,0v0a.93.93,0,0,1,.05-.1l0-.09,0,0a.59.59,0,0,1,0-.08s0,0,0-.08l0,0,0-.06a.23.23,0,0,1,0-.07.37.37,0,0,1,.06-.1.35.35,0,0,1,.06-.09l0,0,0,0L43,8.19l0,0v0l.06-.07L43.16,8l0,0,0,0,.12-.11.07-.06a.23.23,0,0,1,.07-.07l0,0,.08-.07.1-.07.09-.07.09-.07,0,0L44,7.35l.06,0,0,0,0,0,.07,0,.06,0,.08,0,.09,0,0,0,0,0,.06,0,.05,0,0,0,.11-.06.1-.05L45,6.78l0,0,0,0,.09,0h.07l.06,0,.12,0,.1-.05.09,0,.12,0,.11,0,.12,0h0l0,0,.07,0,.07,0,.06,0h0l.12,0a.55.55,0,0,0,.13,0l.09,0h0l.11,0,.11,0h.09l.14,0,.13,0,.1,0,.06,0h.17l.12,0,.12,0h.47l.13,0,.1,0h.47l.15,0h.56a3.34,3.34,0,0,1,.59,0,3.15,3.15,0,0,1,.44.11l.42.16.52.19.12,0,.11,0h0l.08,0,.08,0,.09,0h1.18l.11,0h.06l.13,0,.1,0a.45.45,0,0,0,.23-.13A.77.77,0,0,0,54,6.06a.32.32,0,0,0,0-.14.33.33,0,0,0-.15-.2,1.28,1.28,0,0,0-.29-.15l-.06,0s-.05,0-.08,0l-.11,0-.1,0-.1,0h-.05l-.12,0-.13,0h0l-.1,0-.1,0H51.19a2,2,0,0,1-.51-.07,1.25,1.25,0,0,1-.46-.31l-.08-.09-.07-.08,0,0L50,4.57l0-.06-.05-.07a.35.35,0,0,1,0-.08l0,0,0,0s0,0,0,0a.49.49,0,0,1-.08-.12h0A.76.76,0,0,1,49.57,4a.08.08,0,0,1,0-.05l0-.07s0,0,0-.08v0l0-.09s0-.06,0-.09a.34.34,0,0,1,0-.1.34.34,0,0,1,0-.1.67.67,0,0,1,0-.2.34.34,0,0,1,0-.1.34.34,0,0,1,0-.1.06.06,0,0,0,0,0s0-.06,0-.08a.64.64,0,0,1,0-.07.26.26,0,0,1,0-.09l0-.1a.35.35,0,0,1,.05-.08l.06-.09.07-.09.07-.07.06-.05L50,2.13l0,0L50.07,2,50.16,2l.07,0,.07,0,.05,0,.09-.06s0,0,.06,0,0,0,0,0a.15.15,0,0,1,.07,0l.06,0,0,0,0,0,.05,0,0,0,.1-.06.1,0,.06,0,.06,0,.11,0,.11,0,.11,0,.1,0,.07,0,0,0,.06,0,0,0A.58.58,0,0,0,52,1.13l.07,0h.1l.12,0,.12,0,.11,0,.07,0,.16,0h.1l.07,0H53l.12,0,.06,0h.13l.08,0h.15l.08,0h.07l.24,0,.12,0,.11,0h3.65l.07,0h.89l.12,0,.12,0h.35l.1,0,.13,0,.07,0h.06l.1,0h.06l.07,0,.1,0,.13,0,.1,0,.11,0,.11,0,.12,0,.09,0,.08,0,.07,0h0l0,.06-.07.12s0,0,0,0l0,0,0,0,0,0-.06.06,0,.06,0,0,0,0-.06,0L60.29,2,60.21,2s0,0,0,0l0,0L60,2.18l0,0,0,0a.24.24,0,0,1-.09.06l-.1,0,0,0-.07,0-.07,0-.05,0-.06,0-.09,0,0,0-.05,0,0,0-.06,0L59,2.68h-.06l-.1,0a.35.35,0,0,0-.11,0h-.07l-.07,0-.08,0-.1,0-.12,0-.11,0-.12,0H55l-.12,0-.12,0h-.06l-.07,0-.1,0-.12,0-.12,0h0l-.06,0-.06,0-.06,0-.13,0-.1,0-.15,0h-.08l-.09,0-.07,0-.06,0,0,0-.06,0,0,0-.06,0-.06,0-.06,0,0,0H53l-.06,0,0,0,0,0s0,0,0,0a.3.3,0,0,0-.2-.06.3.3,0,0,0-.19.12.25.25,0,0,0-.06.2.31.31,0,0,0,.11.19l.05,0,.07.05.12.07.15.06.09,0,0,0,0,0s0,0,.08,0l.09,0,.08,0,.08,0,.09,0h.06l.18.06.15,0,.1,0,.08,0,.08,0,.08,0,.15,0h.1l.09,0h.08l.08,0,.09,0,.08,0h.08l.1,0h.49l.08,0h2.55l.12,0,.12,0,.16,0,.08,0h.07l.09,0,.08,0,.13,0,.11,0h0l.1,0,.09,0s0,0,.08,0l.07,0,.07,0h0l0,0,.08,0,.08,0,.09-.05.08,0h0s0,0,0,0a.27.27,0,0,0,.1-.06l.11-.07h0l0,0,.08,0,.07-.06.08-.06.05-.06.06,0,0,0,0,0,.07-.06.06-.06.08-.08,0-.07L61,2,61.07,2l.06-.06.06-.08a.36.36,0,0,0,.07-.1l0-.09a.08.08,0,0,1,0,0v0l.07-.13s0-.08,0-.12a.33.33,0,0,0,0-.15A.35.35,0,0,0,61.32,1a.62.62,0,0,0-.19-.12h0l-.1,0L60.88.73l-.1,0-.14,0-.15,0-.09,0-.08,0-.08,0-.08,0L60,.49l-.1,0-.08,0-.16,0-.08,0-.07,0-.08,0-.09,0H59.1L59,.27h-.3l-.09,0h-.09l-.15,0h-.43l-.15,0H54.07l-.15,0h-.1l-.12,0-.12,0h-.39l-.1,0L53,.32H52.9l0,0h-.09l-.07,0h-.08l-.08,0-.09,0h-.07l-.07,0-.07,0-.1,0H52L52,.56l-.09,0-.06,0-.08,0-.09,0-.15.06-.09,0L51.3.79l-.11,0-.12.06L51,.93l-.08,0L50.73,1l-.07,0-.07,0,0,0,0,0-.07,0-.08,0s0,0-.08,0a.18.18,0,0,0-.07.05l-.07,0,0,0s0,0,0,0l0,0-.09.05-.09.06-.11.09-.1.07,0,0-.09.07a.6.6,0,0,0-.08.08,2,2,0,0,0-.18.21,1.43,1.43,0,0,0-.16.24.67.67,0,0,0-.06.12L49,2.55a1.4,1.4,0,0,0-.06.24s0,0,0,0a.77.77,0,0,0,0,.15s0,.08,0,.13a1.31,1.31,0,0,0,0,.28,1.24,1.24,0,0,0,0,.27s0,.09,0,.13l0,.11v0L49,4a.94.94,0,0,0,0,.09.3.3,0,0,0,0,.1,1.58,1.58,0,0,0,.11.23h0a1.71,1.71,0,0,1,.34.45c0,.1,0,.17-.05.22a.76.76,0,0,1-.33.1l-.5.08h-.25l-.14,0h-.44l-.15,0-.12,0-.12,0-.15,0h-.09l-.15,0-.09,0h-.15l-.09,0-.24.06-.08,0-.07,0-.09,0,0,0h0L46,5.8l-.08,0-.08,0,0,0h0l-.09,0-.15,0L45.36,6h0l0,0-.14.06,0,0,0,0-.09,0-.06,0-.09,0-.07,0a.15.15,0,0,0-.07,0l0,0,0,0-.22.11a.19.19,0,0,1-.08,0l-.07,0-.07,0,0,0L44,6.65l-.09,0a.18.18,0,0,0-.07,0l-.08,0,0,0,0,0-.08.06a.18.18,0,0,0-.07,0l0,0-.1.08-.11.08-.1.08-.09.07,0,0L43,7.38l-.08.07-.14.14s0,0,0,0l0,0-.07.08-.06.07a.08.08,0,0,0,0,0,.17.17,0,0,0-.06.06L42.41,8l-.06.08,0,.06s0,0,0,0l0,0,0,0,0,0a.35.35,0,0,0,0,.08l-.06.07-.06.1,0,.09,0,0a.34.34,0,0,0-.06.12l0,.11,0,0,0,.1,0,.1a1.2,1.2,0,0,0-.07.26l0,.12c0,.05,0,.09,0,.14a.37.37,0,0,0,0,.11v.1s0,0,0,.05v.17a.17.17,0,0,0,0,.1c0,.05,0,.1,0,.14a.51.51,0,0,0,0,.13,1.2,1.2,0,0,0,.05.23v0s0,0,0,0v0l0,.1,0,.1a.61.61,0,0,0,.05.12l.06.12v0l.06.1a.27.27,0,0,0,.06.1.75.75,0,0,0,.07.12.61.61,0,0,0,.07.1l.07.07.06.08a.11.11,0,0,1,0,.05l.09.08.08.08v0l.1.09.09.08.09.08.09.06,0,0,.06.05.06,0,.08.06.15.09,0,0,0,0,0,0,.1.05.09,0s0,0,.08,0l.07,0,0,0h0l0,0h0a.48.48,0,0,0,.16.07l.11,0,.12.05.09,0h.07l.09,0,.07,0,.08,0,.08,0,.09,0,.09,0h.15l.08,0h.08l.09,0h.16l.12,0h2.09l.08,0h.25l.07,0h.15l.08,0,.09,0h.09a.4.4,0,0,0,.15,0l.09,0,.07,0,.08,0h0l0,0,.15,0,.09,0s0,0,.06,0l0,0h0l.06,0,.08,0,.09,0,.14-.06.09,0,.08,0,.15,0,.15-.06h0l0,0,.07,0s0,0,.06,0l0,0,0,0,.11,0,.11-.05.08,0,.14-.05.08,0,.06,0,.07,0,.07,0,.07,0,0,0,0,0,0,0,0,0,.12-.07a.4.4,0,0,0,.13-.07l0,0,0,0,0,0,0,0s0,0,.06,0l.07,0,.06,0,.06,0,.09-.06.1-.06.1-.06.09,0a.18.18,0,0,1,.07-.05l0,0,0,0,0,0,.12-.08a.86.86,0,0,0,.2-.13l.05,0,0,0,.06,0,.06,0,.07,0,.05-.06a.18.18,0,0,1,.07-.05l.08-.06.11-.08.07,0,0,0,0,0,0,0,0,0,0,0a.57.57,0,0,0,.13-.08l.12-.09,0,0,0,0,.06,0a.12.12,0,0,1,.05-.05l0,0,0,0,.11-.1,0,0,0,0,0,0s0,0,0,0l.11-.08.08-.06.05,0L55,9.6l.06,0,.05-.05,0,0,0,0,0,0,0,0,.06,0,.06-.05,0,0,.05-.06,0,0,0,0,.08-.07,0,0,.05,0,.06-.05,0-.05V9a.5.5,0,0,0,0,.12l0,.1,0,.1a.22.22,0,0,0,0,.08.31.31,0,0,0,.07.09.16.16,0,0,0,.08.06l.09.07.09,0,.09.05.15,0h.27l.13,0,.11,0,.11,0,.11,0,.11-.06.11,0,.1-.06.1-.06.1-.07.1-.06L58,9.17A1.56,1.56,0,0,0,58.14,9l.18-.15,0,0h0L58.31,9a.2.2,0,0,0,0,.11.36.36,0,0,0,0,.11.29.29,0,0,0,.16.15l.1,0a.3.3,0,0,0,.16,0l.12-.12L59,9a.73.73,0,0,1,.09-.13l.07-.08.07-.09.08-.07.08-.08.08-.08.07-.08a1.21,1.21,0,0,1,.16-.16l.08-.08.07-.08L59.9,8,60,8l.09-.08.08-.07.09-.09.08-.06.09-.07.08-.07.09-.07.09-.07.2-.1L61,7.21h.2a.21.21,0,0,0,0,.06s0,.08,0,.15a.34.34,0,0,0,0,.1,1,1,0,0,0,0,.12l0,.11s0,.07,0,.11l0,.08L61,8l-.19.45-.11.2-.07.21-.09.2-.08.19,0,.21,0,.22,0,.21.09.19.14.16.16.1.19,0,.2,0,.27-.11.26-.13.2-.13.21-.14.2-.14.19-.15.19-.16.19-.15.17-.15L63.25,9l.18-.15.16-.16.17-.15,0,0v.08a.62.62,0,0,0,0,.13.45.45,0,0,0,0,.11.53.53,0,0,0,0,.13.37.37,0,0,0,0,.11l0,.1a.29.29,0,0,0,0,.09.72.72,0,0,0,.1.18.6.6,0,0,0,.08.08l.07,0a.5.5,0,0,0,.27.08l.2,0,.09,0,.09,0,.09,0,.09,0L65,9.37l.11-.07.1-.08a.73.73,0,0,1,.09-.08l.1-.07.1-.07.09-.08.1-.09.09-.07.06,0s0,.06,0,.1v.12a.38.38,0,0,0,0,.15l0,.13s0,.1,0,.14a.44.44,0,0,0,.08.11.31.31,0,0,0,.11.09l.12,0,.15,0a.75.75,0,0,0,.26,0l.11-.05.12-.08L67,9.4l.12-.08.1-.07.11-.09.09-.08.09-.1a.21.21,0,0,1,.08-.06.08.08,0,0,1,.08,0s0,.05.06.09a1.47,1.47,0,0,1,0,.25.49.49,0,0,1,0,.12l0,.11a.68.68,0,0,0,.11.21l.09.1.12.07a.63.63,0,0,0,.26.05h.06l.23-.06.11,0,.12,0a.27.27,0,0,0,.1-.06l.1-.07a1.56,1.56,0,0,0,.19-.14l.09-.07.1-.08a.6.6,0,0,0,.08-.08l.08-.09.07-.07a.28.28,0,0,0,0,.09.58.58,0,0,0,0,.14.41.41,0,0,0,.07.11.47.47,0,0,0,.12.09l.12,0,.15,0h.13l.13,0,.24-.12a1.37,1.37,0,0,0,.21-.15l.1-.07a.81.81,0,0,1,.1-.09l.13-.08A.39.39,0,0,1,71.35,9a.24.24,0,0,1,.14,0,.51.51,0,0,1,.15.17.31.31,0,0,1,0,.1l0,.08a.27.27,0,0,0,.07.08l.08.06a.31.31,0,0,0,.13.06h.14l.2,0a.45.45,0,0,0,.18-.07l.1,0,.08-.05.1-.06a.41.41,0,0,0,.11-.07l.1-.06.11-.08.09-.07L73.32,9a.14.14,0,0,1,0,.06l0,.11a1.29,1.29,0,0,0-.06.25c0,.05,0,.1,0,.14v.12a.68.68,0,0,0,.07.25.3.3,0,0,0,.06.11l.1.09.08.06.1,0,.09,0,.1,0a.78.78,0,0,0,.22,0h.13l.1,0,.11,0,.11,0a.35.35,0,0,0,.11,0l.1,0,.1-.05A.91.91,0,0,0,75,10l.1-.05.1-.07.08-.06.09-.08.18-.15c.17-.17.28-.27.33-.31s.09-.06.11,0a.49.49,0,0,1,.09.15.52.52,0,0,0,.24.22l.09.06.1,0a.9.9,0,0,0,.31,0l.23,0,.23-.06.22-.09.1,0,.1-.06Zm7,1.35a1.3,1.3,0,0,1-.18.35,3.54,3.54,0,0,0-.26.41l-.06.1-.06.1a.61.61,0,0,1-.07.1l-.06.11L84,12l-.06.1a.41.41,0,0,0-.07.11l0,.1a.31.31,0,0,1-.07.09l-.06.1a.61.61,0,0,0-.07.1.37.37,0,0,1,0,.11.82.82,0,0,0-.12.2s0,0,0,.06l0,0,0,.06-.07.07-.08.08-.09.08-.18.15-.11.07-.12.05-.12,0-.12,0h-.25a.66.66,0,0,1-.25,0l-.12-.05-.11-.06a.52.52,0,0,1-.19-.12,1.08,1.08,0,0,1-.11-.21.78.78,0,0,1,0-.22v-.12s0-.08,0-.11,0-.08,0-.12l0-.11,0-.1a.47.47,0,0,0,0-.1l0-.1a.37.37,0,0,1,0-.11l.06-.1.08-.09.06-.1a.27.27,0,0,1,.06-.1l.08-.07.08-.09a.31.31,0,0,0,.07-.09l.09-.08.08-.07.09-.08.09-.06.1-.08.1-.06.09-.06.1-.05.11-.06.21-.09.11,0,.1-.05.11,0,.12,0,.1,0,.12,0,.11,0,.12,0h.24q.33,0,.42,0A.16.16,0,0,1,84.74,10.73Zm-.21-3,.09-.1.09-.09.09-.08.1-.08.11,0a.43.43,0,0,1,.13,0h.12a.33.33,0,0,1,.21.06.2.2,0,0,1,.09.13.48.48,0,0,1,0,.17.56.56,0,0,1-.09.17l-.16.2c-.06.07-.12.13-.17.2l-.1.09a.43.43,0,0,1-.09.1l-.09.09a.39.39,0,0,1-.08.1l-.09.08-.08.07-.09.08-.08.07a.27.27,0,0,1-.1.06L84.25,9Q84.09,9,84,9a.54.54,0,0,1,0-.23,1.9,1.9,0,0,1,.09-.29l.09-.21a.24.24,0,0,1,.06-.11L84.33,8a.41.41,0,0,1,.07-.11l.06-.1A.61.61,0,0,0,84.53,7.7Zm-16.6-.12-.12.17-.08.1a.44.44,0,0,1-.08.11l-.08.1-.08.1-.09.1-.08.1-.1.09-.09.09L67,8.62,67,8.7l-.09.07-.08.07-.1.08L66.6,9c-.07,0-.12.07-.15,0s0,0,0-.06a.62.62,0,0,1,0-.13.62.62,0,0,0,0-.12.69.69,0,0,0,0-.13s0-.08,0-.11l0-.13s0-.08,0-.11l.06-.11L66.67,8l.07-.11a.61.61,0,0,0,.07-.1l.08-.1L67,7.6l.09-.08.1-.08a.73.73,0,0,1,.2-.14.49.49,0,0,1,.24-.07h0a.31.31,0,0,1,.29.17C68,7.46,68,7.53,67.93,7.58Zm3.67.19a2.36,2.36,0,0,1-.13.2l-.09.09-.09.09-.09.1a.44.44,0,0,1-.08.11l-.1.09-.09.09-.09.08-.08.07-.09.08-.08.06-.1.07a.16.16,0,0,1-.08.06.71.71,0,0,1-.2.1.22.22,0,0,1,0-.1c0-.05,0-.09,0-.13a.49.49,0,0,1,0-.12.62.62,0,0,0,0-.13l0-.12,0-.12,0-.07a.24.24,0,0,0,.06-.08.24.24,0,0,0,.06-.09.84.84,0,0,0,.12-.21s0,0,0,0l0,0a.73.73,0,0,1,.08-.09l.08-.1.1-.09A.73.73,0,0,1,71,7.44l.1-.09a.27.27,0,0,1,.1-.06.49.49,0,0,1,.24-.07h0a.3.3,0,0,1,.26.09.3.3,0,0,1,0,.21A1,1,0,0,1,71.6,7.77ZM92.34,8a.54.54,0,0,0-.08.22c0,.07,0,.14.15.22a.68.68,0,0,1,.12.12l.1.14a.6.6,0,0,1,.06.19,1.28,1.28,0,0,1,0,.19,1.41,1.41,0,0,1,0,.28v0a.94.94,0,0,1,0,.09.31.31,0,0,1,0,.1l0,.09,0,.09s0,0,0,0v0l0,.09a1,1,0,0,1,0,.1v0s0,0,0,0l0,0a.48.48,0,0,1-.06.18l-.06.11-.06.12-.06.08a.43.43,0,0,0,0,.07.21.21,0,0,0,0,.06.18.18,0,0,0,0,.07l0,.06L92,11l0,0,0,0a.49.49,0,0,1-.08.12l-.09.12,0,0,0,0-.05.06,0,.05a.33.33,0,0,0-.06.08l0,0s0,0,0,0l-.09.12-.15.18-.07.08,0,.06,0,.05-.06.06,0,.05-.07.07,0,0-.07.09-.06.06,0,0,0,0-.05.06,0,0-.07.09,0,0,0,.06-.06.05,0,0,0,0,0,0-.06.05,0,.06,0,0,0,0-.07.09,0,.05,0,0a.12.12,0,0,1,0,.05l0,.06-.07,0,0,.05,0,.05,0,0,0,0-.12.12-.06.05a.29.29,0,0,1-.21.08l-.1,0L89,13.87a.28.28,0,0,1-.08-.2.34.34,0,0,1,.09-.19.23.23,0,0,1,0-.05l0,0,0,0,0,0,.07-.08,0-.05.06,0a.13.13,0,0,1,.06-.07l0,0,0-.06,0,0,.05,0a.36.36,0,0,1,.08-.09l.06-.07,0-.05,0,0,0,0,0,0,.08-.09a.28.28,0,0,0,.07-.09l.08-.09.09-.1a.16.16,0,0,1,.07-.07l.06-.08a.23.23,0,0,0,.07-.07l0,0,0,0,0-.05,0,0,0,0,.07-.08,0,0,0-.05.07-.08.08-.09,0-.06,0,0,.07-.08.06-.08.08-.1L91.3,11a.31.31,0,0,0,.08-.1l0,0,0-.05.07-.1a.08.08,0,0,0,0,0l0,0,0-.06,0,0,0,0,0,0,0-.07,0-.06,0-.09.06-.1a.07.07,0,0,0,0-.05l0-.06a.06.06,0,0,0,0,0,.06.06,0,0,1,0,0v0l0,0,0-.08,0-.09,0-.09a.48.48,0,0,0,0-.31A.4.4,0,0,0,91.93,9a.38.38,0,0,0-.26-.1.42.42,0,0,0-.31.08l-.14.09,0,0,0,0,0,0h0L91,9.23l-.09,0,0,0,0,0-.08,0-.08,0-.1,0-.09,0-.06,0-.13,0-.13,0a1,1,0,0,1-.28,0,.47.47,0,0,1-.28,0,.58.58,0,0,1-.14-.12.35.35,0,0,1,0-.34.71.71,0,0,1,.1-.14l.15-.12,0,0h0l0,0,.08-.06.1-.08.1-.05a.24.24,0,0,0,.11-.06h0l.09,0,.08,0,.08,0,.14,0,.11,0,0,0,0,0,.09,0,.09,0,.13,0,.13,0a.85.85,0,0,0,.36-.15,2.91,2.91,0,0,0,.27-.24l0-.05,0,0a0,0,0,0,0,0,0l0,0L92,7.56a.3.3,0,0,0,0-.08.46.46,0,0,0,.06-.26A.32.32,0,0,0,92,7a.18.18,0,0,1-.07,0l-.07,0-.06,0-.11-.05-.13,0h-.07l-.09,0-.09,0h-.07l-.08,0h0l-.1,0-.1,0-.1,0-.09,0,0,0a.4.4,0,0,0-.13.07.69.69,0,0,0-.15.13.6.6,0,0,0-.08.08l-.06.06h0a.41.41,0,0,1-.05.09.22.22,0,0,0,0,.08.22.22,0,0,0,0,.08s0,.07,0,.11a.28.28,0,0,1-.35.16.35.35,0,0,1-.17-.15.28.28,0,0,1,0-.22.61.61,0,0,1,0-.12l.06-.14A.83.83,0,0,0,89.74,7a1,1,0,0,1,.08-.11h0l.09-.11A.52.52,0,0,1,90,6.7a1.86,1.86,0,0,1,.23-.18.71.71,0,0,1,.21-.11l0,0a1.53,1.53,0,0,1,.27-.11l.12,0,.15,0h0l.12,0h.29l.15,0h0l.1,0,.1,0,.1,0,.09,0,0,0h0l.13.07.11.08a.68.68,0,0,1,.12.12.63.63,0,0,1,.1.12l.07.13a.42.42,0,0,1,.06.18.43.43,0,0,1,0,.16,1.11,1.11,0,0,1,0,.17,1.08,1.08,0,0,1-.17.34ZM99,8.21l-.09.08-.09.09a.43.43,0,0,0-.09.1l-.08.08-.1.08-.1.08-.09.08-.09.08L98.2,9,98.11,9l-.18.15-.1.07-.1.06a.41.41,0,0,1-.11.07l-.1,0-.1.06-.1,0-.22.09-.23.06-.23,0a.9.9,0,0,1-.31,0l-.1,0-.09-.06a.52.52,0,0,1-.24-.22.49.49,0,0,0-.09-.15s-.06,0-.11,0-.16.14-.33.31l-.18.15-.09.08L95,9.85l-.1.07-.1.05a.91.91,0,0,1-.19.13l-.1.05-.1,0a.35.35,0,0,1-.11,0l-.11,0-.11,0-.1,0h-.13a.78.78,0,0,1-.22,0l-.1,0-.09,0-.1,0-.08-.06-.1-.09a.3.3,0,0,1-.06-.11.68.68,0,0,1-.07-.25V9.56s0-.09,0-.14a1.29,1.29,0,0,1,.06-.25l0-.11,0-.1s0-.07,0-.11a.47.47,0,0,0,.05-.1l.09-.21a.47.47,0,0,1,.05-.1l.06-.11,0-.1.06-.1,0-.1.06-.1.12-.18.06-.1a.47.47,0,0,0,.05-.1L94,7.46l.07-.08.06-.09a.37.37,0,0,0,.06-.1.61.61,0,0,0,.07-.1.41.41,0,0,0,0-.09l.13-.18a.23.23,0,0,1,.19-.1.26.26,0,0,1,.2,0A.27.27,0,0,1,95,7a.24.24,0,0,1,0,.21l-.05,0,0,.06,0,.09-.07.1a.61.61,0,0,1-.07.1.41.41,0,0,0-.07.11.61.61,0,0,1-.07.1.41.41,0,0,0-.07.11l-.07.1-.06.1-.06.12-.08.1-.06.11a2.15,2.15,0,0,0-.37.92c0,.19.08.29.23.31a1.15,1.15,0,0,0,.62-.22,3.93,3.93,0,0,0,.8-.63l.08-.09.09-.09.08-.09.09-.09a.61.61,0,0,0,.07-.1.81.81,0,0,1,.09-.1l.06-.08L96,8.06A.35.35,0,0,1,96,8a.22.22,0,0,0,0-.08l.06-.11a.61.61,0,0,0,.07-.1l.12-.18.07-.09.06-.09.07-.08.07-.08.09-.12,0,0a.18.18,0,0,1,.1-.06.38.38,0,0,1,.1,0,.28.28,0,0,1,.2.08.26.26,0,0,1,.09.19.27.27,0,0,1-.07.2h0l0,.05s0,0-.05.06L97,7.58l-.08.1-.09.11-.07.11-.08.1a.75.75,0,0,0-.07.12l-.06.1a.75.75,0,0,1-.07.12l0,.11a.5.5,0,0,0-.05.13l0,.11a.55.55,0,0,0,0,.22.28.28,0,0,0,.09.17.34.34,0,0,0,.17.08.42.42,0,0,0,.22,0,1,1,0,0,0,.27-.1L97.2,9l.12-.07.1-.06.11-.08.1-.08.1-.08.1-.08.1-.08L98,8.38l.09-.08.09-.09.09-.07.09-.08L98.47,8l.09-.08.08-.07,0,0s0,0,0,0a2.39,2.39,0,0,1,.13-.21.35.35,0,0,0,.06-.14.09.09,0,0,0,0-.07l-.07-.06a.23.23,0,0,1,0-.14.31.31,0,0,1,.06-.19.32.32,0,0,1,.2-.1.3.3,0,0,0,.24-.07,1,1,0,0,0,.16-.23s0-.07,0-.11l0-.11,0-.1,0-.1a.56.56,0,0,0,0-.12s0-.08,0-.11a.32.32,0,0,1,.14-.16.28.28,0,0,1,.22,0,.23.23,0,0,1,.15.14.26.26,0,0,1,0,.2s0,.08,0,.12l0,.12,0,.11,0,.12a.35.35,0,0,1,0,.08s0,.05,0,.07,0,0,.08.06l.24,0h.26l.16,0,.09,0,0,0a.2.2,0,0,1,.06.11.25.25,0,0,1,0,.19s0,.09-.06.17l0,.08a.31.31,0,0,0,0,.1.41.41,0,0,1,0,.09l0,.1a.41.41,0,0,1-.05.09,1,1,0,0,0,0,.1.24.24,0,0,1-.06.09.19.19,0,0,0,0,.09.41.41,0,0,1,0,.09l0,.09c0,.08-.07.16-.1.25a.93.93,0,0,0-.05.24.12.12,0,0,0,.09.13.49.49,0,0,0,.32-.09l.1,0,.11-.06.1-.05.1-.07.09-.06.1-.06.09-.06.1-.08.1-.07.1-.08a1.1,1.1,0,0,0,.21-.14l.1-.08.1-.08a.41.41,0,0,1,.1-.09l.1-.08.08-.07.06,0,0,0a.26.26,0,0,1,.2-.07.23.23,0,0,1,.19.1.24.24,0,0,1,.06.09.2.2,0,0,1,0,.11.39.39,0,0,1-.1.19l-.17.13-.09.07-.09.07a.6.6,0,0,1-.08.08l-.09.07-.08.07-.09.07L102,8.6l-.09.06-.09.08-.09.06-.1.07-.1.05-.1.08-.1.06a.82.82,0,0,1-.2.12l-.12.06-.1,0-.11.06-.1,0-.12,0-.11,0-.13,0h-.11a1,1,0,0,1-.28-.05.7.7,0,0,1-.18-.14.45.45,0,0,1-.11-.19.48.48,0,0,1,0-.22V8.77a.52.52,0,0,1,0-.11,1.77,1.77,0,0,1,.12-.29c.07-.16.14-.31.2-.47a1.79,1.79,0,0,0,.13-.42c0-.12,0-.18-.12-.17h-.2l-.12,0a.41.41,0,0,0-.1.09s-.08.1-.13.18,0,0,0,.06a.34.34,0,0,1-.08.2,1,1,0,0,0-.17.18l-.09.08Zm5.61-5.63a.7.7,0,0,1,0-.41.63.63,0,0,1,.25-.32,1.72,1.72,0,0,1,.25-.14l.06,0,.08,0,.09,0,.14-.05.1,0,0,0,0,0,.14-.06.09,0,.07,0,.07,0,.07,0,.08,0,.08,0,.07,0h.12l0,0,.06,0,.07,0,.1,0,.1,0,.06,0L107,1l.1,0,.06,0,.07,0,.09,0,.07,0,.08,0h.06l.07,0,.1,0h.05l0,0,.07,0,.06,0,.07,0h.24l.07,0,.1,0,.1,0,.06,0,.07,0,.1,0a.62.62,0,0,1,.14,0l.07,0h.16l.11,0,.13,0,.15,0h.09l.09,0,.15,0,.15,0h.18l.15,0,.09,0,.15,0,.09,0,.15,0h.48l.1,0h2.94l.07,0,.09,0h.09l.07,0h.09l.18.06H115l0,0h0a.69.69,0,0,1,.17,0l.09,0,.08,0,.07,0,.07,0,.08,0,.09,0,.09.06.08.06,0,0,.13.11a.4.4,0,0,1,.12.16.81.81,0,0,1,.1.3,1.36,1.36,0,0,1,0,.29.17.17,0,0,1,0,.1.31.31,0,0,1,0,.09v0a.06.06,0,0,0,0,0v.06a.34.34,0,0,1,0,.1.34.34,0,0,1,0,.1s0,.06,0,.07v.09s0,.06,0,.09,0,.06,0,.09l0,.07,0,.08a.07.07,0,0,0,0,.05.06.06,0,0,1,0,0,.64.64,0,0,1,0,.07.28.28,0,0,1,0,.09l0,.08a.64.64,0,0,0,0,.07.16.16,0,0,0,0,.08s0,0,0,0v.05a.15.15,0,0,0,0,.07l0,.09,0,.1a.94.94,0,0,0,0,.09v0l-.06.14,0,0a.06.06,0,0,1,0,0l0,.1a1.3,1.3,0,0,1-.05.14l0,.07,0,.09,0,.06a.55.55,0,0,1-.05.13l0,.06,0,0,0,.1,0,.1v0a.39.39,0,0,1,0,.09.64.64,0,0,1,0,.07l0,.07a.39.39,0,0,1,0,.09.55.55,0,0,1,0,.13.69.69,0,0,1-.06.13.08.08,0,0,0,0,0l0,0-.06.14,0,0s0,0,0,0a.69.69,0,0,1-.06.13.44.44,0,0,0,0,.09s0,0,0,0,0,0,0,.05l0,.06,0,.07a.69.69,0,0,1-.06.13.44.44,0,0,0,0,.09.19.19,0,0,0,0,.08c0,.1-.08.19-.13.29s-.07.17-.09.23a.28.28,0,0,0,0,.17s.08.07.17.08h1.58a.53.53,0,0,0,.25-.07.29.29,0,0,0,.14-.13,1.14,1.14,0,0,0,.09-.16,1.07,1.07,0,0,1,.07-.19s0,0,0,0,0,0,0-.05,0,0,0-.06a0,0,0,0,1,0,0l0-.06,0-.08a.16.16,0,0,1,0-.06l0,0a.06.06,0,0,0,0,0A.16.16,0,0,0,117,6l0-.08,0,0,0-.09,0-.06s0,0,0,0a.87.87,0,0,0,.05-.12l.06-.12a.06.06,0,0,0,0,0,.16.16,0,0,0,0-.06.31.31,0,0,0,0-.1l0-.12a.31.31,0,0,0,0-.1s0,0,0,0a.24.24,0,0,0,0-.07l0-.08s0,0,0-.06l0-.08a.38.38,0,0,1,0-.11.53.53,0,0,0,0-.11l0-.08a.15.15,0,0,1,0-.06l0,0v0a.16.16,0,0,1,0-.06.06.06,0,0,1,0,0s0,0,0,0l0-.08a.25.25,0,0,1,.15-.15.24.24,0,0,1,.22,0,.31.31,0,0,1,.15.15.28.28,0,0,1,0,.22.16.16,0,0,1,0,.06.06.06,0,0,1,0,0s0,0,0,0l0,.07a1,1,0,0,1,0,.1l0,.05,0,0v0a.24.24,0,0,1,0,.07s0,0,0,0,0,0,0,0a.16.16,0,0,0,0,.06s0,.05,0,.05,0,0,0,0,0,0,0,.06l0,.08a.16.16,0,0,1,0,.06.06.06,0,0,1,0,0s0,0,0,.05a.16.16,0,0,0,0,.06.24.24,0,0,1,0,.07.06.06,0,0,1,0,0,.38.38,0,0,0,0,.11.2.2,0,0,1,0,.08s0,0,0,0l0,.09a.43.43,0,0,1,0,.1l0,.12-.06.12s0,0,0,0l0,.06,0,.06,0,0s0,0,0,0l0,.06,0,.09a.48.48,0,0,1,0,.14.24.24,0,0,1,0,.07l0,0s0,0,0,0l0,.06a.51.51,0,0,0-.07.15s0,.07.13.07h.13a.27.27,0,0,1,.19.08.24.24,0,0,1,.08.2.28.28,0,0,1-.08.2.32.32,0,0,1-.2.08h-.24a.37.37,0,0,0-.25.07.49.49,0,0,0-.14.18,2.6,2.6,0,0,0-.1.25,2,2,0,0,1-.1.26.81.81,0,0,1-.06.13l0,.08a.43.43,0,0,0,0,.1s0,0,0,.05l0,.08,0,.07,0,0a.28.28,0,0,0,0,.11l0,.08,0,0,0,.09,0,0a.06.06,0,0,1,0,0s0,0,0,0l0,.08a.61.61,0,0,1-.07.13l0,0,0,.05,0,.06s0,0,0,0,0,0,0,0l0,.08a.41.41,0,0,1-.1.13.53.53,0,0,1-.16,0l-.11,0a.28.28,0,0,1-.15-.15.28.28,0,0,1,0-.22s0-.07,0-.11l0,0a.24.24,0,0,0,0-.07l0-.08,0,0a0,0,0,0,0,0,0,.33.33,0,0,0,0-.06.27.27,0,0,0,0-.08l0-.06,0-.08a.24.24,0,0,1,0-.07l0,0a.06.06,0,0,0,0,0,.16.16,0,0,0,0-.06.16.16,0,0,1,0-.06l0-.05s0,0,0,0l0-.06,0-.06a.06.06,0,0,1,0,0s0,0,0-.05l0-.08,0-.08,0,0,0-.09s0,0,0-.06a0,0,0,0,1,0,0,.34.34,0,0,1,.05-.11.66.66,0,0,0,.07-.15.22.22,0,0,0,0-.14s0-.05-.1-.05H115a.47.47,0,0,1-.17,0h-.31l-.35,0a.75.75,0,0,0-.18.08.44.44,0,0,0-.12.15,2.06,2.06,0,0,1-.15.24.43.43,0,0,1,0,.07l0,.06,0,0,0,0,0,.06,0,.05,0,.1a.19.19,0,0,0,0,.09l-.07.12s0,0,0,0l0,.06-.06.11a.43.43,0,0,1,0,.07l0,0-.06.09,0,.06,0,.05,0,0,0,0a.08.08,0,0,0,0,0l0,0,0,.06,0,.07a.44.44,0,0,1,0,.09l-.06.12-.08.11-.06.09s0,0,0,0,0,0,0,0,0,0,0,.06a.21.21,0,0,0,0,.06l-.06.09-.07.12a.49.49,0,0,1-.08.12l0,0,0,0-.07.11-.06.09a.44.44,0,0,1,0,.09l-.07.12s0,0,0,0,0,0,0,0a.18.18,0,0,1,0,.07.43.43,0,0,0,0,.07s0,0,0,0l0,0a.57.57,0,0,0-.08.13l-.06.09-.07.12a.21.21,0,0,1,0,.06l0,0a.24.24,0,0,0-.06.09l-.06.09-.07.12a.61.61,0,0,1-.07.1l-.06.1,0,.05,0,.06-.06.08s0,0,0,.06l0,.05,0,.06,0,0,0,.05,0,0a.35.35,0,0,1-.06.09l0,.05a.08.08,0,0,1,0,0,.49.49,0,0,1-.08.12.25.25,0,0,1-.23.13.3.3,0,0,1-.15-.05.27.27,0,0,1-.12-.18.23.23,0,0,1,0-.21l0,0,0,0,.07-.12,0-.05,0-.06,0,0,0-.05a.37.37,0,0,1,.06-.1l.07-.1,0-.06,0,0,.06-.09.06-.1a.61.61,0,0,0,.07-.1l.06-.09.06-.11,0-.06,0,0,.06-.09a.37.37,0,0,0,.06-.1l.06-.11a.51.51,0,0,0,.08-.13l0,0,0,0a.43.43,0,0,1,0-.07l0-.06a.08.08,0,0,0,0,0l0,0,0,0a.08.08,0,0,1,0-.05.72.72,0,0,1,.07-.11.49.49,0,0,1,.07-.11l.06-.09a.43.43,0,0,1,0-.07l0,0,0-.08L112,10l.06-.09,0,0,0-.05.06-.12,0-.06,0-.05a.44.44,0,0,0,.05-.09.37.37,0,0,0,.06-.1l.06-.11a.08.08,0,0,0,0-.05l0,0,.07-.12,0,0,0-.06a.37.37,0,0,0,.06-.1l0-.06,0-.05a.44.44,0,0,0,0-.09.37.37,0,0,0,.06-.1l0,0,0-.06a.44.44,0,0,1,0-.09l.06-.12a.08.08,0,0,0,0,0l0-.05.07-.11,0-.06,0-.06a.5.5,0,0,0,.09-.18c0-.06,0-.09-.17-.09h-2.6l-.11,0h-.46l-.13,0h-.34l-.12,0h-.09l-.14,0H109l-.07,0-.09,0-.08,0h-.22l-.07,0h-.08l-.06,0,0,0-.1,0-.1,0-.11,0-.1,0-.09.05-.07,0-.06,0,0,0a.32.32,0,0,1-.17.06.3.3,0,0,1-.23-.11.25.25,0,0,1-.06-.2.26.26,0,0,1,.12-.19.24.24,0,0,1,.09-.06l.1-.06h.05l.11-.06.13-.06.24-.09,0,0h0l.07,0,.09,0,.08,0,.08,0h.15l.09,0,.09,0,.08,0,.07,0,.08,0,.08,0h.17l.09,0,.14,0h.25l.09,0,.14,0h.34l.14,0h1.06l.15,0h1.78A.26.26,0,0,0,113.6,7a.54.54,0,0,0,.15-.15,1.51,1.51,0,0,0,.12-.2l.09-.2a.47.47,0,0,1,.05-.1l0-.06,0,0,0,0,0-.05,0,0s0,0,0-.06a.61.61,0,0,1,0-.12.09.09,0,0,1,0-.06s0,0,0-.06a.08.08,0,0,0,0,0l0,0s0,0,0,0,0,0,0,0a.14.14,0,0,0,0-.06l0-.06,0-.06s0,0,0-.06,0,0,0,0l0,0a.39.39,0,0,0,0-.09l0-.06a.43.43,0,0,1,0-.07s0,0,0-.06l0,0,0,0,0-.05s0,0,0-.06,0,0,0,0a.14.14,0,0,0,0-.06l0-.06,0,0,0-.06s0,0,0-.06l0-.06,0,0,0-.1,0-.1a.22.22,0,0,1,0-.11s0,0,0-.05,0,0,0,0l0-.07.06-.15a.36.36,0,0,1,0-.11l0-.12a.69.69,0,0,1,.06-.13l0,0s0,0,0,0v0l0-.1a.25.25,0,0,0,0-.09.06.06,0,0,0,0,0,.11.11,0,0,1,0-.05.39.39,0,0,1,0-.14.55.55,0,0,1,.05-.13l0-.09a.07.07,0,0,0,0,0,.11.11,0,0,1,0-.05.74.74,0,0,1,0-.12c0-.07,0-.15,0-.22a.86.86,0,0,1,.06-.23c0-.11,0-.23,0-.35a1.14,1.14,0,0,0-.07-.32,1,1,0,0,0-.17-.27.75.75,0,0,0-.33-.18l0,0,0,0-.12,0-.09,0h-.07l-.08,0-.07,0h-.39l-.06,0h-2.61l-.1,0h-.09l-.08,0h-.39l-.1,0-.07,0h-.77l-.09,0a.39.39,0,0,1-.14,0h-.23l-.13,0-.11,0h-.06l-.05,0H109l-.1,0-.06,0-.07,0-.11,0-.12,0-.12,0-.11,0-.12,0-.11,0-.06,0-.06,0-.11,0-.12,0-.11,0-.07,0-.07,0-.09,0-.12,0-.11,0-.1,0-.12,0-.13,0-.1,0-.07,0-.06,0h0l-.05,0-.15.05-.07,0-.06,0-.06,0-.05,0,0,0a1.35,1.35,0,0,0-.42.2.59.59,0,0,0-.25.3.43.43,0,0,0,.05.36,1.05,1.05,0,0,0,.46.34l0,0,0,0,.15.09.18.09h0l.06,0a.09.09,0,0,1,.05,0l.06,0,0,0,0,0,.06,0,0,0,.06,0h0a.32.32,0,0,0,.09,0l.09,0,.07,0,.09,0h.06a.35.35,0,0,0,.11,0l.12,0,.1,0,.06,0,.07,0,.11,0,.12,0H108l.12,0h2.19l.12,0h.23l.15,0h.07l.15,0h.08l.08,0,.14,0,.11,0,.11,0,.14,0,.08,0a.39.39,0,0,0,.14-.05H112l.14-.06.07,0a.48.48,0,0,0,.16-.07l.05,0,.06,0,0,0,0,0,.06,0a.39.39,0,0,1,.21,0,.29.29,0,0,1,.17.14.31.31,0,0,1,0,.21.24.24,0,0,1-.13.17.61.61,0,0,1-.14.07h0l-.05,0,0,0-.09,0-.09,0-.06,0-.08,0-.09,0-.07,0-.08,0-.09,0-.07,0a.58.58,0,0,1-.16.05l-.15,0h-.09l-.09,0-.07,0h-.15l-.17,0h-.07l-.09,0h-.08l-.15,0h-.1l-.24,0h-.09l-.15,0h-2l-.12,0-.13,0-.13,0-.12,0h0l-.16,0h-.09l-.13,0a.35.35,0,0,1-.11,0l-.07,0-.09,0-.09,0-.1,0-.1,0,0,0-.09,0-.08,0-.08,0-.09,0-.06,0-.08,0h0l-.1-.06-.11,0-.09-.06-.08,0h0l0,0,0,0,0,0-.16-.09-.1-.09a.28.28,0,0,0-.1-.09l-.11-.1L105,3.12v0l-.09-.1a1,1,0,0,0-.08-.11l-.09-.16A.66.66,0,0,1,104.64,2.58Zm13.6,5.26,0,0,0,.11-.06.12s0,.07,0,.11a1.12,1.12,0,0,1,0,.13.94.94,0,0,1,0,.09.25.25,0,0,1,0,.09.06.06,0,0,0,0,0,.06.06,0,0,1,0,0l0,.07s0,.05,0,.09,0,.06,0,.09a.76.76,0,0,0,0,.15v.13h0v.14l0,.16a.83.83,0,0,0,.18.32.69.69,0,0,0,.32.19l.15,0h.33a.46.46,0,0,0,.19,0l.14-.06.11-.08,0,0,.12-.09.11-.1.05-.05.07-.08.08-.08.12-.17a.15.15,0,0,1,0-.06l.14-.23a.83.83,0,0,1,.14-.13l.17-.08.25-.06.29-.06a1.83,1.83,0,0,0,.26-.11h0a.64.64,0,0,1,0,.07.51.51,0,0,1,0,.13c0,.05,0,.09,0,.14a.49.49,0,0,0,0,.12.53.53,0,0,0,0,.13s0,.09,0,.14l0,.13,0,.12a.9.9,0,0,0,.12.24,1.29,1.29,0,0,0,.15.17.53.53,0,0,0,.2.11.6.6,0,0,0,.21.08h.45l.1,0,.12,0,.1,0,.11,0,.21-.09.1-.06.1,0,.1-.06a.41.41,0,0,0,.11-.07l.1-.07.1-.08.1-.07.1-.08.1-.07.1-.07.19-.16.09-.09s0,0,.08-.06,0,.09,0,.13a.49.49,0,0,0,0,.12.57.57,0,0,0,.08.24,1,1,0,0,0,.08.11l.12.09a.54.54,0,0,0,.27.07.6.6,0,0,0,.24-.06l.1,0,.11-.07.1-.06.1-.07.1-.06.1-.08.1-.06L126,9l.09-.08a.32.32,0,0,1,.09-.08l.48-.26a.58.58,0,0,1,.23-.06s0,0,0,.1l-.09.23c0,.09-.08.2-.12.32a1.77,1.77,0,0,0-.08.4s0,.08,0,.12,0,.08,0,.11a.59.59,0,0,0,0,.23.35.35,0,0,0,.07.21l.07.09.09.06a.41.41,0,0,0,.21,0h.11l.13,0,.1,0,.12-.05.1-.05.12,0,.1-.06.1-.06.1-.06a.27.27,0,0,0,.1-.06l.1-.06.11-.08.09-.08.1-.08.1-.07.1-.07.09-.08.09-.09.1-.08.1-.07.09-.08.09-.09.09-.08.09-.08.09-.08.08-.08.09-.08.1-.08.09-.08.08-.08.09-.08.09-.09.08-.09.08-.08.09-.09.08-.08.14-.15h0a.29.29,0,0,0,.14-.15s0-.08,0-.11a.22.22,0,0,1,.05-.08.22.22,0,0,1,0-.08l.05-.09h0l.06-.06.08-.08a.69.69,0,0,1,.15-.13.4.4,0,0,1,.13-.07l0,0,.09,0,.1,0,.1,0,.1,0h0l.08,0H132l.09,0,.09,0h.07l.13,0,.11.05.06,0,.07,0a.18.18,0,0,0,.07,0,.32.32,0,0,1,.13.23.57.57,0,0,1-.06.26.3.3,0,0,1,0,.08s0,.05-.06.09,0,0,0,0a0,0,0,0,1,0,0l0,0,0,.05a2.91,2.91,0,0,1-.27.24.85.85,0,0,1-.36.15l-.13,0-.13,0s-.07,0-.09,0l-.09,0,0,0,0,0-.11,0-.14,0-.08,0s-.06,0-.08,0l-.09,0h0a.24.24,0,0,1-.11.06l-.1.05-.1.08-.08.06,0,0h0l0,0-.15.12a.45.45,0,0,0-.1.14.32.32,0,0,0,0,.34.58.58,0,0,0,.14.12.47.47,0,0,0,.28,0,1,1,0,0,0,.28,0l.13,0,.13,0,.06,0,.09,0,.1,0,.08,0,.08,0,0,0,0,0,.09,0,.08-.05h0l0,0,0,0,0,0L132,9a.42.42,0,0,1,.31-.08.38.38,0,0,1,.26.1.46.46,0,0,1,.13.25.48.48,0,0,1,0,.31l0,.09,0,.09s0,.05,0,.08l0,0v0a.06.06,0,0,0,0,0v0l0,.06a.43.43,0,0,1,0,.05l-.06.1-.05.09a.21.21,0,0,0,0,.06l0,.07s0,0,0,0l0,0,0,0,0,.06,0,0a.08.08,0,0,1,0,0l-.07.1a.09.09,0,0,0,0,.05l0,0a.58.58,0,0,1-.08.1l-.07.09-.08.1a.32.32,0,0,0-.06.08l-.07.08,0,0,0,.06a.32.32,0,0,0-.08.09l-.07.08,0,.05,0,0-.07.08,0,0,0,0,0,.05-.05,0,0,0a.23.23,0,0,1-.07.07l-.06.08a.16.16,0,0,0-.07.07l-.09.1-.08.09-.07.09-.08.09,0,0,0,0a.12.12,0,0,1,0,0l-.05.05-.06.07a.36.36,0,0,0-.08.09l-.05,0,0,0-.05.06,0,0a.13.13,0,0,0-.06.07l-.06,0,0,.05-.07.08,0,0,0,0,0,0a.12.12,0,0,0-.05.05.34.34,0,0,0-.09.19.28.28,0,0,0,.08.2l.09.07.1,0a.29.29,0,0,0,.21-.08.22.22,0,0,1,.06-.05l.12-.12,0,0,0,0,0-.05,0-.05.07,0,0-.06a.12.12,0,0,0,.05-.05l0,0,.05-.05.07-.09,0,0,0,0,0-.06L131,13l0,0,0,0,0,0,.06-.05,0-.06,0,0,.07-.09,0,0,.05-.06,0,0,0,0,.06-.06.07-.09,0,0,.07-.07a.12.12,0,0,1,0-.05l.06-.06,0-.05,0-.06.07-.08.15-.18.09-.12,0,0,0,0s0-.05.06-.08l0-.05.05-.06,0,0,0,0,.09-.12a.49.49,0,0,0,.08-.12l0,0,0,0,.06-.07,0-.06a.18.18,0,0,1,0-.07s0,0,0-.06a.43.43,0,0,1,0-.07l.06-.08.06-.12.06-.11a.76.76,0,0,0,.06-.18l0,0v-.06a.69.69,0,0,1,0-.1.63.63,0,0,1,0-.09v0s0,0,0,0l0-.09a.36.36,0,0,1,0-.09.31.31,0,0,0,0-.1.47.47,0,0,1,0-.09v0a1.41,1.41,0,0,0,0-.28,1.28,1.28,0,0,0,0-.19.6.6,0,0,0-.06-.19l-.1-.14-.12-.12c-.1-.08-.15-.15-.15-.22A.54.54,0,0,1,133,8l.18-.25a1.08,1.08,0,0,0,.17-.34,1.11,1.11,0,0,0,0-.17.43.43,0,0,0,0-.16.63.63,0,0,0-.06-.18l-.07-.13-.1-.12a.68.68,0,0,0-.12-.12l-.11-.08-.13-.07h0l0,0-.09,0-.1,0-.1,0-.1,0h0l-.15,0h-.29l-.12,0h0l-.15,0-.12,0a1.53,1.53,0,0,0-.27.11l0,0a.71.71,0,0,0-.21.11,1.86,1.86,0,0,0-.23.18.35.35,0,0,0-.1.11l-.09.11h0a1,1,0,0,0-.08.11.83.83,0,0,1-.08.12l-.06.14,0,0a.1.1,0,0,0,0,0l-.05,0a.58.58,0,0,1-.11.13.27.27,0,0,1-.08.07l-.09.09-.08.08-.09.08-.08.09-.08.08-.08.08-.08.09-.09.08-.09.08-.09.07L129,8.5l-.09.07-.09.08-.09.08-.09.08L128.5,9l-.09.08-.09.07-.1.08-.09.06-.1.08-.09.07-.1.08-.1,0-.16.07a.49.49,0,0,1-.18.05.11.11,0,0,1-.12-.06c0-.05,0-.15,0-.31a1.12,1.12,0,0,0,.05-.13l.06-.13a.61.61,0,0,1,0-.12l.07-.13s0-.07,0-.11,0-.08,0-.11l.06-.11,0-.11.05-.12,0-.11a.66.66,0,0,0,0-.23.23.23,0,0,0,0-.12s0-.08,0-.11a.86.86,0,0,0-.15-.17.48.48,0,0,0-.21-.09.62.62,0,0,0-.23,0,.4.4,0,0,0-.21.08l-.11.08-.1.08-.21.18a.41.41,0,0,1-.11.07l-.11.08-.18.15-.09.07-.09.07-.09.08a.27.27,0,0,1-.08.07l-.1.07-.09.06-.29.18a.42.42,0,0,1-.22.09c-.06,0-.1,0-.12-.1a1.35,1.35,0,0,1,.06-.42s0-.07,0-.11a.36.36,0,0,0,0-.09.75.75,0,0,0,.09-.09l0-.06a.34.34,0,0,0,.08-.2s0,0,0-.06l0,0,0-.1a.47.47,0,0,0,0-.1l.05-.11,0-.1.09-.21,0-.1.06-.1a.47.47,0,0,1,0-.1l0-.1.06-.1.06-.1,0-.1.06-.1.06-.1a.61.61,0,0,0,.07-.1.37.37,0,0,0,.05-.11l.06-.11a.47.47,0,0,0,.05-.1l.06-.1.06-.1a.61.61,0,0,0,.07-.1l.12-.21a.37.37,0,0,0,0-.11l.06-.1.06-.1a.61.61,0,0,0,.07-.1l.06-.1.06-.1.06-.1.07-.11.06-.1a.27.27,0,0,0,.06-.1.61.61,0,0,0,.07-.1l.06-.1.13-.2a.23.23,0,0,0,0-.21.24.24,0,0,0-.13-.18.2.2,0,0,0-.11,0,.17.17,0,0,0-.1,0,.32.32,0,0,0-.18.12l0,.06,0,.06,0,.08-.06.1-.07.11a.61.61,0,0,1-.07.1.61.61,0,0,1-.07.1l-.06.11a.27.27,0,0,1-.06.1l-.06.11a.27.27,0,0,1-.06.1.61.61,0,0,1-.07.1l-.06.1-.07.11-.06.1-.06.11a.47.47,0,0,1-.05.1.61.61,0,0,1-.07.1l-.06.1-.06.11-.06.11-.12.21-.12.21a.27.27,0,0,1-.06.1l0,.1-.06.11a.37.37,0,0,1,0,.11l0,.1,0,.11a.61.61,0,0,1-.07.1l0,.1,0,.11A.37.37,0,0,1,125,7l-.05.11a.47.47,0,0,1,0,.1.24.24,0,0,1-.06.11l0,.1a.37.37,0,0,1,0,.11s0,.08,0,.11a.61.61,0,0,1,0,.12h0a.1.1,0,0,1,0,0l-.09.09-.09.09-.08.09-.09.08-.09.08-.09.07L124,8.4l-.09.08-.08.09-.1.07-.1.07-.1.08-.09.08-.1.07-.1.08a.41.41,0,0,1-.11.07l-.1.06a.24.24,0,0,1-.11.06l-.11.06-.11.06a.27.27,0,0,1-.1.06l-.12,0-.12,0-.13,0-.11,0a.18.18,0,0,1-.1,0l-.08,0a.3.3,0,0,1-.15-.11.57.57,0,0,1-.07-.24.51.51,0,0,1,0-.13V8.87a1.09,1.09,0,0,1,0-.26,1.38,1.38,0,0,1,.07-.26l0-.1a.47.47,0,0,0,0-.1l.06-.09L122,8l.06-.09.07-.09a.6.6,0,0,0,.08-.08l.08-.07.08-.09a.24.24,0,0,1,.09-.06c.14-.06.22-.06.25,0a.25.25,0,0,1,0,.21,1.09,1.09,0,0,1-.11.27,1,1,0,0,1-.07.16.24.24,0,0,0,0,.2.27.27,0,0,0,.16.14.25.25,0,0,0,.21,0l.1-.07.1-.09a.65.65,0,0,0,.15-.2.37.37,0,0,0,0-.11s0-.08,0-.13a1,1,0,0,0,0-.24.53.53,0,0,0,0-.13.53.53,0,0,0,0-.13.49.49,0,0,0,0-.12l0-.1a.73.73,0,0,0-.1-.2l-.1-.08a.21.21,0,0,0-.08-.06.6.6,0,0,0-.27-.06h-.14l-.13,0-.14,0-.11.08a.08.08,0,0,0,0,0,1,1,0,0,0-.19.14l-.09.07-.09.09-.09.08a.6.6,0,0,0-.08.08l-.09.08-.06.08a.27.27,0,0,0-.17.06l-.08.08-.08.07a.62.62,0,0,1-.17.11h0l0,0h0l-.08.05L121,8l-.1.06a.13.13,0,0,1-.08,0,.67.67,0,0,1-.27-.06.16.16,0,0,1-.06-.13.84.84,0,0,1,0-.2,1.1,1.1,0,0,0,.06-.26.57.57,0,0,0-.12-.41.78.78,0,0,0-.3-.22l-.27-.06h-.08l-.12,0h-.13a1.14,1.14,0,0,0-.33.08,1.57,1.57,0,0,0-.27.18l-.11.1-.1.1-.1.12-.09.1-.07.09-.06.1,0,0s0,0,0,0a0,0,0,0,1,0,0l-.06.1A.26.26,0,0,0,118.24,7.84Zm.21,1.28h0V8.92a.53.53,0,0,0,0-.11l0-.09a.51.51,0,0,1,0-.09.13.13,0,0,0,0-.06.14.14,0,0,1,0-.06l0-.11,0-.09a1,1,0,0,0,0-.1.26.26,0,0,0,0-.09v0a.51.51,0,0,1,.09-.14l0-.06,0,0,.05-.08a.35.35,0,0,0,0-.08l.07-.08.08-.09h0l.08-.09.07-.07a.46.46,0,0,1,.1-.07l.06,0a.54.54,0,0,1,.22,0,.52.52,0,0,1,.2.06.18.18,0,0,1,.1.13.25.25,0,0,1-.1.21l0,0h-.13a.27.27,0,0,0-.22.27.43.43,0,0,0,0,.24l.07.16a.29.29,0,0,1,0,.19.79.79,0,0,1-.11.3l0,0,0,0a.36.36,0,0,1-.08.12l0,.05,0,.05-.06.06-.08.06a.27.27,0,0,1-.08.07l0,0-.07,0,0,0-.16,0-.14,0a.19.19,0,0,1-.09,0,.44.44,0,0,1-.05-.09.15.15,0,0,1,0-.07Zm15.16.32a.49.49,0,0,0,0-.12.5.5,0,0,1,0-.12.79.79,0,0,1,.06-.22s0-.07,0-.11a.24.24,0,0,1,.06-.11.31.31,0,0,1,.07-.09l.08-.1.19-.2a.23.23,0,0,0,0-.1.17.17,0,0,0,0-.11.81.81,0,0,1-.08-.2.36.36,0,0,1,0-.11V7.64a.36.36,0,0,1,0-.11l0-.1,0-.1a.93.93,0,0,1,.05-.1l.08-.09a.73.73,0,0,1,.18-.14,1,1,0,0,1,.21-.1l.1,0,.12,0,.22,0,.1,0h.21l.1,0h.2a.25.25,0,0,1,.18.11.31.31,0,0,1,.05.1.12.12,0,0,1,0,.1.39.39,0,0,1-.12.19.28.28,0,0,1-.21,0h-.53l-.14,0-.12,0a.33.33,0,0,0-.21.17c-.05.1-.06.17,0,.2a.37.37,0,0,0,.2,0h.11l.12,0a.21.21,0,0,1,.2,0,.23.23,0,0,1,.14.15.26.26,0,0,1,0,.21.27.27,0,0,1-.16.14l-.2.1-.1.05-.09.06-.1,0-.1.07-.09.06-.08.07-.08.09-.07.09-.06.1,0,.1a.45.45,0,0,0,0,.22.16.16,0,0,0,0,.09l.05.06a.44.44,0,0,0,.17.07.4.4,0,0,0,.18,0,.59.59,0,0,0,.23,0l.1,0,.11-.06.1-.06a.41.41,0,0,0,.11-.07l.1,0,.1-.07.09-.07.1-.08.09-.08.09-.08.09-.08.09-.08.08-.08.09-.08.08-.09.09-.08.09-.09.08-.07.09-.09.08-.09.08-.09.08-.09.09-.09.08-.09.09-.09.08-.08.11-.13s0-.06.05-.06.06,0,.08,0l.07-.08a.31.31,0,0,1,.07-.09.74.74,0,0,0,.09-.12l0,0a.26.26,0,0,1,.19-.08.29.29,0,0,1,.3.26.26.26,0,0,1-.09.19h0l-.17.2-.16.23q-.09.15-.18.33c0,.12-.1.24-.14.36a.83.83,0,0,0-.05.33.23.23,0,0,0,.12.19.47.47,0,0,0,.35,0,1,1,0,0,0,.27-.11,1,1,0,0,0,.23-.12l.35-.24a2.26,2.26,0,0,0,.34-.23l.09-.08.08-.08.09-.09.09-.07.09-.09.08-.07.09-.1.08-.07a.21.21,0,0,0,.06-.08l.05,0,0,0s0,0,0-.08,0-.08,0-.12a.37.37,0,0,0,.05-.11,1.29,1.29,0,0,0,.1-.22.63.63,0,0,0,.06-.25s-.08,0-.23,0,0,0,0,0h0a.25.25,0,0,1-.19-.07.31.31,0,0,1-.09-.19.28.28,0,0,1,.08-.2.34.34,0,0,1,.19-.09l.12,0h.25a.23.23,0,0,0,.12,0,.26.26,0,0,0,.24-.14l.16-.28a.47.47,0,0,0,.05-.1l.06-.11a.47.47,0,0,0,0-.1l.06-.11a.61.61,0,0,0,.07-.1l.06-.1.06-.1a.61.61,0,0,0,.07-.1.27.27,0,0,0,.06-.1.61.61,0,0,1,.07-.1l.12-.21.06-.1a.31.31,0,0,0,.07-.09.24.24,0,0,0,.06-.11l.06-.1a.61.61,0,0,0,.07-.1l.06-.1a.61.61,0,0,0,.07-.1.27.27,0,0,0,.06-.1.41.41,0,0,0,.05-.09l0-.05,0,0a.23.23,0,0,1,.18-.12.24.24,0,0,1,.21.05.23.23,0,0,1,.12.18.33.33,0,0,1-.05.21l-.13.19-.06.09-.07.11-.06.1-.07.09-.07.1-.06.09-.06.1-.06.1a1.67,1.67,0,0,1-.13.2l-.06.1a.27.27,0,0,1-.06.1l-.06.1-.06.1-.06.1a.61.61,0,0,1-.07.1.57.57,0,0,1-.12.18.38.38,0,0,0-.09.16s0,.07.06.09a.68.68,0,0,0,.3,0h.25a.3.3,0,0,1,.21.07.27.27,0,0,1,.08.19.24.24,0,0,1-.05.21.35.35,0,0,1-.2.1h-.5a.26.26,0,0,1-.13,0h-.12a.41.41,0,0,0-.23.06.61.61,0,0,0-.16.16,1,1,0,0,0-.11.21l-.09.22-.05.11,0,.11a.61.61,0,0,1-.05.12s0,.07,0,.11l-.06.12s0,.08,0,.11a5.17,5.17,0,0,0-.18.64c0,.17,0,.27,0,.32s.15,0,.29,0a4.12,4.12,0,0,0,.59-.39l.09-.08.1-.1.08-.07.09-.08.09-.09.08-.08.09-.08a.6.6,0,0,0,.08-.08l.09-.09.08-.07L142,7.6l.05,0,0,0a.26.26,0,0,1,.2-.08.28.28,0,0,1,.21.07.26.26,0,0,1,.07.2.27.27,0,0,1-.07.2l-.05,0a.48.48,0,0,1-.1.12l-.08.08-.09.08-.08.07-.08.08-.08.08-.08.09-.09.08-.08.07-.09.07-.09.07-.09.08-.09.09-.1.07-.1.07-.1.08-.1.07-.1.08a.27.27,0,0,1-.1.06l-.09.05-.09,0-.19.08-.1,0h-.1a.44.44,0,0,1-.27-.09l-.08,0a.27.27,0,0,1-.07-.08.72.72,0,0,1-.1-.18.59.59,0,0,0,0-.08s0-.07,0-.11,0-.07,0-.11a.62.62,0,0,1,0-.13V8.69a.28.28,0,0,0,0-.09l-.05.05-.09.08-.1.07-.1.08-.18.15a1.56,1.56,0,0,1-.19.14l-.1.08-.09.06-.1.07-.1.06-.11.06-.1,0-.12.06-.1,0-.12,0-.1,0-.13,0h-.27l-.15,0-.1-.05-.08,0L137,9.5a.13.13,0,0,1-.07-.06.31.31,0,0,1-.07-.09.22.22,0,0,1-.05-.08l0-.1,0-.1a.5.5,0,0,1,0-.12V8.86l-.14.14-.09.08-.08.08-.18.15-.18.15-.09.08-.08.07-.1.06-.09.07-.1.07-.09.07-.1.06-.1.06-.11.06-.1,0-.11,0-.11,0-.11,0h-.11l-.09,0h-.12l-.11,0-.23-.08L134,10a.27.27,0,0,1-.1-.06l-.08-.08-.06-.07a.66.66,0,0,1-.09-.19l0-.1Zm4.77-3.54a.34.34,0,0,1,0-.1.41.41,0,0,1,0-.21.5.5,0,0,1,.36-.2l.11,0,.1,0a.48.48,0,0,1,.14.15.36.36,0,0,1,.06.2.34.34,0,0,1,0,.1.36.36,0,0,1,0,.11.29.29,0,0,1-.15.14.37.37,0,0,1-.21.06h-.11l-.1,0a.29.29,0,0,1-.14-.15A.36.36,0,0,1,138.38,5.9Z"/></svg>