<?xml version="1.0" encoding="utf-8"?>
<!-- Generator: Adobe Illustrator 22.1.0, SVG Export Plug-In . SVG Version: 6.00 Build 0)  -->
<svg version="1.1" id="Ebene_1" xmlns="http://www.w3.org/2000/svg" xmlns:xlink="http://www.w3.org/1999/xlink" x="0px" y="0px"
	 viewBox="0 0 1366 768" style="enable-background:new 0 0 1366 768;" xml:space="preserve">
<style type="text/css">
	.st0{fill:#F2E9D7;}
</style>
<path class="st0" d="M1.4,411.5c2.2,3.7,5.3,6.8,8.7,9.2c7,5,14.5,9.1,22.9,10.8c8.1,1.7,15.8,4,22.9,8.4c2.3,1.4,4.9,2.3,7.2,3.3
	c0.1,2.6-1.8,2.4-3.1,2.8c-3.6,1-6.9,2.3-9.5,5c-4.4,4.4-3.3,9.1,2.5,11.3c3.4,1.2,6.6,1.1,9.6-0.8c5.9-3.6,12.6-6.2,17.9-10.8
	c2.9-2.5,6.1-3.9,10-3.6c6.5,0.7,12.6-1,18.7-3.2c4.3-1.5,8.8-2.4,13.2-3.4c3.6-0.8,7.2-0.5,10.9-0.3c10.8,0.6,18.1,8.2,26.6,13.1
	c5.9,3.4,8.6,10,11.1,16.3c2.5,6.4,3.5,12.8,2.4,19.6c-0.9,5.7-1.5,11.4-2.4,17.1c-2.1,14.4-4.2,28.8-6.3,43.3
	c-2,14.1-5.3,27.9-10.1,41.4c-0.5-0.3-1.1-0.5-1.3-1c-6-10.9-11.6-22-13.8-34.5c-0.7-3.7-0.3-7.2,0.3-10.8
	c1.3-8.4,1.7-16.9,1.4-25.4c-0.2-4.7-1.7-8.9-4.8-12.5c-4.3-5-10.5-3.8-12.8,2.5c-1.5,4-2.1,8.3-1.4,12.6c1.6,9.6,3.9,19.1,9.7,27.2
	c2.4,3.3,3.8,6.8,4.7,10.8c1.6,7.1,4.3,13.8,7.7,20.3c4.7,9,7.7,18.7,4.8,29c-1.7,6.1-3.8,12.2-6.1,18.1
	c-4.1,10.4-8.5,20.8-12.8,31.1c-0.2,0.6-0.4,1.2-0.8,1.6c-0.4,0.4-1,0.8-1.5,0.8c-0.5,0-1.2-0.5-1.4-0.9c-1.3-3.1-2.4-6.2-3.7-9.3
	c-4.7-11.3-12.5-20.8-19.3-30.8c-1.5-2.3-3.3-4.3-4.9-6.6c-4.8-6.6-7.8-13.1-4.2-21.8c2.6-6.4,3.3-13.5,4.9-20.3
	c0.8-3.6,1.1-7.2-0.2-10.8c-1.2-3.3-3.7-5.5-6.5-5.5c-3.5-0.1-5.6,1.8-6.9,4.9c-1.2,2.8-2,5.7-2.2,8.8c-0.1,1.5-0.3,2.9-1.7,3.8
	c-1.8-1.4-2.2-3.4-2.6-5.4c-1.4-6.5-2.6-13.1-4-19.7c-0.5-2.5-0.1-4.8,0.5-7.2c1.7-7.7,3.3-15.5,5.1-23.2c1.3-5.7,1.3-11.5,0.8-17.2
	c-0.5-5.3-2.5-10-6-14c-4.7-5.4-10.5-4.9-14.4,0.9c-2.1,3.1-2.8,6.7-2.8,10.4c0.2,6.4,0.7,12.8,2.2,19c2.2,9.2,4.5,18.3,8.7,26.8
	c2.6,5.2,3.9,10.9,4.8,16.6c3.3,21.4,11.5,40.8,23.6,58.7c1.1,1.7,3,3.1,2.3,6.1c-11.2-1.5-22-3.8-29.6-13.4c-1.1-1.4-2.2-3-3.7-4
	c-3.2-2.2-4.6-5.5-6-8.9c-4.4-11.4-10.9-21.7-17.3-32c-3.4-5.4-7.5-10.3-13.3-13.6c-1.3-0.7-2.6-1.6-4-2.2
	c-7.1-2.8-11.5,0.2-11.4,7.7c0.1,5.7,1.9,10.8,5.5,15.2c4.8,5.9,9.6,11.8,14.9,17.3c4.7,4.8,10.4,8.5,16.4,11.4
	c5.8,2.8,11.1,6.3,15.5,11c1,1.1,2.2,2.1,3.3,3.1c4.6,4.6,10,7.9,16.4,9.5c1.2,0.3,2.3,0.8,3.5,1c18.4,3.9,27,17.1,31.9,33.8
	c0.9,2.9,1.1,6,1.4,9c0.3,3.1,0.1,6.2-1.3,8.9c-3.9,7.3-6.1,15.2-9.2,22.8c-3.7,8.7-7.1,17.4-10.4,26.2c-3.7,10-7.2,20-9.6,30.4
	c-0.7,3-1.3,6,0.3,8.9c0.6,1.1,1.5,2.1,2.8,2c1.4-0.1,2-1.2,2.2-2.5c2.4-12.9,6.9-25.2,11.3-37.5c2.9-8,6.2-15.8,9.6-23.6
	c2.5-5.9,5.6-11.4,10.5-15.8c10.9-9.9,23.1-12.9,37.1-7.8c4.3,1.6,8.6,3.2,12.9,4.5c10.6,3.3,21,2.9,31-2.3c3-1.6,6-2.8,9.5-2.9
	c1.2-0.1,2.5-0.3,3.6-0.7c8.3-3.6,16.7-7.2,25-11.1c3.3-1.5,6.3-3.7,9.4-5.6c5.2-3,8.6-7.7,11.8-12.5c2.1-3.2,2.3-6.9,0-10.3
	c-2.5-3.8-6-5-10.3-4.3c-3.3,0.6-6.5,1.6-9.4,3.4c-10,6-19,13.2-25.5,23.1c-2.2,3.3-4.9,6.2-6.9,9.6c-3.8,6.1-9.8,9-16.3,10.8
	c-6.5,1.8-13.3,2.1-19.8-0.1c-6.9-2.3-13.6-5-20.2-7.4c-0.3-2.2,1-2.4,2.1-2.8c12.4-5.1,23.8-12.1,35.2-19.2
	c4.9-3.1,9-7.2,13.1-11.3c5.9-5.8,12.5-10.5,20.5-13.2c14.4-4.9,25.4-14.7,33.5-27c6.4-9.7,13.6-18.6,20.6-27.8
	c1.5-1.9,3-3.8,4.6-5.7c4.1-5.1,6.4-11,8-17.2c0.6-2.1,0.7-4.2,0.1-6.3c-0.8-3-2.9-4.8-5.9-4.8c-3.7,0-7.2,0.6-10,3.5
	c-4.5,4.6-8.5,9.5-10.1,15.9c-0.8,2.9-1.7,5.9-2.8,8.7c-2.1,5.2-3.2,10.4-2.5,16c0.6,4.4-0.3,8.6-2.7,12.3
	c-7.7,12-17.3,22-30.6,27.7c-1.4,0.6-2.9,1-4.3,1.4c-0.5,0.1-1.2,0-1.7-0.3c-0.9-0.6-0.7-1.6-0.3-2.4c0.5-1.1,1.1-2.2,1.8-3.2
	c5.7-9.1,9.6-19,12.7-29.2c1.5-4.9,3.1-9.9,5-14.7c4.1-10.6,6.4-21.5,6.9-32.9c0.1-3.1,0.8-5.9,2.3-8.7c4.5-8.4,6.8-17.6,9.2-26.7
	c1.8-6.5,1.7-13.3-0.2-19.8c-1.1-3.9-2.8-7.9-7.3-8.4c-4.5-0.5-7,3.1-8.9,6.6c-4.4,8.2-6.8,16.8-5,26.3c1.2,6.3,2,12.6,4.5,18.6
	c1.7,4,1.8,8.3,1.8,12.5c-0.1,6.1-0.8,12.2-2.5,18c-3.1,10.5-6.7,20.8-10.1,31.2c-0.7,2.2-2.7,2.5-4.1,0.8c-0.8-0.9-1.5-2-2.3-2.9
	c-4.5-5.2-6.1-11-4.5-17.8c2.2-9.2,2.8-18.6,3.1-28.1c0.1-3.4-0.1-6.7-1.4-9.9c-1.2-2.9-2.6-5.7-6.2-5.9c-3.4-0.2-6.1,2.4-7.3,6.9
	c-0.9,3.3-1.2,6.7-0.6,10c1.3,8.1,1.6,16.4,6.1,23.7c1.5,2.4,1.8,5.1,1.9,7.9c0.2,5.4,2,10.1,5.7,14.1c5.9,6.4,5.1,13.4,1.7,20.3
	c-2.2,4.6-4.9,9.2-8,13.3c-14.4,19.2-33.2,32.7-55.4,41.6c-0.5,0.2-1.2,0.1-1.8,0.1c-1-1.7,0.4-2.7,1.2-3.8
	c5.5-7.8,9.7-16.1,11.5-25.6c0.6-3,2-5.6,3.7-8.2c6.6-10.6,13.9-20.7,18.7-32.3c2.3-5.5,3.2-11.1,1.9-16.9c-1-4.8-4.3-6.6-8.8-4.6
	c-5.6,2.5-9,7.1-11.2,12.6c-3.3,8.3-4.1,17-4.3,25.9c-0.3,16.4-4.3,31.9-14,45.4c-4.8,6.7-10.8,12.3-18.6,15.6
	c-3.1,1.3-5.9,3.2-8.9,4.7c-2.4,1.2-4.5,3.1-7.4,3.2c-1.2-1.4-0.7-2.9-0.2-4.3c4.8-14.1,9.4-28.3,14.6-42.2
	c7.9-21.1,15.2-42.3,20.8-64.1c2.2-8.8,3.3-17.9,4.8-26.9c0.6-3.6,0.9-7.2,1.6-10.8c1.7-9.1,5.2-17.4,11.1-24.7
	c6.1-7.6,12.7-14.7,20.2-21c7.9-6.6,15.7-13.4,22.8-21c4-4.3,7.5-8.8,9.8-14.1c4.1-9.1,10.5-16.3,18-22.6c2.5-2.2,5-4.4,7.5-6.7
	c5.2-4.9,8.7-10.9,10.8-17.7c0.9-2.9,1.9-5.8,2.5-8.8c1.2-5.8,3.8-10.7,6.8-15.8c5.3-8.8,10.3-17.9,12.8-28.1
	c1.6-6.5,1.3-12.7-1.5-18.7c-1.9-4.1-7.4-5.1-10.7-2c-2,1.9-3.4,4.3-4,7c-2.5,10.6-5.6,21.2-4.8,32.3c0.6,8.2-0.2,16.4-1.9,24.5
	c-3.1,14.5-11.1,25.4-23.2,33.6c-0.7,0.5-1.7,1-2.4,0.2c-0.5-0.6-0.9-1.7-0.8-2.4c2.7-12.6,2.9-25.3,3.1-38.1
	c0.1-4.3-0.6-8.5-1.1-12.7c-1.2-10.3-1.4-20.6-3.5-30.8c-0.5-2.2,0.1-4.2,0.4-6.3c1-8.1,2-16.3,2.5-24.5c0.6-8.4-1.6-16.2-5.2-23.8
	c-1.8-3.7-4.4-5.6-8.6-5.6c-4.3,0.1-6.5,2.7-8,6.3c-2.8,6.6-2,13.2,0.6,19.5c3.1,7.3,6.2,14.6,9.9,21.6c3.9,7.4,6.1,15.2,6.9,23.4
	c0.7,7.6,1.7,15.1,2.5,22.7c0.1,1.2,0.1,2.4-0.1,3.6c-0.1,0.5-0.7,1-1.2,1.1c-0.5,0.1-1.3,0-1.6-0.3c-4.8-5.1-9.7-10.1-15-14.6
	c-2.5-2.1-3-5.2-3.5-8.2c-0.7-4.2-1-8.5-1.8-12.6c-0.6-3.3-1.7-6.5-2.6-9.6c-0.7-2.5-2.6-4.1-4.7-5.4c-4.3-2.6-8.9-0.3-9,4.8
	c-0.2,7,2.7,13,6.9,18.4c6.5,8.4,13.5,16.4,22,22.9c5.3,4,8.8,9.1,10.2,15.7c0.4,1.8,0.8,3.6,0.8,5.3c-0.4,18.2-4.1,35.6-12.6,51.8
	c-5,9.6-13.2,16.4-20.4,23.7c-2.5-0.9-2.3-2.6-2.6-4c-1.7-9-3.3-17.9-5.1-26.9c-1.3-6.2-0.9-12,2.1-17.7c1.1-2.1,2-4.5,2.6-6.8
	c2-7.7,3.9-15.3,5.6-23c1.5-7,1.3-13.9-2.7-20.3c-1-1.6-2.2-2.9-3.9-3.6c-3.7-1.6-6.7-0.8-8.3,2.9c-3.9,9.1-6.3,18.7-4.5,28.4
	c3.7,19.4,4.5,39.3,9.6,58.4c3,10.9,0.3,19.7-8.7,26.6c-5.3,4.1-9.6,9.3-13.9,14.4c-1.3,1.6-2.4,3.6-4.6,4.2c-1.7-1-1.2-2.6-1-4
	c0.5-4.5,1-9.1,1.8-13.5c3.4-17.4,2.7-35.1,2.2-52.6c-0.2-7.3-1.9-14.5-2.8-21.7c-2.4-19.7-6.6-38.9-14.4-57.3
	c-1.7-3.9-2.8-8-3.9-12.1c-2.1-8.1-2.3-16.2-0.4-24.4c1.8-7.7,3.7-15.3,5.6-23c2-8,2.8-16.1,1.3-24.4c-0.7-3.7-2.1-7-5.1-9.4
	c-1-0.8-2-1.2-3.2-1.1c-5.1-0.9-7.1,0.1-7.7,4.1c-0.2,1.5-0.3,3-0.1,4.5c0.7,8.2,1.7,16.3,5.7,23.7c2.1,3.9,2.6,8,2.2,12.3
	c-0.6,7.6-3,14.7-4.1,22.5c-1.4-0.9-2.1-1.1-2.4-1.5c-3.9-6.5-7.6-13.2-11.8-19.5c-5.4-8.3-8.8-17.1-10.1-26.9
	c-0.6-4.5-2.3-8.8-3.7-13.1c-1-3.3-3-6-5.8-8c-4.1-3-7.9-1.4-8.5,3.6c-0.4,2.8,0.2,5.4,1.1,8.1c2.8,8.2,7.2,15.4,12.8,21.9
	c11,12.8,19,27.4,26.2,42.5c0.6,1.2,1.6,2.6,0.3,4.7c-6.6-2.6-13.6-4.3-19.7-8.3c-4.8-3-8.3-7-10.1-12.4
	c-2.7-8.1-7.1-15.5-11.4-22.8c-3.5-5.8-7.7-10.9-13.9-14.1c-2.2-1.1-4.4-2-6.9-2c-5.7-0.1-9.7,4.7-8.5,10.3
	c0.9,3.9,3.1,7.3,5.6,10.4c7.4,9.1,16.5,16.1,26.8,21.6c3.2,1.7,6.5,3.5,9.1,6c5.2,4.9,11.5,7.9,18,10.6
	c15.3,6.3,15.8,6.9,21.8,22.2c4.6,11.6,8.1,23.5,9.9,36c1.5,10.2,3.3,20.4,4.5,30.7c1.1,9.7,1.1,19.4,0.7,29.1
	c-0.1,1.2-0.2,2.4-1.6,3.3c-2.3-3.1-4.4-6.4-7-9.4c-2.4-2.7-5.3-5-7.9-7.6c-2.9-2.9-4.4-6.5-5.1-10.5c-0.9-5.1-1.8-10.2-2.8-15.3
	c-1.5-8.1-4-15.9-8.5-22.9c-2.2-3.4-3.2-7-3.7-11.1c-1.4-12.1-6.7-22.6-14.6-31.8c-2-2.4-4.4-4.1-7.1-5.7c-2.9-1.7-5.9-1.8-8.6,0
	c-3,2-4.4,5-3.9,8.7c0.2,1.5,0.8,2.9,1.4,4.3c4.9,10.4,11.9,19.4,21.4,25.5c7,4.6,11.6,10.4,15.1,17.7c4.9,10.4,5.8,21.5,7.4,32.5
	c-1.4,0.3-2,0.7-2.4,0.6c-12.1-4-24.2-8-36.3-12.1c-6.7-2.3-12.6-6.1-17.9-10.7c-2.5-2.2-3.6-4.6-3.2-8c1-7.9,1.3-15.7,0-23.6
	c-0.5-3-1.3-6-2.8-8.6c-2-3.6-6.3-4-9.3-1.1c-1.8,1.8-2.6,4-3.2,6.4c-0.5,2.3,0.7,4.8-1.5,7.2c-4.7-7.5-7.6-15.2-9-23.7
	c-1-6.3-1.9-12.6-3.4-18.8c-2.1-9.4-6.4-17.7-14.4-23.6c-1-0.8-2-1.3-3.3-1.1c0,0,0,0,0,0c-4.7,0.2-6.4,1.3-7,4.6
	c-0.5,2.7-0.2,5.5,0.7,8.1c2.3,6.6,4.9,13.1,9.3,18.7c3.6,4.5,7.1,9.1,11.1,13.3c3.1,3.1,5.2,6.6,6.8,10.6
	c4.7,11.9,11.1,22.9,17.3,34c0.7,1.3,1.8,2.4,2.9,3.5c7.4,7.3,15.7,13.3,25.6,16.9c2.8,1,5.8,1.7,8.1,3.7c0.1,1.7-1.1,2.1-2.2,2.5
	c-4,1.4-8,3.2-12.1,4c-18.6,4-36.2,0.7-52.6-8.8c-3-1.8-5.3-4.9-7.8-7.6c-6.3-6.6-12.4-13.4-20-18.6c-3.5-2.4-7.3-4.3-11.4-5.5
	c-2.7-0.7-5.4-0.6-8,0.5C0.7,404-0.7,407.9,1.4,411.5z M82,573.1c0,0.1-0.3,0.4-0.3,0.4c-0.4-0.2-0.4-0.5,0-0.9
	C81.9,572.8,82,572.9,82,573.1z M154.6,591.2C154.6,591.2,154.5,591.2,154.6,591.2c-0.1,0.1-0.6,0.1-0.6,0.1
	S154.4,591.2,154.6,591.2z"/>
<path class="st0" d="M303.4,57c-0.4,4.3,0.4,8.6,1.8,12.6c2.8,8.1,6.6,15.8,12.4,22.1c5.6,6.1,10.6,12.4,13.8,20.1
	c1,2.5,2.7,4.7,4,6.9c-1.5,2.1-2.9,0.9-4.1,0.5c-3.5-1.3-7-2.1-10.7-1.4c-6.1,1.1-8,5.6-4.5,10.6c2,3,4.8,4.7,8.3,5
	c7,0.5,13.8,2.3,20.9,1.6c3.9-0.4,7.3,0.3,10.2,2.9c5,4.3,10.9,6.5,17.1,8.2c4.4,1.2,8.5,3.2,12.7,4.9c3.4,1.4,6.2,3.8,9.1,6
	c8.5,6.7,10,17.1,14.1,26.1c2.9,6.2,1.2,13.1-0.4,19.7c-1.6,6.6-4.6,12.5-9.4,17.4c-4.1,4.1-7.9,8.4-11.9,12.6
	c-10.1,10.6-20.2,21.1-30.2,31.6c-9.8,10.3-20.5,19.7-32.2,27.9c-0.2-0.5-0.6-1.1-0.5-1.6c1.4-12.4,3.3-24.6,8.8-36.1
	c1.6-3.4,4-6.1,6.5-8.7c5.9-6.1,11.2-12.8,15.9-19.9c2.6-4,3.7-8.3,3.3-13c-0.6-6.6-6.3-9.2-11.8-5.4c-3.5,2.5-6.5,5.5-8.4,9.4
	c-4.3,8.8-7.9,17.8-7.8,27.8c0,4.1-0.9,7.8-2.4,11.5c-2.9,6.7-4.5,13.7-5.5,21c-1.4,10-4.6,19.6-12.9,26.4
	c-4.9,4-10.2,7.7-15.5,11.2c-9.4,6.1-19,12-28.5,18c-0.5,0.3-1,0.7-1.6,0.8c-0.5,0.1-1.3,0.1-1.6-0.2c-0.4-0.3-0.7-1.1-0.6-1.5
	c0.7-3.2,1.7-6.5,2.4-9.7c2.7-12,1.9-24.1,2.1-36.3c0.1-2.7-0.2-5.5-0.2-8.2c-0.1-8.1,1.2-15.2,9.1-20.2c5.8-3.7,10.5-9.1,15.8-13.7
	c2.8-2.5,5.1-5.2,6.1-8.9c1-3.4,0.1-6.6-2.1-8.3c-2.8-2.1-5.6-1.7-8.5,0c-2.6,1.6-5,3.5-6.9,5.9c-0.9,1.2-2,2.2-3.6,2.2
	c-0.7-2.1,0.2-4.1,1-6c2.7-6.1,5.5-12.2,8.1-18.3c1-2.3,2.7-4,4.6-5.6c5.9-5.3,11.6-10.7,17.5-15.9c4.4-3.9,7.7-8.6,10.6-13.6
	c2.7-4.6,3.8-9.7,3.2-14.9c-0.7-7.1-5.7-10.1-12.3-7.6c-3.5,1.3-6.2,3.8-8.3,6.9c-3.6,5.3-6.9,10.8-9.3,16.7
	c-3.5,8.7-7,17.5-8.4,26.9c-0.9,5.8-3.1,11.2-5.7,16.3c-9.7,19.4-14.3,39.9-14.8,61.5c0,2,0.7,4.3-1.7,6.3
	c-8.2-7.8-15.7-15.9-16.4-28.1c-0.1-1.8-0.1-3.7-0.7-5.4c-1.4-3.7-0.6-7.1,0.3-10.7c3-11.9,3.8-24,4.4-36.1c0.4-6.4-0.1-12.8-3-18.7
	c-0.7-1.4-1.2-2.8-2-4.1c-4.1-6.4-9.5-6.5-13.7-0.3c-3.2,4.7-4.7,9.9-4.3,15.5c0.5,7.6,1,15.2,2.1,22.7c1,6.6,3.6,12.9,6.8,18.8
	c3.1,5.7,5.4,11.5,6.3,17.9c0.2,1.5,0.6,3,0.9,4.5c1.1,6.4,3.6,12.2,7.9,17.2c0.8,0.9,1.4,2,2.3,2.9c12.8,13.9,12.1,29.6,6.5,46
	c-1,2.8-2.6,5.5-4.1,8.2c-1.5,2.7-3.5,5.1-6.3,6.5c-7.4,3.6-13.8,8.9-20.7,13.2c-8,5-15.9,10.1-23.7,15.4
	c-8.8,6-17.5,12.2-25.5,19.2c-2.3,2-4.5,4.1-4.9,7.4c-0.2,1.3,0,2.6,1.1,3.3c1.2,0.7,2.3,0.2,3.2-0.7c9.4-9.1,20.2-16.6,30.9-24
	c7-4.8,14.3-9.3,21.5-13.7c5.5-3.3,11.2-6,17.7-6.8c14.6-1.7,26.3,2.8,34.7,15.1c2.6,3.8,5.1,7.5,7.9,11.2
	c6.7,8.8,15.4,14.6,26.6,16.1c3.4,0.5,6.5,1.2,9.4,3.1c1,0.6,2.2,1.2,3.3,1.5c8.9,1.9,17.8,3.8,26.8,5.4c3.6,0.7,7.3,0.6,10.9,0.9
	c5.9,0.5,11.5-1.3,16.8-3.3c3.5-1.4,5.8-4.3,6-8.4c0.2-4.5-2-7.5-5.9-9.4c-3-1.5-6.2-2.4-9.6-2.7c-11.6-0.9-23.1-0.3-34.1,4
	c-3.7,1.4-7.6,2.3-11.2,3.8c-6.7,2.8-13.2,1.7-19.6-0.7c-6.4-2.4-12-6-16.1-11.5c-4.3-5.9-8.2-12-12.1-17.8c1-1.9,2.2-1.3,3.3-1.1
	c13.1,3,26.4,3.9,39.8,4.8c5.8,0.4,11.5-0.7,17.2-1.6c8.2-1.3,16.3-1.3,24.4,1.2c14.6,4.4,29.2,2.8,42.9-2.6
	c10.8-4.2,21.9-7.3,32.9-10.7c2.3-0.7,4.7-1.3,7-2c6.3-1.8,11.6-5.3,16.5-9.4c1.7-1.4,3-3,3.8-5.1c1.1-2.9,0.4-5.6-2-7.3
	c-3-2.2-6.3-3.7-10.2-3c-6.4,1.1-12.4,2.8-17.5,7.1c-2.3,2-4.8,3.8-7.3,5.5c-4.7,3-8.6,6.6-11.3,11.6c-2.1,3.9-5.2,6.8-9.3,8.4
	c-13.2,5.4-26.8,7.9-41,4.8c-1.5-0.3-2.9-0.8-4.3-1.3c-0.5-0.2-1-0.7-1.1-1.2c-0.4-1,0.4-1.7,1.1-2.2c1-0.6,2.2-1.1,3.3-1.6
	c9.9-4.1,18.8-9.9,27.3-16.4c4.1-3.1,8.2-6.2,12.5-9.1c9.5-6.3,17.7-13.8,24.7-22.8c1.9-2.4,4.1-4.3,6.9-5.8
	c8.5-4.2,15.7-10.4,22.9-16.4c5.2-4.3,9.1-9.8,11.3-16.3c1.3-3.8,2.3-8.1-1.1-11.1c-3.4-3.1-7.5-1.5-11.1,0.2
	c-8.4,4.1-15.3,9.7-19.3,18.6c-2.6,5.8-5.7,11.4-7.1,17.7c-0.9,4.3-3.3,7.8-5.8,11.2c-3.6,4.9-7.8,9.5-12.5,13.2
	c-8.6,6.8-17.5,13.1-26.3,19.6c-1.9,1.4-3.6,0.5-3.8-1.7c-0.1-1.2-0.1-2.4-0.2-3.6c-0.7-6.8,1.4-12.5,6.7-17.1
	c7.1-6.2,13-13.6,18.8-21.1c2.1-2.7,3.8-5.5,4.6-8.8c0.7-3,1.2-6.1-1.6-8.4c-2.7-2.2-6.3-1.6-10,1.4c-2.6,2.2-4.8,4.8-6.3,7.8
	c-3.6,7.3-8.2,14.3-8.8,22.8c-0.2,2.8-1.5,5.2-3,7.5c-3,4.5-4.3,9.4-3.5,14.7c1.1,8.6-3.6,13.8-10.4,17.5c-4.5,2.5-9.3,4.6-14.2,6.2
	c-22.9,7.3-46,7.5-69.3,1.8c-0.5-0.1-1-0.6-1.5-1c0.2-2,1.9-2,3.2-2.4c9-3.2,17.3-7.5,24.2-14.2c2.2-2.2,4.9-3.4,7.8-4.6
	c11.5-4.8,23.3-8.8,33.9-15.5c5.1-3.2,9-7.2,11.4-12.7c1.9-4.5,0.3-7.8-4.5-8.8c-6-1.2-11.5,0.6-16.5,3.8
	c-7.5,4.8-13.2,11.5-18.5,18.7c-9.7,13.2-22,23.5-37.8,28.9c-7.9,2.7-15.9,3.8-24.2,1.9c-3.2-0.7-6.6-0.8-9.9-1.3
	c-2.7-0.4-5.5-0.1-7.9-1.7c-0.1-1.9,1.1-2.7,2.4-3.6c12.1-8.7,24-17.6,36.3-26c18.7-12.6,36.9-25.7,54.1-40.2
	c6.9-5.9,13.1-12.7,19.5-19.1c2.6-2.6,5-5.4,7.6-7.9c6.7-6.4,14.3-11.1,23.3-13.7c9.4-2.7,18.9-4.6,28.6-5.4
	c10.3-0.8,20.6-1.8,30.7-3.9c5.7-1.2,11.2-2.9,16.2-5.8c8.6-5,18-7.2,27.8-8c3.3-0.3,6.7-0.6,10-1.1c7.1-1,13.4-3.8,19.1-8.1
	c2.4-1.8,4.9-3.6,7.1-5.7c4.3-4,9.3-6.6,14.7-8.9c9.4-4.1,18.8-8.6,26.7-15.5c5.1-4.4,8.4-9.6,9.6-16.1c0.8-4.5-3-8.4-7.6-7.8
	c-2.8,0.4-5.3,1.5-7.4,3.4c-8.2,7.2-16.8,14-22.6,23.6c-4.3,7-9.6,13.2-15.7,18.9c-10.9,10.1-23.8,14.3-38.4,14
	c-0.9,0-2-0.2-2.1-1.3c-0.1-0.8,0.2-1.9,0.8-2.4c9.5-8.7,17-19,24.6-29.3c2.5-3.5,4.4-7.2,6.5-11c5-9,10.8-17.6,15-27.1
	c0.9-2,2.5-3.3,3.9-4.9c5.5-6.1,11-12.1,16.2-18.5c5.3-6.5,8.1-14.2,9.5-22.4c0.7-4.1-0.3-7.2-3.7-9.5c-3.5-2.4-6.9-1.6-10.2,0.5
	c-6.1,3.8-9.3,9.6-10.8,16.3c-1.7,7.7-3.4,15.5-4.5,23.3c-1.1,8.3-3.8,15.9-8,23.1c-3.8,6.6-7.4,13.3-11.1,19.9
	c-0.6,1-1.4,2-2.2,2.9c-0.3,0.3-1.1,0.4-1.6,0.3c-0.5-0.2-1.1-0.8-1.1-1.2c-1-6.9-2-13.8-3.8-20.6c-0.8-3.1,0.6-6,1.9-8.7
	c1.9-3.8,4.1-7.5,5.8-11.4c1.4-3,2.4-6.2,3.4-9.4c0.8-2.4,0.3-4.8-0.7-7.1c-2-4.6-7.1-5.4-10.2-1.3c-4.3,5.6-5.3,12.1-5.1,19
	c0.4,10.6,1.5,21.2,4.7,31.4c2,6.3,1.9,12.6-0.8,18.7c-0.7,1.6-1.4,3.4-2.5,4.8c-10.9,14.6-23.9,26.6-40.3,34.9
	c-9.7,4.9-20.2,5.8-30.4,7.4c-1.5-2.1-0.4-3.4,0.2-4.7c3.8-8.3,7.7-16.5,11.4-24.9c2.5-5.8,6.2-10.3,12-13.2c2.2-1.1,4.2-2.5,6.1-4
	c6-5.1,12.1-10.2,17.9-15.5c5.3-4.8,9.1-10.6,9.6-18.1c0.1-1.9-0.1-3.6-1.1-5.2c-2.1-3.5-5-4.5-8.5-2.4c-8.4,5.2-16,11.6-20.1,20.6
	c-8.3,17.9-19.1,34.6-26,53.2c-3.9,10.6-11.1,16.2-22.5,16.7c-6.7,0.3-13.2,2-19.7,3.7c-2,0.5-4,1.6-6.2,0.8
	c-0.8-1.8,0.5-2.8,1.5-3.9c3.1-3.4,6-6.8,9.3-10c12.9-12.2,22.5-27,32.3-41.6c4-6,6.8-12.9,10.3-19.3c9.4-17.4,17.2-35.5,21.4-55
	c0.9-4.1,2.3-8.2,3.9-12.2c3-7.8,7.5-14.6,13.8-20.1c5.9-5.2,11.9-10.4,17.9-15.5c6.3-5.4,11.6-11.5,15.1-19.1
	c1.6-3.4,2.4-6.9,1.3-10.6c-0.3-1.2-0.9-2.2-2-2.8c-3.7-3.7-5.9-4-8.7-1.1c-1.1,1.1-2,2.3-2.7,3.6c-4.2,7.1-8,14.3-9.1,22.7
	c-0.5,4.4-2.5,8-5.3,11.4c-4.9,5.8-10.9,10.2-16.3,15.9c-0.6-1.5-1.1-2.1-1-2.6c0.6-7.6,1.4-15.1,1.7-22.7
	c0.4-9.9,2.7-19.1,7.4-27.8c2.1-4,3.2-8.5,4.6-12.8c1.1-3.3,1-6.6-0.1-9.9c-1.6-4.9-5.6-5.7-9-2c-1.9,2.1-3,4.5-3.8,7.2
	c-2.5,8.3-3.1,16.7-2.3,25.3c1.6,16.8-0.4,33.3-3.3,49.8c-0.2,1.3-0.2,3-2.5,4c-3.9-5.9-8.5-11.4-11.3-18.2c-2.1-5.2-2.7-10.5-1-16
	c2.5-8.2,3.2-16.7,3.9-25.2c0.6-6.8,0-13.4-3.2-19.5c-1.1-2.2-2.4-4.2-4.5-5.7c-4.6-3.4-10.6-1.8-12.9,3.4
	c-1.6,3.7-1.7,7.7-1.5,11.7c0.7,11.7,4.1,22.7,9.4,33.1c1.6,3.3,3.2,6.6,4,10.1c1.5,7,4.8,13.1,8.5,19c8.8,14,8.9,14.8,4.9,30.7
	c-3,12.1-7,23.9-12.8,35c-4.7,9.2-9.1,18.6-14.1,27.6c-4.7,8.5-10.3,16.5-16.3,24.1c-0.7,0.9-1.6,1.9-3.3,1.8
	c-0.1-3.9,0.1-7.8-0.3-11.7c-0.4-3.6-1.4-7.1-2.1-10.7c-0.7-4,0.1-7.9,1.9-11.5c2.2-4.7,4.4-9.3,6.6-14c3.5-7.5,6-15.3,6.4-23.6
	c0.2-4,1.5-7.6,3.4-11.2c5.8-10.7,7.6-22.3,6.5-34.4c-0.3-3.1-1.2-5.9-2.5-8.7c-1.4-3.1-3.7-4.9-7-5c-3.6-0.1-6.5,1.6-8.2,4.8
	c-0.7,1.3-1.1,2.8-1.3,4.3c-2.1,11.3-1.6,22.6,2.6,33.2c3.1,7.8,3.5,15.2,2,23.1c-2,11.3-7.8,20.9-12.8,30.8c-1.3-0.5-2-0.6-2.3-0.9
	c-7.5-10.3-15.1-20.6-22.5-30.9c-4.1-5.8-6.7-12.2-8.3-19.1c-0.7-3.2-0.3-5.9,2.1-8.4c5.4-5.8,10.2-12.1,13.7-19.2
	c1.4-2.8,2.4-5.6,2.8-8.6c0.4-4.1-2.8-6.9-6.9-6.3c-2.5,0.4-4.4,1.7-6.3,3.4c-1.7,1.6-2.2,4.4-5.4,5c0.5-8.8,2.6-16.9,6.5-24.5
	c2.9-5.7,5.7-11.4,8.2-17.3c3.7-8.9,5-18.1,2-27.6c-0.4-1.2-0.9-2.2-2.1-2.8c0,0,0,0,0,0.1c-3.9-2.5-6-2.6-8.4-0.3
	c-2,2-3.3,4.3-4.1,7c-1.9,6.7-3.6,13.5-3.2,20.6c0.3,5.8,0.5,11.6,1.4,17.3c0.7,4.3,0.4,8.5-0.6,12.6c-3.1,12.4-4.2,25.1-5.6,37.8
	c-0.2,1.5,0.1,3,0.4,4.5c1.8,10.3,5.1,20,11.1,28.6c1.7,2.5,3.8,4.8,4.4,7.7c-0.9,1.5-2.1,1.1-3.2,0.8c-4.1-1.2-8.3-2-12.2-3.7
	c-17.5-7.6-29.9-20.4-37.7-37.7c-1.5-3.2-1.5-7.1-2-10.7c-1.3-9-2.3-18.1-5.5-26.7c-1.5-4-3.4-7.8-6.2-11.1
	c-1.8-2.2-4.1-3.6-6.8-4.3C307.2,50.5,303.8,52.9,303.4,57z M275.5,235.5c0,0.1-0.5,0.2-0.5,0.1c-0.2-0.4,0-0.7,0.5-0.7
	C275.6,235.2,275.6,235.3,275.5,235.5z M324.2,292.3C324.2,292.3,324.1,292.3,324.2,292.3c-0.1,0-0.5-0.2-0.5-0.2
	S324,292.2,324.2,292.3z"/>
<path class="st0" d="M802.2,37c-3.4,2.6-6,6.1-8,9.8c-4,7.6-7.1,15.6-7.7,24.1c-0.6,8.3-1.9,16.2-5.3,23.8c-1.1,2.4-1.6,5.1-2.3,7.6
	c-2.6,0.4-2.7-1.5-3.2-2.7c-1.4-3.4-3.2-6.5-6.2-8.8c-5-3.7-9.5-2-10.8,3.9c-0.8,3.5-0.2,6.7,2,9.4c4.4,5.4,7.8,11.7,13,16.4
	c2.9,2.6,4.7,5.6,4.8,9.4c0.2,6.6,2.7,12.3,5.6,18.1c2.1,4,3.5,8.4,5.1,12.7c1.3,3.5,1.4,7.1,1.7,10.7c0.9,10.7-5.8,19-9.5,28.1
	c-2.6,6.3-8.8,9.8-14.7,13.1c-6,3.3-12.2,5.2-19.1,4.9c-5.8-0.2-11.5,0-17.3-0.1c-14.6-0.2-29.1-0.4-43.7-0.6
	c-14.3-0.2-28.4-1.6-42.3-4.6c0.2-0.5,0.4-1.2,0.8-1.4c10-7.4,20.3-14.3,32.4-18.1c3.6-1.1,7.1-1.2,10.8-1.2
	c8.5,0.2,17-0.5,25.4-1.9c4.7-0.8,8.6-2.9,11.7-6.4c4.4-4.9,2.4-10.9-4.1-12.3c-4.2-0.9-8.5-1-12.6,0.2c-9.3,2.8-18.4,6.4-25.7,13.2
	c-3,2.8-6.3,4.7-10.1,6c-6.9,2.5-13.1,6-19.2,10.3c-8.3,5.8-17.5,10-28.1,8.5c-6.3-0.9-12.6-2.2-18.8-3.7
	c-10.9-2.7-21.7-5.7-32.6-8.6c-0.6-0.2-1.2-0.3-1.7-0.6c-0.4-0.3-0.9-0.9-0.9-1.3c0-0.5,0.3-1.2,0.7-1.5c2.9-1.7,5.9-3.2,8.7-4.8
	c10.6-6.1,19-15.1,28-23.1c2-1.8,3.9-3.9,5.9-5.7c5.9-5.6,12-9.5,21-7c6.7,1.8,13.8,1.5,20.8,2.2c3.7,0.4,7.3,0.1,10.7-1.6
	c3.2-1.6,5-4.4,4.7-7.2c-0.4-3.5-2.6-5.3-5.8-6.2c-3-0.8-5.9-1.3-9-1c-1.5,0.1-2.9,0.1-4-1.1c1.1-2,3.1-2.6,5-3.3
	c6.3-2.2,12.7-4.3,19-6.5c2.4-0.8,4.8-0.7,7.2-0.5c7.9,0.7,15.8,1.2,23.6,2c5.8,0.6,11.5-0.2,17.2-1.5c5.2-1.2,9.6-3.8,13.1-7.8
	c4.7-5.3,3.5-11.1-2.8-14.2c-3.4-1.7-7-2-10.7-1.4c-6.3,1-12.6,2.3-18.6,4.6c-8.8,3.4-17.6,6.8-25.4,12.2
	c-4.8,3.3-10.3,5.3-15.8,6.9c-20.8,6.1-39,16.7-55.1,31c-1.5,1.3-2.7,3.4-5.8,3.1c0.1-11.3,0.9-22.3,9.4-31.1
	c1.3-1.3,2.7-2.6,3.5-4.2c1.8-3.5,4.8-5.3,8.1-7.1c10.7-5.8,20.1-13.6,29.5-21.4c4.9-4.1,9.3-8.8,11.7-14.9c0.6-1.4,1.2-2.8,1.6-4.3
	c1.9-7.4-1.7-11.4-9.1-10.3c-5.6,0.8-10.5,3.3-14.3,7.4c-5.2,5.5-10.5,11-15.2,17c-4.1,5.3-7,11.4-9.1,17.8
	c-2,6.1-4.8,11.8-8.8,16.8c-1,1.2-1.8,2.5-2.7,3.7c-4,5.2-6.5,10.9-7.2,17.5c-0.1,1.2-0.5,2.4-0.6,3.6c-1.4,18.8-13.5,29-29.3,36.1
	c-2.8,1.2-5.8,1.8-8.7,2.6c-3,0.7-6.1,0.9-9-0.2c-7.7-2.9-15.9-4-23.8-6.2c-9.1-2.5-18.2-4.8-27.4-6.9c-10.4-2.4-20.8-4.5-31.4-5.6
	c-3.1-0.3-6.1-0.5-8.8,1.4c-1,0.7-1.9,1.7-1.6,3c0.2,1.3,1.4,1.8,2.7,1.9c13.1,0.7,25.9,3.5,38.6,6.3c8.3,1.8,16.5,4.1,24.7,6.5
	c6.1,1.8,12,4.1,17.1,8.4c11.2,9.5,15.8,21.2,12.5,35.7c-1,4.4-2,8.9-2.8,13.4c-1.9,10.9-0.2,21.2,6.3,30.4c2,2.8,3.5,5.6,4.1,9
	c0.2,1.2,0.6,2.4,1.2,3.4c4.7,7.8,9.4,15.6,14.3,23.3c2,3.1,4.5,5.7,6.7,8.6c3.7,4.7,8.7,7.6,13.9,10.1c3.4,1.6,7.1,1.4,10.3-1.3
	c3.4-2.9,4.1-6.6,2.9-10.7c-1-3.2-2.5-6.2-4.6-8.9c-7.2-9.2-15.5-17.1-26.2-22.2c-3.5-1.7-6.8-4-10.4-5.6c-6.6-3-10.2-8.5-12.8-14.8
	c-2.6-6.3-3.8-12.9-2.5-19.6c1.4-7.1,3.2-14.2,4.7-21c2.1-0.5,2.5,0.7,3,1.7c6.7,11.6,15.1,22.1,23.6,32.4c3.7,4.5,8.3,8,12.9,11.5
	c6.6,5.1,12,11.1,15.7,18.6c6.7,13.7,17.9,23.3,31.2,29.7c10.5,5,20.2,11.1,30.2,16.8c2.1,1.2,4.2,2.5,6.2,3.8
	c5.6,3.4,11.7,4.9,18.1,5.7c2.1,0.3,4.2,0.1,6.3-0.7c2.8-1.2,4.4-3.5,4-6.4c-0.5-3.7-1.6-7.1-4.7-9.5c-5.1-3.9-10.5-7.2-17.1-8
	c-3-0.4-6-0.9-9-1.6c-5.4-1.4-10.8-1.8-16.2-0.3c-4.3,1.1-8.5,0.8-12.5-1c-12.9-6-24-14.2-31.4-26.8c-0.8-1.3-1.4-2.7-2-4.1
	c-0.2-0.5-0.1-1.2,0.1-1.7c0.5-1,1.5-0.9,2.4-0.7c1.2,0.3,2.3,0.8,3.4,1.3c9.8,4.4,20,7,30.6,8.8c5.1,0.9,10.2,1.8,15.2,3
	c11,2.6,22.2,3.6,33.5,2.6c3.1-0.3,5.9,0,8.9,1.1c8.9,3.4,18.3,4.4,27.6,5.6c6.7,0.9,13.4,0,19.6-2.8c3.7-1.6,7.5-3.8,7.4-8.4
	c-0.1-4.6-4-6.5-7.7-8c-8.7-3.3-17.6-4.6-26.7-1.5c-6,2.1-12.3,3.6-17.8,6.9c-3.8,2.2-8,2.9-12.2,3.4c-6.1,0.7-12.2,0.8-18.2-0.2
	c-10.8-1.7-21.5-3.9-32.3-6c-2.3-0.4-2.8-2.3-1.4-4c0.8-0.9,1.7-1.7,2.5-2.6c4.5-5.1,10.1-7.5,17-6.8c9.4,1,18.8,0.3,28.2-0.6
	c3.4-0.3,6.6-1,9.6-2.7c2.7-1.5,5.3-3.3,5-6.9c-0.2-3.4-3.1-5.7-7.8-6.4c-3.4-0.5-6.8-0.3-10,0.7c-7.8,2.3-16.1,3.7-22.7,9.1
	c-2.2,1.8-4.9,2.5-7.6,2.9c-5.3,0.9-9.8,3.3-13.2,7.4c-5.5,6.7-12.6,6.8-19.9,4.4c-4.9-1.6-9.7-3.7-14.2-6.2
	c-20.9-11.8-36.8-28.6-48.5-49.5c-0.3-0.5-0.2-1.2-0.3-1.8c1.5-1.2,2.8,0.1,3.9,0.7c8.4,4.4,17.3,7.5,26.9,8
	c3.1,0.2,5.8,1.3,8.6,2.6c11.3,5.2,22.3,11.1,34.5,14.3c5.8,1.5,11.4,1.7,17-0.3c4.6-1.6,5.9-5.1,3.4-9.3c-3.2-5.2-8.2-8-14-9.5
	c-8.7-2.2-17.4-1.9-26.3-0.8c-16.3,1.9-32.2-0.1-46.8-8c-7.3-3.9-13.6-9.1-17.9-16.4c-1.7-2.9-3.9-5.4-5.8-8.2
	c-1.5-2.2-3.6-4.1-4.1-6.9c1.3-1.4,2.8-1,4.2-0.7c14.6,3,29.3,5.6,43.8,9c21.9,5.1,44,9.5,66.3,12.2c9,1.1,18.2,0.9,27.3,1.3
	c3.6,0.1,7.3,0,10.9,0.2c9.2,0.5,17.9,2.9,25.9,7.8c8.3,5.1,16.3,10.7,23.4,17.3c7.6,7,15.4,13.8,23.8,19.8
	c4.8,3.4,9.7,6.2,15.3,7.9c9.6,2.9,17.5,8.3,24.8,14.9c2.5,2.2,5,4.4,7.6,6.5c5.6,4.5,11.9,7.2,19,8.4c3,0.5,6,1.1,9,1.4
	c5.9,0.4,11.1,2.3,16.5,4.7c9.5,4.1,19.1,7.9,29.5,9c6.6,0.7,12.7-0.4,18.3-4c3.8-2.4,4.1-8,0.6-10.8c-2.2-1.7-4.7-2.8-7.5-3.1
	c-10.9-1.1-21.7-2.7-32.7-0.5c-8.1,1.6-16.2,2-24.5,1.3c-14.8-1.1-26.6-7.7-36.4-18.6c-0.6-0.7-1.2-1.6-0.5-2.4
	c0.5-0.6,1.5-1.1,2.3-1.1c12.8,1.1,25.5-0.4,38.2-1.9c4.3-0.5,8.3-1.7,12.4-2.7c10-2.5,20.3-4,30-7.5c2.1-0.7,4.2-0.4,6.3-0.5
	c8.2-0.1,16.4-0.2,24.6-0.7c8.4-0.5,15.9-3.7,22.9-8.3c3.4-2.3,5-5.1,4.4-9.2c-0.6-4.2-3.5-6.1-7.3-7.1c-6.9-1.9-13.3-0.3-19.3,3.2
	c-6.8,4-13.6,8-20.1,12.6c-6.8,4.8-14.2,8-22.4,9.9c-7.4,1.7-14.8,3.6-22.1,5.4c-1.2,0.3-2.4,0.4-3.6,0.3c-0.5,0-1.1-0.6-1.3-1
	c-0.2-0.5-0.2-1.3,0.1-1.7c4.4-5.4,8.7-10.9,12.5-16.8c1.7-2.7,4.8-3.6,7.7-4.5c4.1-1.2,8.3-2.1,12.3-3.5c3.2-1.1,6.2-2.5,9.2-3.9
	c2.3-1.1,3.7-3.1,4.7-5.4c2-4.6-0.9-8.8-6-8.3c-7,0.7-12.5,4.4-17.3,9.2c-7.5,7.5-14.5,15.5-19.8,24.8c-3.3,5.7-7.9,10-14.3,12.1
	c-1.7,0.6-3.4,1.3-5.2,1.5c-18.1,2-35.8,0.6-53-5.7c-10.2-3.7-18-10.9-26.1-17.2c0.5-2.6,2.2-2.6,3.6-3.1c8.7-2.9,17.4-5.6,26-8.6
	c6-2.1,11.8-2.5,17.8-0.2c2.3,0.8,4.7,1.4,7.1,1.7c7.8,1,15.7,1.9,23.6,2.5c7.1,0.6,14-0.5,19.7-5.3c1.5-1.2,2.6-2.5,3.1-4.4
	c1.1-3.9-0.1-6.8-4-7.9c-9.5-2.6-19.4-3.8-28.8-0.7c-18.8,6.2-38.4,9.5-56.6,17.2c-10.4,4.4-19.5,2.9-27.5-5.1
	c-4.8-4.7-10.4-8.3-16.1-11.9c-1.8-1.1-3.9-1.9-4.8-4c0.8-1.8,2.4-1.5,3.9-1.5c4.6-0.1,9.1-0.2,13.7,0c17.7,1.1,35.1-1.9,52.5-4.7
	c7.2-1.2,14.1-3.8,21.1-5.6c19.2-5,37.7-11.6,54.9-21.8c3.6-2.2,7.6-3.9,11.5-5.4c7.7-3.1,15.8-4.4,24.1-3.6
	c7.9,0.8,15.7,1.7,23.5,2.6c8.2,1,16.4,0.7,24.3-1.9c3.6-1.2,6.7-3,8.6-6.3c0.6-1.1,1-2.1,0.6-3.4c0.2-5.2-1.1-7-5.1-7.1
	c-1.5,0-3,0.1-4.5,0.4c-8.1,1.7-16,3.9-22.8,8.8c-3.6,2.6-7.6,3.6-12,3.8c-7.6,0.4-14.9-1.1-22.8-1.1c0.7-1.5,0.8-2.2,1.2-2.5
	c5.9-4.8,12.1-9.3,17.8-14.2c7.5-6.5,15.8-11,25.4-13.6c4.3-1.2,8.4-3.5,12.5-5.4c3.1-1.4,5.5-3.8,7.2-6.8c2.5-4.5,0.4-8-4.7-8
	c-2.8,0-5.4,0.9-7.8,2.1c-7.7,3.8-14.3,9.1-20,15.5c-11.2,12.6-24.7,22.4-38.7,31.5c-1.1,0.7-2.4,1.9-4.6,0.9
	c1.7-6.9,2.5-14,5.6-20.6c2.4-5.1,5.8-9.1,11-11.7c7.7-3.8,14.4-9,21.1-14.3c5.3-4.2,9.8-9.1,12.1-15.6c0.8-2.3,1.4-4.6,1.1-7.1
	c-0.7-5.6-5.9-9-11.3-7.1c-3.8,1.4-6.8,4-9.5,6.9c-8.1,8.5-13.8,18.5-17.9,29.4c-1.3,3.4-2.6,6.9-4.7,9.8
	c-4.1,5.8-6.3,12.4-8.1,19.2c-4.3,16-4.7,16.6-19.1,24.5c-10.9,6-22.3,11.1-34.4,14.5c-9.9,2.8-19.8,6-29.8,8.5
	c-9.4,2.4-19.1,3.6-28.8,4.5c-1.2,0.1-2.4,0.1-3.5-1.2c2.8-2.7,5.8-5.2,8.4-8.2c2.4-2.7,4.3-5.9,6.5-8.8c2.5-3.3,5.9-5.2,9.7-6.5
	c4.9-1.6,9.8-3.1,14.8-4.7c7.9-2.5,15.3-6,21.6-11.4c3.1-2.6,6.5-4.1,10.5-5.1c11.8-3,21.5-9.6,29.6-18.6c2.1-2.3,3.5-4.9,4.7-7.7
	c1.3-3.1,1-6.1-1.1-8.5c-2.4-2.7-5.6-3.7-9.1-2.7c-1.4,0.4-2.8,1.2-4.1,2c-9.7,6.2-17.6,14.3-22.5,24.6c-3.6,7.6-8.8,12.9-15.6,17.2
	c-9.7,6.2-20.6,8.5-31.2,11.6c-0.5-1.3-1-1.9-0.9-2.4c2.4-12.5,4.8-25.1,7.3-37.6c1.4-6.9,4.4-13.2,8.3-19.1
	c1.8-2.7,4.1-4.2,7.5-4.2c7.9,0,15.8-0.8,23.4-3.1c2.9-0.9,5.8-2,8.2-3.9c3.3-2.4,3.2-6.8-0.1-9.3c-2-1.5-4.3-2.1-6.8-2.3
	c-2.3-0.2-4.7,1.4-7.4-0.6c6.8-5.6,14.1-9.6,22.4-12c6.1-1.8,12.3-3.6,18.2-5.8c9.1-3.4,16.7-8.7,21.5-17.3c0.6-1.1,1-2.2,0.6-3.4
	c0,0,0,0,0,0.1c-0.8-4.6-2.2-6.2-5.5-6.3c-2.8-0.1-5.4,0.5-7.9,1.8c-6.2,3.2-12.3,6.6-17.3,11.7c-4,4.1-8.1,8.2-11.7,12.7
	c-2.7,3.4-5.9,6.1-9.7,8.1c-11.2,6.2-21.3,14-31.5,21.6c-1.2,0.9-2.1,2.1-3.1,3.3c-6.3,8.3-11.2,17.3-13.4,27.6
	c-0.6,2.9-0.9,6-2.6,8.5c-1.7,0.4-2.2-0.8-2.8-1.9c-1.9-3.8-4.2-7.5-5.6-11.5c-6.4-18-5.4-35.8,1.9-53.3c1.4-3.3,4.2-5.9,6.5-8.7
	c5.7-7.1,11.6-14,15.8-22.2c1.9-3.8,3.3-7.8,3.9-12.1c0.4-2.8-0.1-5.4-1.5-7.9C809.5,35.3,805.4,34.4,802.2,37z M652.5,138
	c-0.1,0-0.5-0.2-0.4-0.3c0.2-0.4,0.5-0.5,0.9-0.1C652.8,137.8,652.6,138,652.5,138z M644,212.3C644,212.3,644,212.3,644,212.3
	c-0.1,0-0.2-0.5-0.2-0.5S643.9,212.1,644,212.3z"/>
</svg>
